<?xml version="1.0" standalone="no"?>
<!DOCTYPE svg PUBLIC "-//W3C//DTD SVG 1.1//EN" "http://www.w3.org/Graphics/SVG/1.1/DTD/svg11.dtd" >
<svg xmlns="http://www.w3.org/2000/svg" xmlns:xlink="http://www.w3.org/1999/xlink" version="1.1">
<metadata>
Created by FontForge 20201107 at Sun Jun 30 07:31:49 2024
 By 
Copyright (C) 2000, 2007 Hoefler &#38; Frere-Jones. http://www.typography.com
</metadata>
<defs>
<font id="SVN-Gotham" horiz-adv-x="1024" >
  <font-face 
    font-family="SVN-Gotham"
    font-weight="450"
    font-stretch="normal"
    units-per-em="2048"
    panose-1="2 0 6 4 3 0 0 2 0 4"
    ascent="1638"
    descent="-410"
    x-height="1081"
    cap-height="1434"
    bbox="-98 -563 2417 2333"
    underline-thickness="40"
    underline-position="-271"
    unicode-range="U+0020-FB04"
  />
<missing-glyph 
d="M0 -410v2048h1024v-2048h-1024zM145 1536l367 -799l367 799h-734zM102 -156l353 770l-353 770v-1540zM922 1384l-353 -770l353 -770v1540zM512 492l-367 -799h734z" />
    <glyph glyph-name=".notdef" 
d="M0 -410v2048h1024v-2048h-1024zM145 1536l367 -799l367 799h-734zM102 -156l353 770l-353 770v-1540zM922 1384l-353 -770l353 -770v1540zM512 492l-367 -799h734z" />
    <glyph glyph-name=".null" horiz-adv-x="0" 
 />
    <glyph glyph-name="nonmarkingreturn" horiz-adv-x="682" 
 />
    <glyph glyph-name="space" unicode=" " horiz-adv-x="614" 
 />
    <glyph glyph-name="exclam" unicode="!" horiz-adv-x="618" 
d="M242 453l-78 909v72h291v-72l-76 -909h-137zM174 0v281h272v-281h-272z" />
    <glyph glyph-name="quotedbl" unicode="&#x22;" horiz-adv-x="997" 
d="M571 821l50 613h280v-11l-201 -602h-129zM123 821l47 613h281v-11l-199 -602h-129z" />
    <glyph glyph-name="numbersign" unicode="#" horiz-adv-x="1433" 
d="M207 0l57 330h-184v213h221l59 356h-204v213h241l56 322h219l-56 -322h336l54 322h219l-56 -322h183v-213h-219l-60 -356h205v-213h-242l-57 -330h-219l57 330h-336l-55 -330h-219zM518 543h336l61 356h-335z" />
    <glyph glyph-name="dollar" unicode="$" horiz-adv-x="1314" 
d="M584 -201v205q-278 36 -484 203l131 186q175 -144 361 -176v401q-230 58 -334 154.5t-104 265.5v4q0 164 118 269.5t312 122.5v118h178v-122q205 -25 385 -156l-115 -193q-129 100 -278 131v-389q234 -60 339 -159t105 -263v-4q0 -164 -119.5 -271t-316.5 -124v-203h-178
zM592 866v361q-95 -7 -146 -53.5t-51 -116.5v-4q0 -67 42 -110t155 -77zM754 580v-371q97 7 149.5 53.5t52.5 120.5v4q0 70 -44 114.5t-158 78.5z" />
    <glyph glyph-name="percent" unicode="%" horiz-adv-x="1738" 
d="M434 717q-148 0 -242 105.5t-94 256.5v4q0 152 95.5 259.5t244.5 107.5q148 0 242 -106t94 -257v-4q0 -152 -95.5 -259t-244.5 -107zM244 0l1048 1434h203l-1049 -1434h-202zM1300 -16q-148 0 -241.5 105.5t-93.5 256.5v4q0 152 95.5 259.5t244.5 107.5q147 0 241 -106
t94 -257v-4q0 -152 -95.5 -259t-244.5 -107zM438 874q70 0 112 59t42 146v4q0 87 -45 148t-113 61q-70 0 -111.5 -58.5t-41.5 -146.5v-4q0 -89 44.5 -149t112.5 -60zM1305 141q70 0 111.5 58.5t41.5 146.5v4q0 87 -45 148t-113 61q-70 0 -111.5 -58.5t-41.5 -146.5v-4
q0 -89 45 -149t113 -60z" />
    <glyph glyph-name="ampersand" unicode="&#x26;" horiz-adv-x="1425" 
d="M1178 -29l-191 195q-199 -186 -440 -186q-203 0 -335 113t-132 296v4q0 272 305 402q-119 151 -119 299v4q0 148 114 254t298 106q168 0 274.5 -99.5t106.5 -246.5v-4q0 -253 -316 -373l246 -250q80 119 154 277l190 -100q-99 -199 -194 -328l225 -230zM610 870
q115 43 170.5 95.5t55.5 128.5v4q0 72 -46 117t-118 45q-77 0 -123.5 -48.5t-46.5 -124.5v-4q0 -54 23.5 -100t84.5 -113zM573 188q143 0 271 125l-320 326q-96 -41 -143 -103.5t-47 -134.5v-4q0 -92 67 -150.5t172 -58.5z" />
    <glyph glyph-name="quotesingle" unicode="'" horiz-adv-x="550" 
d="M123 821l47 613h285v-11l-201 -602h-131z" />
    <glyph glyph-name="parenleft" unicode="(" horiz-adv-x="901" 
d="M805 -123l-109 -166q-284 155 -425.5 371t-141.5 506t141.5 505.5t425.5 370.5l109 -166q-221 -147 -324.5 -315.5t-103.5 -394.5q0 -227 103.5 -397t324.5 -314z" />
    <glyph glyph-name="parenright" unicode=")" horiz-adv-x="901" 
d="M207 -289l-109 166q221 147 324.5 316t103.5 395q0 225 -103.5 393t-324.5 317l109 166q567 -313 567 -876q0 -564 -567 -877z" />
    <glyph glyph-name="asterisk" unicode="*" horiz-adv-x="880" 
d="M369 782l28 250l-204 -149l-74 125l233 102l-233 102l74 125l204 -149l-28 250h143l-29 -250l205 149l74 -125l-234 -102l234 -102l-74 -125l-205 149l29 -250h-143z" />
    <glyph glyph-name="plus" unicode="+" horiz-adv-x="1298" 
d="M532 217v391h-393v228h393v389h234v-389h393v-228h-393v-391h-234z" />
    <glyph glyph-name="comma" unicode="," horiz-adv-x="550" 
d="M96 -297l-26 104q189 38 174 193h-105v281h273v-238q0 -168 -78 -248t-238 -92z" />
    <glyph glyph-name="hyphen" unicode="-" horiz-adv-x="835" 
d="M115 506v244h606v-244h-606z" />
    <glyph glyph-name="period" unicode="." horiz-adv-x="550" 
d="M139 0v281h273v-281h-273z" />
    <glyph glyph-name="slash" unicode="/" horiz-adv-x="1067" 
d="M-51 -262l925 1896h216l-926 -1896h-215z" />
    <glyph glyph-name="zero" unicode="0" horiz-adv-x="1482" 
d="M739 -25q-184 0 -327 99t-219 266.5t-76 372.5v4q0 205 77 373t221 268t328 100q183 0 326.5 -99t220 -266t76.5 -372v-4q0 -153 -45.5 -289t-126 -236t-199 -158.5t-256.5 -58.5zM743 203q108 0 191.5 68t127.5 183.5t44 258.5v4q0 217 -102.5 365.5t-264.5 148.5
q-108 0 -191 -68t-127 -183.5t-44 -258.5v-4q0 -142 44.5 -258.5t128.5 -186t193 -69.5z" />
    <glyph glyph-name="one" unicode="1" horiz-adv-x="811" 
d="M365 0v1188l-259 -72l-53 205l385 123h176v-1444h-249z" />
    <glyph glyph-name="two" unicode="2" horiz-adv-x="1255" 
d="M100 0v199l494 419q150 125 209 209t59 179q0 103 -65 163t-166 60q-94 0 -168.5 -50.5t-163.5 -164.5l-178 139q73 103 142 165.5t165.5 99t220.5 36.5q210 0 341.5 -118.5t131.5 -309.5v-4q0 -67 -15.5 -125.5t-41.5 -106.5t-76.5 -103.5t-102 -102t-136.5 -117.5
l-295 -246h682v-221h-1037z" />
    <glyph glyph-name="three" unicode="3" horiz-adv-x="1265" 
d="M637 -25q-338 0 -549 252l176 164q81 -96 170 -142t207 -46q107 0 177.5 60t70.5 157v4q0 105 -88 163t-242 58h-117l-41 158l387 411h-620v220h948v-189l-399 -409q68 -8 127.5 -26.5t114.5 -51t94 -77t62.5 -108.5t23.5 -141v-4q0 -199 -140 -326t-362 -127z" />
    <glyph glyph-name="four" unicode="4" horiz-adv-x="1394" 
d="M844 0v322h-723l-47 180l796 942h215v-916h205v-206h-205v-322h-241zM373 528h471v568z" />
    <glyph glyph-name="five" unicode="5" horiz-adv-x="1273" 
d="M623 -25q-297 0 -527 220l156 182q187 -172 369 -172q129 0 206.5 67.5t77.5 180.5v4q0 109 -82.5 173t-214.5 64q-131 0 -264 -63l-151 100l40 703h857v-224h-639l-23 -336q112 41 227 41q106 0 195.5 -28t157.5 -82.5t106.5 -141.5t38.5 -198v-4q0 -220 -145.5 -353
t-384.5 -133z" />
    <glyph glyph-name="six" unicode="6" horiz-adv-x="1343" 
d="M690 -25q-249 0 -399 150q-87 87 -130.5 214.5t-43.5 334.5v4q0 165 39.5 306t114.5 247t193.5 166.5t266.5 60.5q133 0 235.5 -40t202.5 -120l-135 -194q-80 64 -151 94.5t-160 30.5q-155 0 -245.5 -126t-98.5 -329q73 68 150 106t192 38q141 0 254 -52t180.5 -156
t67.5 -243v-4q0 -213 -152.5 -350.5t-380.5 -137.5zM684 193q132 0 209.5 73.5t77.5 186.5v4q0 110 -80 180t-213 70q-130 0 -210.5 -73t-80.5 -179v-4q0 -112 82 -185t215 -73z" />
    <glyph glyph-name="seven" unicode="7" horiz-adv-x="1247" 
d="M217 0l643 1212h-721v222h1008v-191l-647 -1243h-283z" />
    <glyph glyph-name="eight" unicode="8" horiz-adv-x="1290" 
d="M645 -20q-238 0 -392.5 113.5t-154.5 295.5v4q0 243 258 350q-209 107 -209 320v4q0 165 142 276t356 111q215 0 356.5 -110.5t141.5 -276.5v-4q0 -213 -209 -320q125 -58 191.5 -139.5t66.5 -204.5v-4q0 -125 -71.5 -220.5t-195 -145t-280.5 -49.5zM645 827
q111 0 183.5 59.5t72.5 151.5v4q0 86 -70.5 143.5t-185.5 57.5q-114 0 -185 -57.5t-71 -141.5v-4q0 -93 72.5 -153t183.5 -60zM645 190q138 0 219.5 61.5t81.5 154.5v4q0 97 -85.5 157t-215.5 60t-215.5 -60t-85.5 -157v-4q0 -91 82 -153.5t219 -62.5z" />
    <glyph glyph-name="nine" unicode="9" horiz-adv-x="1343" 
d="M612 -25q-139 0 -247.5 44.5t-210.5 127.5l137 193q83 -70 159.5 -102.5t167.5 -32.5q156 0 247.5 123.5t99.5 326.5q-124 -151 -336 -151q-229 0 -368.5 123t-139.5 331v5q0 213 149.5 354t384.5 141q132 0 226.5 -37t171.5 -114q85 -85 129.5 -215.5t44.5 -331.5v-4
q0 -230 -72.5 -406.5t-213 -275.5t-329.5 -99zM666 715q132 0 211 75t79 183v4q0 114 -82.5 189t-216.5 75q-130 0 -207 -76t-77 -190v-4q0 -114 79.5 -185t213.5 -71z" />
    <glyph glyph-name="colon" unicode=":" horiz-adv-x="571" 
d="M150 801v280h272v-280h-272zM150 0v281h272v-281h-272z" />
    <glyph glyph-name="semicolon" unicode=";" horiz-adv-x="571" 
d="M150 801v280h272v-280h-272zM106 -297l-26 104q189 38 174 193h-104v281h272v-238q0 -168 -78 -248t-238 -92z" />
    <glyph glyph-name="less" unicode="&#x3c;" horiz-adv-x="1298" 
d="M1116 158l-979 452v221l979 453v-235l-733 -326l733 -328v-237z" />
    <glyph glyph-name="equal" unicode="=" horiz-adv-x="1298" 
d="M156 862v230h987v-230h-987zM156 350v230h987v-230h-987z" />
    <glyph glyph-name="greater" unicode="&#x3e;" horiz-adv-x="1298" 
d="M184 158v235l731 326l-731 328v237l979 -453v-221z" />
    <glyph glyph-name="question" unicode="?" horiz-adv-x="1107" 
d="M424 453l-41 331l10 11q379 14 379 229v4q0 88 -63 141.5t-172 53.5q-181 0 -334 -162l-154 164q200 227 494 227q217 0 348 -112.5t131 -303.5v-4q0 -93 -32 -166.5t-89.5 -122.5t-129.5 -79.5t-161 -45.5l-20 -165h-166zM365 0v281h274v-281h-274z" />
    <glyph glyph-name="at" unicode="@" horiz-adv-x="2007" 
d="M1022 -332q-129 0 -249.5 32.5t-220.5 90.5t-183 140.5t-140 180.5t-88.5 213t-31.5 236q0 181 70 346t189.5 286t286 193t351.5 72q184 0 350.5 -67.5t284.5 -179t187.5 -259.5t69.5 -305q0 -125 -32 -224t-87.5 -160.5t-126 -93.5t-151.5 -32q-113 0 -188.5 40
t-114.5 104q-140 -144 -317 -144q-158 0 -264.5 107t-106.5 280q0 105 39.5 201t103.5 163.5t149 107.5t173 40q188 0 289 -151l24 123l199 -31l-90 -516q-11 -72 -11 -88q0 -67 43 -106.5t117 -39.5q116 0 193.5 110t77.5 310q0 112 -39 220.5t-113 200.5t-172 162.5
t-224.5 110t-262.5 39.5q-172 0 -324 -65t-259.5 -175t-170 -261t-62.5 -318q0 -168 62.5 -318t171 -259.5t264.5 -173.5t334 -64q147 0 265.5 33.5t240.5 103.5l37 -61q-253 -154 -543 -154zM936 315q112 0 197.5 96t85.5 228q0 97 -61 159t-154 62q-115 0 -200 -93
t-85 -230q0 -104 59.5 -163t157.5 -59z" />
    <glyph glyph-name="A" unicode="A" horiz-adv-x="1617" 
d="M61 0l631 1444h234l630 -1444h-266l-145 346h-678l-148 -346h-258zM559 569h494l-248 574z" />
    <glyph glyph-name="B" unicode="B" horiz-adv-x="1478" 
d="M184 0v1434h643q248 0 375 -127q96 -96 96 -238v-4q0 -214 -204 -320q139 -48 211.5 -128.5t72.5 -219.5v-4q0 -189 -143 -291t-387 -102h-664zM432 829h344q126 0 198.5 49.5t72.5 145.5v4q0 87 -65 134.5t-187 47.5h-363v-381zM432 223h418q131 0 203.5 50t72.5 147v4
q0 93 -74 142.5t-221 49.5h-399v-393z" />
    <glyph glyph-name="C" unicode="C" horiz-adv-x="1511" 
d="M850 -25q-154 0 -290 57.5t-232 156.5t-151.5 235.5t-55.5 288.5v4q0 152 55 288t151 236t235 158.5t298 58.5q184 0 316 -57.5t245 -165.5l-161 -186q-94 86 -190 132t-212 46q-134 0 -243 -68t-169.5 -184t-60.5 -254v-4q0 -213 135 -361.5t338 -148.5q123 0 217 46
t195 140l162 -164q-115 -126 -253 -190t-329 -64z" />
    <glyph glyph-name="D" unicode="D" horiz-adv-x="1601" 
d="M184 0v1434h535q166 0 309 -55t242 -150t155 -226.5t56 -281.5v-4q0 -150 -56 -282t-155 -228t-242 -151.5t-309 -55.5h-535zM436 229h283q224 0 361 135.5t137 348.5v4q0 213 -137.5 350t-360.5 137h-283v-975z" />
    <glyph glyph-name="E" unicode="E" horiz-adv-x="1372" 
d="M184 0v1434h1063v-226h-811v-372h719v-226h-719v-385h821v-225h-1073z" />
    <glyph glyph-name="F" unicode="F" horiz-adv-x="1343" 
d="M184 0v1434h1067v-230h-815v-391h723v-229h-723v-584h-252z" />
    <glyph glyph-name="G" unicode="G" horiz-adv-x="1605" 
d="M864 -25q-220 0 -390.5 97.5t-261.5 265t-91 375.5v4q0 149 55 284.5t151 236.5t235 160.5t298 59.5q179 0 307 -47.5t244 -146.5l-160 -191q-92 78 -182.5 116t-218.5 38t-235.5 -69.5t-168.5 -185.5t-61 -251v-4q0 -147 60 -263t171.5 -182.5t255.5 -66.5
q203 0 347 108v269h-367v219h610v-602q-265 -224 -598 -224z" />
    <glyph glyph-name="H" unicode="H" horiz-adv-x="1556" 
d="M184 0v1434h252v-596h684v596h252v-1434h-252v604h-684v-604h-252z" />
    <glyph glyph-name="I" unicode="I" horiz-adv-x="649" 
d="M199 0v1434h252v-1434h-252z" />
    <glyph glyph-name="J" unicode="J" horiz-adv-x="1144" 
d="M502 -20q-290 0 -459 231l166 170q67 -85 134 -126.5t155 -41.5q106 0 166.5 71t60.5 210v940h258v-947q0 -248 -133 -381q-126 -126 -348 -126z" />
    <glyph glyph-name="K" unicode="K" horiz-adv-x="1484" 
d="M184 0v1434h252v-721l682 721h309l-596 -617l623 -817h-305l-490 645l-223 -229v-416h-252z" />
    <glyph glyph-name="L" unicode="L" horiz-adv-x="1267" 
d="M184 0v1434h252v-1205h754v-229h-1006z" />
    <glyph glyph-name="M" unicode="M" horiz-adv-x="1777" 
d="M184 0v1434h269l436 -678l436 678h268v-1434h-252v1028l-452 -676h-8l-449 672v-1024h-248z" />
    <glyph glyph-name="N" unicode="N" horiz-adv-x="1617" 
d="M184 0v1434h234l768 -992v992h248v-1434h-211l-791 1020v-1020h-248z" />
    <glyph glyph-name="O" unicode="O" horiz-adv-x="1740" 
d="M868 -25q-215 0 -387 100.5t-266 268.5t-94 369v4q0 149 56 284.5t154 236.5t239 160.5t302 59.5t301.5 -58.5t238 -158.5t153 -235t55.5 -285v-4q0 -149 -56.5 -285t-154 -236.5t-239 -160.5t-302.5 -60zM872 207q139 0 250.5 68t172.5 183.5t61 254.5v4
q0 139 -61.5 255.5t-174 185.5t-252.5 69q-139 0 -250.5 -68t-172 -183.5t-60.5 -254.5v-4q0 -104 36 -197.5t99.5 -162.5t155 -109.5t196.5 -40.5z" />
    <glyph glyph-name="P" unicode="P" horiz-adv-x="1368" 
d="M184 0v1434h566q250 0 397 -131t147 -349v-4q0 -155 -78 -267.5t-206 -167t-289 -54.5h-285v-461h-252zM436 688h293q141 0 225 71t84 185v4q0 125 -82.5 190.5t-226.5 65.5h-293v-516z" />
    <glyph glyph-name="Q" unicode="Q" horiz-adv-x="1740" 
d="M1477 -43l-172 154q-190 -136 -437 -136q-215 0 -387 100.5t-266 268.5t-94 369v4q0 149 56 284.5t154 236.5t239 160.5t302 59.5t301.5 -58.5t238 -158.5t153 -235t55.5 -285v-4q0 -252 -145 -441l163 -139zM872 207q137 0 246 69l-246 209l162 185l248 -226
q74 115 74 269v4q0 139 -61.5 255.5t-174 185.5t-252.5 69q-139 0 -250.5 -68t-172 -183.5t-60.5 -254.5v-4q0 -104 36 -197.5t99.5 -162.5t155 -109.5t196.5 -40.5z" />
    <glyph glyph-name="R" unicode="R" horiz-adv-x="1480" 
d="M184 0v1434h639q267 0 414 -144q119 -125 119 -309v-4q0 -169 -92.5 -281t-249.5 -153l387 -543h-297l-352 500h-316v-500h-252zM436 723h369q135 0 215 65t80 175v4q0 116 -77.5 176.5t-219.5 60.5h-367v-481z" />
    <glyph glyph-name="S" unicode="S" horiz-adv-x="1310" 
d="M686 -20q-346 0 -598 229l152 180q109 -95 215.5 -140.5t236.5 -45.5q117 0 185.5 49t68.5 131v4q0 53 -24.5 89t-96 68.5t-202.5 61.5q-123 29 -205 61t-147 81t-95.5 119.5t-30.5 166.5v4q0 184 137.5 300t352.5 116q294 0 520 -180l-135 -191q-202 148 -389 148
q-108 0 -171 -48t-63 -122v-4q0 -58 28.5 -95t100 -67t211.5 -64q119 -31 200.5 -65t142.5 -83t89.5 -115.5t28.5 -155.5v-4q0 -199 -141 -313.5t-371 -114.5z" />
    <glyph glyph-name="T" unicode="T" horiz-adv-x="1327" 
d="M537 0v1200h-455v234h1163v-234h-454v-1200h-254z" />
    <glyph glyph-name="U" unicode="U" horiz-adv-x="1550" 
d="M772 -23q-284 0 -447 162.5t-163 468.5v826h252v-816q0 -199 95 -304t267 -105q170 0 265.5 102t95.5 297v826h252v-813q0 -314 -164.5 -479t-452.5 -165z" />
    <glyph glyph-name="V" unicode="V" horiz-adv-x="1536" 
d="M657 -10l-596 1444h279l432 -1102l430 1102h273l-596 -1444h-222z" />
    <glyph glyph-name="W" unicode="W" horiz-adv-x="2285" 
d="M573 -10l-499 1444h272l342 -1063l352 1067h213l353 -1067l342 1063h264l-500 -1444h-217l-352 1030l-352 -1030h-218z" />
    <glyph glyph-name="X" unicode="X" horiz-adv-x="1492" 
d="M76 0l522 729l-502 705h297l357 -514l358 514h289l-500 -701l520 -733h-297l-377 543l-378 -543h-289z" />
    <glyph glyph-name="Y" unicode="Y" horiz-adv-x="1466" 
d="M606 0v565l-569 869h297l401 -635l406 635h289l-570 -863v-571h-254z" />
    <glyph glyph-name="Z" unicode="Z" horiz-adv-x="1437" 
d="M133 0v186l846 1024h-819v224h1147v-187l-846 -1024h846v-223h-1174z" />
    <glyph glyph-name="bracketleft" unicode="[" horiz-adv-x="929" 
d="M180 -266v1700h629v-195h-393v-1311h393v-194h-629z" />
    <glyph glyph-name="backslash" unicode="\" horiz-adv-x="1067" 
d="M903 -262l-926 1896h216l925 -1896h-215z" />
    <glyph glyph-name="bracketright" unicode="]" horiz-adv-x="929" 
d="M121 -266v194h393v1311h-393v195h631v-1700h-631z" />
    <glyph glyph-name="asciicircum" unicode="^" 
d="M115 1010l309 426h176l309 -426h-190l-209 270l-209 -270h-186z" />
    <glyph glyph-name="underscore" unicode="_" horiz-adv-x="1228" 
d="M-4 -328v193h1237v-193h-1237z" />
    <glyph glyph-name="grave" unicode="`" 
d="M506 1219l-252 235l225 100l213 -335h-186z" />
    <glyph glyph-name="a" unicode="a" horiz-adv-x="1202" 
d="M1063 0h-246v133q-131 -156 -350 -156q-105 0 -191 37t-140 114t-54 183v4q0 174 120 264.5t318 90.5q159 0 299 -45v20q0 113 -68.5 172.5t-197.5 59.5q-146 0 -309 -68l-68 199q100 46 193.5 68t218.5 22q238 0 356.5 -118t118.5 -339v-641zM823 391v62
q-108 43 -248 43q-116 0 -181.5 -45t-65.5 -123v-4q0 -75 59 -117.5t150 -42.5q125 0 205.5 62.5t80.5 164.5z" />
    <glyph glyph-name="b" unicode="b" horiz-adv-x="1372" 
d="M770 -23q-222 0 -367 191v-168h-247v1495h247v-594q141 203 367 203q96 0 186 -38t161 -107t114 -177.5t43 -238.5v-4q0 -131 -42.5 -239t-113 -177.5t-160.5 -107.5t-188 -38zM713 193q131 0 220 95t89 251v4q0 154 -89.5 250t-219.5 96q-131 0 -223.5 -97t-92.5 -249
v-4q0 -153 92.5 -249.5t223.5 -96.5z" />
    <glyph glyph-name="c" unicode="c" horiz-adv-x="1169" 
d="M655 -25q-158 0 -286.5 75.5t-200.5 204t-72 280.5v4q0 152 72 281.5t201.5 206.5t287.5 77q146 0 249.5 -47.5t183.5 -138.5l-154 -166q-63 66 -128 100.5t-153 34.5q-133 0 -222 -100.5t-89 -243.5v-4q0 -145 92 -247t232 -102q82 0 148 35t132 101l150 -148
q-87 -99 -190.5 -151t-252.5 -52z" />
    <glyph glyph-name="d" unicode="d" horiz-adv-x="1372" 
d="M602 -23q-96 0 -185.5 38t-160.5 107.5t-113.5 177.5t-42.5 239v4q0 131 42 239t112.5 177.5t160 107t187.5 37.5q216 0 369 -191v582h248v-1495h-248v180q-144 -203 -369 -203zM662 193q128 0 220.5 97.5t92.5 248.5v4q0 152 -92 249t-221 97q-132 0 -222 -94.5
t-90 -251.5v-4q0 -153 90.5 -249.5t221.5 -96.5z" />
    <glyph glyph-name="e" unicode="e" horiz-adv-x="1236" 
d="M651 -25q-155 0 -281 70t-200 199t-74 293v4q0 154 67 283t189 204.5t273 75.5q101 0 186 -30.5t145.5 -84.5t103 -127.5t63 -159.5t20.5 -180q0 -19 -4 -69h-795q20 -131 103.5 -203t207.5 -72q89 0 156 31.5t137 97.5l146 -129q-172 -203 -443 -203zM342 616h555
q-13 125 -84.5 205t-189.5 80q-114 0 -188.5 -77.5t-92.5 -207.5z" />
    <glyph glyph-name="f" unicode="f" horiz-adv-x="770" 
d="M211 0v868h-137v207h137v78q0 180 88 268q86 86 244 86q104 0 200 -28v-209q-80 26 -145 26q-143 0 -143 -163v-60h286v-205h-282v-868h-248z" />
    <glyph glyph-name="g" unicode="g" horiz-adv-x="1372" 
d="M637 -332q-271 0 -483 129l92 187q184 -115 385 -115q167 0 254.5 84.5t87.5 247.5v84q-74 -96 -164.5 -147.5t-216.5 -51.5q-96 0 -184 35t-157 98.5t-110 160.5t-41 212v4q0 116 41 213.5t110 161t157 98.5t184 35q126 0 216.5 -49.5t162.5 -134.5v161h248v-860
q0 -269 -138 -407q-146 -146 -444 -146zM657 295q132 0 225 84.5t93 212.5v4q0 131 -93 215t-225 84q-131 0 -219 -83t-88 -214v-4q0 -131 88.5 -215t218.5 -84z" />
    <glyph glyph-name="h" unicode="h" horiz-adv-x="1269" 
d="M156 0v1495h247v-582q131 191 338 191q183 0 284 -111.5t101 -304.5v-688h-247v614q0 127 -60.5 196t-171.5 69q-110 0 -177 -71.5t-67 -197.5v-610h-247z" />
    <glyph glyph-name="i" unicode="i" horiz-adv-x="585" 
d="M160 1247v236h266v-236h-266zM170 0v1081h248v-1081h-248z" />
    <glyph glyph-name="j" unicode="j" horiz-adv-x="585" 
d="M160 1247v236h266v-236h-266zM102 -334q-53 0 -118 10v199q37 -6 69 -6q117 0 117 131v1081h248v-1095q0 -320 -316 -320z" />
    <glyph glyph-name="k" unicode="k" horiz-adv-x="1191" 
d="M156 0v1495h247v-893l449 479h301l-430 -440l444 -641h-286l-326 467l-152 -158v-309h-247z" />
    <glyph glyph-name="l" unicode="l" horiz-adv-x="585" 
d="M170 0v1495h248v-1495h-248z" />
    <glyph glyph-name="m" unicode="m" horiz-adv-x="1945" 
d="M156 0v1081h247v-163q62 86 139.5 136t190.5 50q114 0 196 -51t126 -140q146 191 366 191q179 0 279 -108.5t100 -305.5v-690h-248v614q0 128 -57 196.5t-162 68.5t-168 -70.5t-63 -198.5v-610h-248v616q0 127 -57 195t-162 68t-168.5 -72.5t-63.5 -198.5v-608h-247z" />
    <glyph glyph-name="n" unicode="n" horiz-adv-x="1269" 
d="M156 0v1081h247v-168q131 191 338 191q183 0 284 -111.5t101 -304.5v-688h-247v614q0 127 -60.5 196t-171.5 69q-110 0 -177 -71.5t-67 -197.5v-610h-247z" />
    <glyph glyph-name="o" unicode="o" horiz-adv-x="1345" 
d="M670 -25q-121 0 -228.5 44.5t-183 120t-119 178.5t-43.5 217v4q0 153 74.5 282.5t208 206t295.5 76.5q163 0 295.5 -75.5t206 -204t73.5 -281.5v-4q0 -113 -44 -216.5t-120 -180t-184.5 -122t-230.5 -45.5zM674 190q148 0 237.5 100t89.5 245v4q0 145 -93.5 246.5
t-237.5 101.5q-146 0 -236 -99.5t-90 -244.5v-4q0 -143 95 -246t235 -103z" />
    <glyph glyph-name="p" unicode="p" horiz-adv-x="1372" 
d="M156 -328v1409h247v-180q141 203 367 203q96 0 186 -38t161 -107t114 -177.5t43 -238.5v-4q0 -131 -42.5 -239t-113 -177.5t-160.5 -107.5t-188 -38q-222 0 -367 191v-496h-247zM713 193q131 0 220 95t89 251v4q0 154 -89.5 250t-219.5 96q-131 0 -223.5 -97t-92.5 -249
v-4q0 -153 92.5 -249.5t223.5 -96.5z" />
    <glyph glyph-name="q" unicode="q" horiz-adv-x="1372" 
d="M971 -328v508q-144 -203 -369 -203q-96 0 -185.5 38t-160.5 107.5t-113.5 177.5t-42.5 239v4q0 131 42 239t112.5 177.5t160 107t187.5 37.5q216 0 369 -191v168h248v-1409h-248zM662 193q128 0 220.5 97.5t92.5 248.5v4q0 152 -92 249t-221 97q-132 0 -222 -94.5
t-90 -251.5v-4q0 -153 90.5 -249.5t221.5 -96.5z" />
    <glyph glyph-name="r" unicode="r" horiz-adv-x="845" 
d="M156 0v1081h247v-243q53 129 149.5 199.5t233.5 64.5v-262h-14q-170 0 -269.5 -109.5t-99.5 -318.5v-412h-247z" />
    <glyph glyph-name="s" unicode="s" 
d="M526 -20q-119 0 -238 41t-220 120l110 168q177 -133 354 -133q79 0 123.5 31.5t44.5 85.5v4q0 28 -16.5 50t-52 39.5t-68 29t-87.5 28.5q-11 3 -17 5q-56 15 -97 29.5t-89.5 41t-79 58t-51.5 80t-21 108.5v4q0 150 109.5 240t275.5 90q102 0 206 -32.5t191 -90.5
l-98 -176q-168 102 -305 102q-71 0 -111.5 -30t-40.5 -78v-4q0 -26 18.5 -48.5t59 -41.5t73.5 -31t93 -31q56 -18 96 -33t88.5 -42.5t79 -58.5t51.5 -78t21 -103v-5q0 -164 -112.5 -251.5t-289.5 -87.5z" />
    <glyph glyph-name="t" unicode="t" horiz-adv-x="839" 
d="M518 -18q-311 0 -311 317v569h-137v213h137v297h248v-297h290v-213h-290v-530q0 -135 133 -135q80 0 153 37v-203q-99 -55 -223 -55z" />
    <glyph glyph-name="u" unicode="u" horiz-adv-x="1269" 
d="M528 -23q-183 0 -284 111.5t-101 304.5v688h248v-614q0 -127 60.5 -195.5t171.5 -68.5q110 0 176.5 71t66.5 197v610h248v-1081h-248v168q-132 -191 -338 -191z" />
    <glyph glyph-name="v" unicode="v" horiz-adv-x="1218" 
d="M498 -8l-445 1089h266l291 -794l293 794h260l-442 -1089h-223z" />
    <glyph glyph-name="w" unicode="w" horiz-adv-x="1763" 
d="M416 -8l-350 1089h253l218 -741l239 745h211l242 -745l221 741h248l-355 -1089h-221l-241 739l-244 -739h-221z" />
    <glyph glyph-name="x" unicode="x" horiz-adv-x="1187" 
d="M61 0l398 549l-383 532h270l250 -356l250 356h264l-383 -526l399 -555h-270l-266 379l-264 -379h-265z" />
    <glyph glyph-name="y" unicode="y" horiz-adv-x="1220" 
d="M377 -334q-134 0 -256 66l84 184q77 -41 145 -41q55 0 89.5 27t64.5 98l-451 1081h264l308 -802l280 802h258l-430 -1112q-65 -166 -145.5 -234.5t-210.5 -68.5z" />
    <glyph glyph-name="z" unicode="z" horiz-adv-x="1146" 
d="M106 0v170l625 709h-602v202h918v-170l-625 -708h625v-203h-941z" />
    <glyph glyph-name="braceleft" unicode="{" horiz-adv-x="997" 
d="M895 -125l-43 -164q-137 24 -229 61.5t-143 90t-72 114t-21 144.5q0 15 2 72t2 75q0 123 -51.5 174.5t-179.5 51.5h-54v188h54q128 0 179.5 51t51.5 174q0 18 -2 75.5t-2 72.5q0 83 21 144t72 113.5t143 90t229 61.5l43 -164q-92 -25 -147.5 -50t-84.5 -60.5t-38 -72.5
t-9 -97q0 -20 2.5 -75t2.5 -77q0 -117 -52.5 -181.5t-160.5 -98.5q110 -37 161.5 -100.5t51.5 -180.5q0 -22 -2.5 -76.5t-2.5 -74.5q0 -60 9 -97.5t38 -72.5t84.5 -60.5t147.5 -50.5z" />
    <glyph glyph-name="bar" unicode="|" horiz-adv-x="677" 
d="M240 -262v1896h198v-1896h-198z" />
    <glyph glyph-name="braceright" unicode="}" horiz-adv-x="997" 
d="M145 -289l-43 164q92 25 147.5 50.5t84.5 60.5t38 72.5t9 97.5q0 20 -2 74.5t-2 76.5q0 117 52.5 182t160.5 99q-110 37 -161.5 100t-51.5 180q0 22 2 77t2 75q0 60 -9 97t-38 72.5t-84.5 60.5t-147.5 50l43 164q137 -24 229 -61.5t143 -90t72 -113.5t21 -144
q0 -15 -2 -72.5t-2 -75.5q0 -122 52 -173.5t180 -51.5h53v-188h-53q-128 0 -180 -51.5t-52 -174.5q0 -18 2 -75t2 -72q0 -83 -21 -144.5t-72 -114t-143 -90t-229 -61.5z" />
    <glyph glyph-name="asciitilde" unicode="~" horiz-adv-x="1013" 
d="M258 469l-137 43q38 131 89 192.5t140 61.5q63 0 162 -41t131 -41q42 0 65 22.5t48 79.5l137 -41q-38 -133 -89 -194.5t-140 -61.5q-63 0 -162 41t-131 41q-42 0 -65 -22.5t-48 -79.5z" />
    <glyph glyph-name="uni00A0" unicode="&#xa0;" horiz-adv-x="614" 
 />
    <glyph glyph-name="exclamdown" unicode="&#xa1;" horiz-adv-x="618" 
d="M174 1153v281h272v-281h-272zM164 0v72l78 909h137l76 -909v-72h-291z" />
    <glyph glyph-name="cent" unicode="&#xa2;" horiz-adv-x="1189" 
d="M430 -12l41 209q-163 59 -264 202.5t-101 323.5v4q0 154 72 283t201 204.5t287 75.5h18l31 156h180l-37 -182q133 -41 242 -160l-150 -160q-72 72 -141 103l-133 -668q145 3 282 133l144 -141q-181 -207 -445 -207h-12l-35 -176h-180zM522 414l129 661
q-130 -4 -216.5 -103t-86.5 -241v-4q0 -104 46 -187t128 -126z" />
    <glyph glyph-name="sterling" unicode="&#xa3;" horiz-adv-x="1318" 
d="M129 0v160l162 49v360h-162v213h162v189q0 229 127 356q124 127 344 127q160 0 265 -59.5t187 -169.5l-192 -154q-60 77 -118 113.5t-140 36.5q-92 0 -150 -58q-69 -75 -69 -198v-183h510v-213h-510v-350h665v-219h-1081z" />
    <glyph glyph-name="yen" unicode="&#xa5;" horiz-adv-x="1404" 
d="M582 0v209h-396v182h396v150h-396v182h326l-473 711h293l375 -600l374 600h285l-475 -711h328v-182h-396v-150h396v-182h-396v-209h-241z" />
    <glyph glyph-name="section" unicode="&#xa7;" horiz-adv-x="1294" 
d="M668 -20q-292 0 -473 194l141 139q158 -145 330 -145q83 0 124 27.5t41 72.5v4q0 45 -57 76.5t-213 67.5q-240 54 -341 122t-101 177v4q0 179 219 237q-113 72 -113 195v4q0 137 107 218t295 81q292 0 473 -194l-142 -140q-159 146 -329 146q-80 0 -123 -27.5t-43 -73.5
v-4q0 -44 56 -76t214 -67q240 -55 341.5 -122.5t101.5 -176.5v-4q0 -93 -59.5 -152t-160.5 -86q54 -32 83.5 -83t29.5 -111v-4q0 -137 -106.5 -218t-294.5 -81zM795 569q68 0 112.5 31.5t44.5 79.5v4q0 45 -55 78t-184 65q-143 37 -213 37q-69 0 -113.5 -31.5t-44.5 -78.5
v-4q0 -45 55.5 -78.5t184.5 -65.5q143 -37 213 -37z" />
    <glyph glyph-name="dieresis" unicode="&#xa8;" 
d="M586 1219v243h252v-243h-252zM186 1219v243h252v-243h-252z" />
    <glyph glyph-name="copyright" unicode="&#xa9;" horiz-adv-x="1699" 
d="M848 -25q-153 0 -290.5 59t-235.5 158.5t-155.5 235.5t-57.5 285v4q0 148 58 284.5t156.5 237t237 160t291.5 59.5t290.5 -59t235.5 -158t155.5 -235t57.5 -285v-4q0 -148 -58 -284.5t-156.5 -237t-237 -160.5t-291.5 -60zM848 49q185 0 338 90t240 243.5t87 334.5v4
q0 181 -86 333t-238 241t-337 89t-338.5 -90t-240.5 -243t-87 -334v-4q0 -181 86 -333.5t238.5 -241.5t337.5 -89zM858 326q-168 0 -280.5 115t-112.5 282v4q0 167 113 284t284 117q103 0 173.5 -30.5t131.5 -89.5l-96 -111q-99 92 -209 92q-103 0 -172 -76.5t-69 -183.5v-4
q0 -107 69 -183.5t172 -76.5q65 0 113 23.5t100 72.5l99 -96q-66 -70 -138.5 -104.5t-177.5 -34.5z" />
    <glyph glyph-name="ordfeminine" unicode="&#xaa;" horiz-adv-x="798" 
d="M326 825q-89 0 -150 49t-61 136v4q0 94 66 142t179 48q82 0 156 -22v10q0 125 -143 125q-73 0 -170 -39l-39 111q111 51 227 51q134 0 199 -68q63 -60 63 -182v-352h-139v69q-72 -82 -188 -82zM109 578v118h553v-118h-553zM362 930q66 0 110 34.5t44 88.5v37
q-55 22 -129 22q-61 0 -96 -24.5t-35 -67.5v-4q0 -41 29 -63.5t77 -22.5z" />
    <glyph glyph-name="guillemotleft" unicode="&#xab;" horiz-adv-x="1241" 
d="M944 84l-338 448v17l338 450l189 -96l-271 -360l271 -363zM430 84l-340 448v17l340 450l188 -96l-270 -360l270 -363z" />
    <glyph glyph-name="registered" unicode="&#xae;" horiz-adv-x="782" 
d="M391 737q-150 0 -253 105t-103 252v2q0 147 104 252.5t252 105.5q150 0 253.5 -104.5t103.5 -251.5v-2q0 -147 -104.5 -253t-252.5 -106zM391 776q132 0 224 94t92 226v2q0 130 -91 223.5t-225 93.5q-132 0 -223.5 -93.5t-91.5 -225.5v-2q0 -131 91 -224.5t224 -93.5z
M244 918v370h174q69 0 109 -31t40 -92q0 -87 -82 -114l95 -133h-109l-80 116h-57v-116h-90zM334 1108h78q63 0 63 51t-63 51h-78v-102z" />
    <glyph glyph-name="macron" unicode="&#xaf;" 
d="M164 1241v180h696v-180h-696z" />
    <glyph glyph-name="degree" unicode="&#xb0;" horiz-adv-x="964" 
d="M481 780q-135 0 -237.5 99.5t-102.5 232.5v4q0 133 102 231.5t238 98.5t239 -98.5t103 -231.5v-4q0 -133 -103 -232.5t-239 -99.5zM481 915q83 0 139 58.5t56 138.5v4q0 81 -55.5 138t-139.5 57q-82 0 -137 -57t-55 -138v-4q0 -80 55 -138.5t137 -58.5z" />
    <glyph glyph-name="plusminus" unicode="&#xb1;" horiz-adv-x="1298" 
d="M1147 764h-387l2 -377h-225l2 377h-385v219l385 -2l-2 379h225l-2 -379l387 2v-219zM1147 0h-993v211h993v-211z" />
    <glyph glyph-name="acute" unicode="&#xb4;" 
d="M332 1219l213 335l225 -100l-252 -235h-186z" />
    <glyph glyph-name="paragraph" unicode="&#xb6;" horiz-adv-x="1140" 
d="M709 0v500h-37q-170 0 -302 51.5t-210 158.5t-78 255v4q0 214 153 339.5t402 125.5h326v-1434h-254z" />
    <glyph glyph-name="periodcentered" unicode="&#xb7;" horiz-adv-x="550" 
d="M139 487v281h273v-281h-273z" />
    <glyph glyph-name="cedilla" unicode="&#xb8;" 
d="M485 -340l-217 92l193 283h184z" />
    <glyph glyph-name="ordmasculine" unicode="&#xba;" horiz-adv-x="798" 
d="M397 823q-130 0 -218.5 89.5t-88.5 217.5v5q0 129 89.5 219t221.5 90q130 0 219 -89.5t89 -217.5v-4q0 -129 -90 -219.5t-222 -90.5zM104 578v118h590v-118h-590zM401 950q73 0 118.5 52t45.5 128v5q0 75 -48 128.5t-120 53.5q-73 0 -118.5 -52t-45.5 -128v-4
q0 -75 48 -129t120 -54z" />
    <glyph glyph-name="guillemotright" unicode="&#xbb;" horiz-adv-x="1241" 
d="M811 84l-188 94l270 361l-270 362l188 98l340 -450v-17zM297 84l-188 94l270 361l-270 362l188 98l338 -450v-17z" />
    <glyph glyph-name="questiondown" unicode="&#xbf;" horiz-adv-x="1107" 
d="M469 1153v281h274v-281h-274zM565 -18q-217 0 -348 112t-131 303v4q0 93 32 166.5t89.5 122.5t129.5 79.5t161 45.5l20 166h166l41 -332l-10 -10q-379 -14 -379 -229v-4q0 -88 63 -141.5t172 -53.5q181 0 334 162l154 -164q-200 -227 -494 -227z" />
    <glyph glyph-name="Agrave" unicode="&#xc0;" horiz-adv-x="1617" 
d="M61 0l631 1444h234l630 -1444h-266l-145 346h-678l-148 -346h-258zM559 569h494l-248 574zM737 1573l-252 235l226 101l213 -336h-187z" />
    <glyph glyph-name="Aacute" unicode="&#xc1;" horiz-adv-x="1617" 
d="M61 0l631 1444h234l630 -1444h-266l-145 346h-678l-148 -346h-258zM559 569h494l-248 574zM686 1573l213 336l225 -101l-252 -235h-186z" />
    <glyph glyph-name="Acircumflex" unicode="&#xc2;" horiz-adv-x="1617" 
d="M61 0l631 1444h234l630 -1444h-266l-145 346h-678l-148 -346h-258zM559 569h494l-248 574zM457 1565l237 301h230l239 -301h-196l-160 137l-158 -137h-192z" />
    <glyph glyph-name="Atilde" unicode="&#xc3;" horiz-adv-x="1617" 
d="M61 0l631 1444h234l630 -1444h-266l-145 346h-678l-148 -346h-258zM559 569h494l-248 574zM561 1552l-137 43q34 128 86.5 190t142.5 62q63 0 166.5 -40t134.5 -40q42 0 64.5 22.5t48.5 76.5l139 -41q-37 -129 -89 -190.5t-140 -61.5q-63 0 -166.5 40t-134.5 40
q-42 0 -66 -23t-49 -78z" />
    <glyph glyph-name="Adieresis" unicode="&#xc4;" horiz-adv-x="1617" 
d="M61 0l631 1444h234l630 -1444h-266l-145 346h-678l-148 -346h-258zM559 569h494l-248 574zM893 1573v229h254v-229h-254zM471 1573v229h256v-229h-256z" />
    <glyph glyph-name="Aring" unicode="&#xc5;" horiz-adv-x="1617" 
d="M565 1526q0 92 72 154.5t172 62.5t172 -62.5t72 -154.5q0 -104 -90 -168l593 -1358h-266l-145 346h-678l-148 -346h-258l592 1358q-88 62 -88 168zM559 569h494l-248 574zM678 1526q0 -51 36 -85t95 -34t96 34.5t37 84.5q0 52 -37 85.5t-96 33.5t-95 -33.5t-36 -85.5z
" />
    <glyph glyph-name="AE" unicode="&#xc6;" horiz-adv-x="2140" 
d="M25 0l800 1434h1190v-226h-766v-372h674v-226h-674v-385h776v-225h-1028v346h-522l-190 -346h-260zM596 569h401v645h-41z" />
    <glyph glyph-name="Ccedilla" unicode="&#xc7;" horiz-adv-x="1511" 
d="M760 -340l-217 92l159 238q-257 50 -419 250t-162 473v4q0 152 55 288t151 236t235 158.5t298 58.5q184 0 316 -57.5t245 -165.5l-161 -186q-94 86 -190 132t-212 46q-134 0 -243 -68t-169.5 -184t-60.5 -254v-4q0 -213 135 -361.5t338 -148.5q123 0 217 46t195 140
l162 -164q-114 -119 -239.5 -182t-297.5 -70z" />
    <glyph glyph-name="Egrave" unicode="&#xc8;" horiz-adv-x="1372" 
d="M184 0v1434h1063v-226h-811v-372h719v-226h-719v-385h821v-225h-1073zM686 1550l-252 236l225 100l213 -336h-186z" />
    <glyph glyph-name="Eacute" unicode="&#xc9;" horiz-adv-x="1372" 
d="M184 0v1434h1063v-226h-811v-372h719v-226h-719v-385h821v-225h-1073zM537 1550l213 336l225 -100l-252 -236h-186z" />
    <glyph glyph-name="Ecircumflex" unicode="&#xca;" horiz-adv-x="1372" 
d="M184 0v1434h1063v-226h-811v-372h719v-226h-719v-385h821v-225h-1073zM367 1552l237 301h230l239 -301h-196l-160 138l-158 -138h-192z" />
    <glyph glyph-name="Edieresis" unicode="&#xcb;" horiz-adv-x="1372" 
d="M803 1552v230h254v-230h-254zM381 1552v230h256v-230h-256zM184 0v1434h1063v-226h-811v-372h719v-226h-719v-385h821v-225h-1073z" />
    <glyph glyph-name="Igrave" unicode="&#xcc;" horiz-adv-x="649" 
d="M199 0v1434h252v-1434h-252zM258 1550l-252 236l225 100l213 -336h-186z" />
    <glyph glyph-name="Iacute" unicode="&#xcd;" horiz-adv-x="649" 
d="M199 0v1434h252v-1434h-252zM197 1550l213 336l225 -100l-252 -236h-186z" />
    <glyph glyph-name="Icircumflex" unicode="&#xce;" horiz-adv-x="649" 
d="M199 0v1434h252v-1434h-252zM-39 1552l248 277h233l248 -277h-209l-157 119l-158 -119h-205z" />
    <glyph glyph-name="Idieresis" unicode="&#xcf;" horiz-adv-x="649" 
d="M199 0v1434h252v-1434h-252zM410 1552v230h254v-230h-254zM-12 1552v230h256v-230h-256z" />
    <glyph glyph-name="Eth" unicode="&#xd0;" horiz-adv-x="1662" 
d="M246 0v608h-154v226h154v600h534q166 0 309 -55t242 -150t155 -226.5t56 -281.5v-4q0 -150 -56 -282t-155 -228t-242 -151.5t-309 -55.5h-534zM498 229h282q224 0 361 135.5t137 348.5v4q0 213 -137.5 350t-360.5 137h-282v-370h358v-226h-358v-379z" />
    <glyph glyph-name="Ntilde" unicode="&#xd1;" horiz-adv-x="1617" 
d="M563 1530l-137 43q34 128 86.5 190t142.5 62q63 0 166.5 -40t134.5 -40q42 0 65 22t48 76l139 -41q-37 -129 -89 -190.5t-140 -61.5q-63 0 -166.5 40t-134.5 40q-42 0 -66 -22.5t-49 -77.5zM184 0v1434h234l768 -992v992h248v-1434h-211l-791 1020v-1020h-248z" />
    <glyph glyph-name="Ograve" unicode="&#xd2;" horiz-adv-x="1740" 
d="M868 -25q-215 0 -387 100.5t-266 268.5t-94 369v4q0 149 56 284.5t154 236.5t239 160.5t302 59.5t301.5 -58.5t238 -158.5t153 -235t55.5 -285v-4q0 -149 -56.5 -285t-154 -236.5t-239 -160.5t-302.5 -60zM872 207q139 0 250.5 68t172.5 183.5t61 254.5v4
q0 139 -61.5 255.5t-174 185.5t-252.5 69q-139 0 -250.5 -68t-172 -183.5t-60.5 -254.5v-4q0 -104 36 -197.5t99.5 -162.5t155 -109.5t196.5 -40.5zM870 1573l-252 235l226 101l213 -336h-187z" />
    <glyph glyph-name="Oacute" unicode="&#xd3;" horiz-adv-x="1740" 
d="M868 -25q-215 0 -387 100.5t-266 268.5t-94 369v4q0 149 56 284.5t154 236.5t239 160.5t302 59.5t301.5 -58.5t238 -158.5t153 -235t55.5 -285v-4q0 -149 -56.5 -285t-154 -236.5t-239 -160.5t-302.5 -60zM872 207q139 0 250.5 68t172.5 183.5t61 254.5v4
q0 139 -61.5 255.5t-174 185.5t-252.5 69q-139 0 -250.5 -68t-172 -183.5t-60.5 -254.5v-4q0 -104 36 -197.5t99.5 -162.5t155 -109.5t196.5 -40.5zM686 1573l213 336l225 -101l-252 -235h-186z" />
    <glyph glyph-name="Ocircumflex" unicode="&#xd4;" horiz-adv-x="1740" 
d="M868 -25q-215 0 -387 100.5t-266 268.5t-94 369v4q0 149 56 284.5t154 236.5t239 160.5t302 59.5t301.5 -58.5t238 -158.5t153 -235t55.5 -285v-4q0 -149 -56.5 -285t-154 -236.5t-239 -160.5t-302.5 -60zM872 207q139 0 250.5 68t172.5 183.5t61 254.5v4
q0 139 -61.5 255.5t-174 185.5t-252.5 69q-139 0 -250.5 -68t-172 -183.5t-60.5 -254.5v-4q0 -104 36 -197.5t99.5 -162.5t155 -109.5t196.5 -40.5zM518 1573l238 301h229l240 -301h-197l-160 137l-157 -137h-193z" />
    <glyph glyph-name="Otilde" unicode="&#xd5;" horiz-adv-x="1740" 
d="M625 1552l-138 43q34 128 87 190t143 62q63 0 166.5 -40t134.5 -40q41 0 63.5 22t48.5 77l140 -41q-37 -129 -89.5 -190.5t-140.5 -61.5q-63 0 -166.5 40t-134.5 40q-42 0 -65.5 -23t-48.5 -78zM868 -25q-215 0 -387 100.5t-266 268.5t-94 369v4q0 149 56 284.5
t154 236.5t239 160.5t302 59.5t301.5 -58.5t238 -158.5t153 -235t55.5 -285v-4q0 -149 -56.5 -285t-154 -236.5t-239 -160.5t-302.5 -60zM872 207q139 0 250.5 68t172.5 183.5t61 254.5v4q0 139 -61.5 255.5t-174 185.5t-252.5 69q-139 0 -250.5 -68t-172 -183.5
t-60.5 -254.5v-4q0 -104 36 -197.5t99.5 -162.5t155 -109.5t196.5 -40.5z" />
    <glyph glyph-name="Odieresis" unicode="&#xd6;" horiz-adv-x="1740" 
d="M954 1573v229h254v-229h-254zM532 1573v229h256v-229h-256zM868 -25q-215 0 -387 100.5t-266 268.5t-94 369v4q0 149 56 284.5t154 236.5t239 160.5t302 59.5t301.5 -58.5t238 -158.5t153 -235t55.5 -285v-4q0 -149 -56.5 -285t-154 -236.5t-239 -160.5t-302.5 -60z
M872 207q139 0 250.5 68t172.5 183.5t61 254.5v4q0 139 -61.5 255.5t-174 185.5t-252.5 69q-139 0 -250.5 -68t-172 -183.5t-60.5 -254.5v-4q0 -104 36 -197.5t99.5 -162.5t155 -109.5t196.5 -40.5z" />
    <glyph glyph-name="multiply" unicode="&#xd7;" horiz-adv-x="1298" 
d="M981 231l-334 340l-334 -340l-153 154l340 334l-340 334l157 157l334 -340l334 340l154 -153l-340 -334l340 -334z" />
    <glyph glyph-name="Oslash" unicode="&#xd8;" horiz-adv-x="1740" 
d="M868 -25q-237 0 -417 123l-99 -108h-248l203 227q-90 98 -138 226t-48 270v4q0 149 56 284.5t154 236.5t239 160.5t302 59.5q238 0 418 -123l99 109h247l-202 -230q91 -98 138.5 -225t47.5 -268v-4q0 -149 -56.5 -285t-154 -236.5t-239 -160.5t-302.5 -60zM475 412
l655 737q-116 82 -262 82q-140 0 -252.5 -69t-173.5 -185t-61 -256v-4q0 -174 94 -305zM872 203q140 0 252.5 69t174 185t61.5 256v4q0 174 -94 305l-656 -737q116 -82 262 -82z" />
    <glyph glyph-name="Ugrave" unicode="&#xd9;" horiz-adv-x="1550" 
d="M772 -23q-284 0 -447 162.5t-163 468.5v826h252v-816q0 -199 95 -304t267 -105q170 0 265.5 102t95.5 297v826h252v-813q0 -314 -164.5 -479t-452.5 -165zM752 1550l-252 236l225 100l213 -336h-186z" />
    <glyph glyph-name="Uacute" unicode="&#xda;" horiz-adv-x="1550" 
d="M772 -23q-284 0 -447 162.5t-163 468.5v826h252v-816q0 -199 95 -304t267 -105q170 0 265.5 102t95.5 297v826h252v-813q0 -314 -164.5 -479t-452.5 -165zM621 1550l213 336l225 -100l-252 -236h-186z" />
    <glyph glyph-name="Ucircumflex" unicode="&#xdb;" horiz-adv-x="1550" 
d="M772 -23q-284 0 -447 162.5t-163 468.5v826h252v-816q0 -199 95 -304t267 -105q170 0 265.5 102t95.5 297v826h252v-813q0 -314 -164.5 -479t-452.5 -165zM410 1550l247 277h234l248 -277h-209l-158 119l-158 -119h-204z" />
    <glyph glyph-name="Udieresis" unicode="&#xdc;" horiz-adv-x="1550" 
d="M858 1550v230h254v-230h-254zM436 1550v230h256v-230h-256zM772 -23q-284 0 -447 162.5t-163 468.5v826h252v-816q0 -199 95 -304t267 -105q170 0 265.5 102t95.5 297v826h252v-813q0 -314 -164.5 -479t-452.5 -165z" />
    <glyph glyph-name="Yacute" unicode="&#xdd;" horiz-adv-x="1466" 
d="M606 0v565l-569 869h297l401 -635l406 635h289l-570 -863v-571h-254zM596 1550l213 336l225 -100l-252 -236h-186z" />
    <glyph glyph-name="Thorn" unicode="&#xde;" horiz-adv-x="1378" 
d="M436 465h293q141 0 225 71t84 185v4q0 125 -82.5 190.5t-226.5 65.5h-293v-516zM721 238h-285v-238h-252v1434h252v-224h314q251 0 397.5 -130.5t146.5 -348.5v-4q0 -155 -78 -267.5t-206 -167t-289 -54.5z" />
    <glyph glyph-name="germandbls" unicode="&#xdf;" horiz-adv-x="1269" 
d="M606 -4v190q151 5 233.5 62t82.5 160v4q0 97 -85 156t-231 77v168q109 52 170.5 120.5t61.5 164.5v4q0 90 -56.5 143t-150.5 53q-104 0 -167 -71t-63 -191v-1036h-245v1028q0 222 131 351.5t356 129.5q203 0 321.5 -109t118.5 -276v-4q0 -129 -60.5 -211t-164.5 -139
q311 -108 311 -364v-5q0 -197 -151.5 -305t-411.5 -100z" />
    <glyph glyph-name="agrave" unicode="&#xe0;" horiz-adv-x="1202" 
d="M1063 0h-246v133q-131 -156 -350 -156q-105 0 -191 37t-140 114t-54 183v4q0 174 120 264.5t318 90.5q159 0 299 -45v20q0 113 -68.5 172.5t-197.5 59.5q-146 0 -309 -68l-68 199q100 46 193.5 68t218.5 22q238 0 356.5 -118t118.5 -339v-641zM823 391v62
q-108 43 -248 43q-116 0 -181.5 -45t-65.5 -123v-4q0 -75 59 -117.5t150 -42.5q125 0 205.5 62.5t80.5 164.5zM598 1219l-252 235l225 100l213 -335h-186z" />
    <glyph glyph-name="aacute" unicode="&#xe1;" horiz-adv-x="1202" 
d="M1063 0h-246v133q-131 -156 -350 -156q-105 0 -191 37t-140 114t-54 183v4q0 174 120 264.5t318 90.5q159 0 299 -45v20q0 113 -68.5 172.5t-197.5 59.5q-146 0 -309 -68l-68 199q100 46 193.5 68t218.5 22q238 0 356.5 -118t118.5 -339v-641zM823 391v62
q-108 43 -248 43q-116 0 -181.5 -45t-65.5 -123v-4q0 -75 59 -117.5t150 -42.5q125 0 205.5 62.5t80.5 164.5zM469 1219l213 335l225 -100l-252 -235h-186z" />
    <glyph glyph-name="acircumflex" unicode="&#xe2;" horiz-adv-x="1202" 
d="M1063 0h-246v133q-131 -156 -350 -156q-105 0 -191 37t-140 114t-54 183v4q0 174 120 264.5t318 90.5q159 0 299 -45v20q0 113 -68.5 172.5t-197.5 59.5q-146 0 -309 -68l-68 199q100 46 193.5 68t218.5 22q238 0 356.5 -118t118.5 -339v-641zM823 391v62
q-108 43 -248 43q-116 0 -181.5 -45t-65.5 -123v-4q0 -75 59 -117.5t150 -42.5q125 0 205.5 62.5t80.5 164.5zM264 1219l238 301h229l240 -301h-197l-160 137l-157 -137h-193z" />
    <glyph glyph-name="atilde" unicode="&#xe3;" horiz-adv-x="1202" 
d="M1063 0h-246v133q-131 -156 -350 -156q-105 0 -191 37t-140 114t-54 183v4q0 174 120 264.5t318 90.5q159 0 299 -45v20q0 113 -68.5 172.5t-197.5 59.5q-146 0 -309 -68l-68 199q100 46 193.5 68t218.5 22q238 0 356.5 -118t118.5 -339v-641zM823 391v62
q-108 43 -248 43q-116 0 -181.5 -45t-65.5 -123v-4q0 -75 59 -117.5t150 -42.5q125 0 205.5 62.5t80.5 164.5zM371 1198l-138 43q38 131 89.5 192.5t140.5 61.5q63 0 163 -41t132 -41q42 0 64.5 22.5t47.5 80.5l138 -41q-37 -132 -88.5 -194t-141.5 -62q-62 0 -163 40.5
t-132 40.5q-42 0 -64.5 -22t-47.5 -80z" />
    <glyph glyph-name="adieresis" unicode="&#xe4;" horiz-adv-x="1202" 
d="M1063 0h-246v133q-131 -156 -350 -156q-105 0 -191 37t-140 114t-54 183v4q0 174 120 264.5t318 90.5q159 0 299 -45v20q0 113 -68.5 172.5t-197.5 59.5q-146 0 -309 -68l-68 199q100 46 193.5 68t218.5 22q238 0 356.5 -118t118.5 -339v-641zM823 391v62
q-108 43 -248 43q-116 0 -181.5 -45t-65.5 -123v-4q0 -75 59 -117.5t150 -42.5q125 0 205.5 62.5t80.5 164.5zM676 1219v243h252v-243h-252zM276 1219v243h252v-243h-252z" />
    <glyph glyph-name="aring" unicode="&#xe5;" horiz-adv-x="1202" 
d="M1063 0h-246v133q-131 -156 -350 -156q-105 0 -191 37t-140 114t-54 183v4q0 174 120 264.5t318 90.5q159 0 299 -45v20q0 113 -68.5 172.5t-197.5 59.5q-146 0 -309 -68l-68 199q100 46 193.5 68t218.5 22q238 0 356.5 -118t118.5 -339v-641zM823 391v62
q-108 43 -248 43q-116 0 -181.5 -45t-65.5 -123v-4q0 -75 59 -117.5t150 -42.5q125 0 205.5 62.5t80.5 164.5zM365 1444q0 94 69.5 161.5t167.5 67.5t168 -67.5t70 -161.5t-70 -162t-168 -68t-167.5 68t-69.5 162zM465 1444q0 -57 40 -97t97 -40t97 40t40 97t-40 97t-97 40
t-97 -40t-40 -97z" />
    <glyph glyph-name="ae" unicode="&#xe6;" horiz-adv-x="1949" 
d="M492 -23q-114 0 -205.5 37t-148 114t-56.5 183v4q0 173 119.5 264t314.5 91q157 0 297 -45v20q0 232 -264 232q-142 0 -305 -68l-68 199q99 45 193 67.5t215 22.5q134 0 232 -46t147 -132q141 184 378 184q122 0 221 -47t161.5 -127.5t96 -185t33.5 -222.5q0 -44 -2 -69
h-794q23 -131 105.5 -203t203.5 -72q89 0 157.5 31.5t137.5 97.5l145 -129q-172 -203 -444 -203q-126 0 -235 49t-183 136q-225 -183 -452 -183zM1053 616h557q-13 124 -85 204.5t-190 80.5q-115 0 -189.5 -77.5t-92.5 -207.5zM532 164q168 0 320 139q-31 81 -39 156
q-101 37 -242 37q-115 0 -179 -45t-64 -123v-4q0 -76 57 -118t147 -42z" />
    <glyph glyph-name="ccedilla" unicode="&#xe7;" horiz-adv-x="1169" 
d="M565 -340l-217 92l164 242q-186 46 -301 196t-115 345v4q0 152 72 281.5t201.5 206.5t287.5 77q146 0 249.5 -47.5t183.5 -138.5l-154 -166q-63 66 -128 100.5t-153 34.5q-133 0 -222 -100.5t-89 -243.5v-4q0 -145 92 -247t232 -102q82 0 148 35t132 101l150 -148
q-80 -92 -173.5 -143t-224.5 -58z" />
    <glyph glyph-name="egrave" unicode="&#xe8;" horiz-adv-x="1236" 
d="M651 -25q-155 0 -281 70t-200 199t-74 293v4q0 154 67 283t189 204.5t273 75.5q101 0 186 -30.5t145.5 -84.5t103 -127.5t63 -159.5t20.5 -180q0 -19 -4 -69h-795q20 -131 103.5 -203t207.5 -72q89 0 156 31.5t137 97.5l146 -129q-172 -203 -443 -203zM342 616h555
q-13 125 -84.5 205t-189.5 80q-114 0 -188.5 -77.5t-92.5 -207.5zM621 1219l-252 235l225 100l213 -335h-186z" />
    <glyph glyph-name="eacute" unicode="&#xe9;" horiz-adv-x="1236" 
d="M467 1219l213 335l225 -100l-252 -235h-186zM651 -25q-155 0 -281 70t-200 199t-74 293v4q0 154 67 283t189 204.5t273 75.5q101 0 186 -30.5t145.5 -84.5t103 -127.5t63 -159.5t20.5 -180q0 -19 -4 -69h-795q20 -131 103.5 -203t207.5 -72q89 0 156 31.5t137 97.5
l146 -129q-172 -203 -443 -203zM342 616h555q-13 125 -84.5 205t-189.5 80q-114 0 -188.5 -77.5t-92.5 -207.5z" />
    <glyph glyph-name="ecircumflex" unicode="&#xea;" horiz-adv-x="1236" 
d="M268 1219l238 301h229l240 -301h-197l-160 137l-157 -137h-193zM651 -25q-155 0 -281 70t-200 199t-74 293v4q0 154 67 283t189 204.5t273 75.5q101 0 186 -30.5t145.5 -84.5t103 -127.5t63 -159.5t20.5 -180q0 -19 -4 -69h-795q20 -131 103.5 -203t207.5 -72
q89 0 156 31.5t137 97.5l146 -129q-172 -203 -443 -203zM342 616h555q-13 125 -84.5 205t-189.5 80q-114 0 -188.5 -77.5t-92.5 -207.5z" />
    <glyph glyph-name="edieresis" unicode="&#xeb;" horiz-adv-x="1236" 
d="M694 1219v243h252v-243h-252zM295 1219v243h252v-243h-252zM651 -25q-155 0 -281 70t-200 199t-74 293v4q0 154 67 283t189 204.5t273 75.5q101 0 186 -30.5t145.5 -84.5t103 -127.5t63 -159.5t20.5 -180q0 -19 -4 -69h-795q20 -131 103.5 -203t207.5 -72q89 0 156 31.5
t137 97.5l146 -129q-172 -203 -443 -203zM342 616h555q-13 125 -84.5 205t-189.5 80q-114 0 -188.5 -77.5t-92.5 -207.5z" />
    <glyph glyph-name="igrave" unicode="&#xec;" horiz-adv-x="585" 
d="M170 0v1081h248v-1081h-248zM231 1219l-251 235l225 100l213 -335h-187z" />
    <glyph glyph-name="iacute" unicode="&#xed;" horiz-adv-x="585" 
d="M170 1219l213 335l225 -100l-252 -235h-186zM170 0v1081h248v-1081h-248z" />
    <glyph glyph-name="icircumflex" unicode="&#xee;" horiz-adv-x="585" 
d="M-59 1219l237 301h230l239 -301h-196l-160 137l-158 -137h-192zM170 0v1081h248v-1081h-248z" />
    <glyph glyph-name="idieresis" unicode="&#xef;" horiz-adv-x="585" 
d="M367 1219v243h251v-243h-251zM-33 1219v243h252v-243h-252zM170 0v1081h248v-1081h-248z" />
    <glyph glyph-name="eth" unicode="&#xf0;" horiz-adv-x="1345" 
d="M1063 1364l-160 -51q344 -344 344 -721v-4q0 -170 -69 -308.5t-202.5 -221.5t-307.5 -83q-161 0 -292.5 75.5t-205.5 207t-74 291.5v4q0 223 144.5 374.5t347.5 151.5q91 0 159 -26t140 -76q-77 130 -217 264l-248 -76l-49 138l172 53q-109 91 -180 139h335l80 -68
l234 72zM674 193q145 0 236 97.5t91 241.5v5q0 143 -94 241.5t-241 98.5q-146 0 -234 -96.5t-88 -241.5v-4q0 -141 94.5 -241.5t235.5 -100.5z" />
    <glyph glyph-name="ntilde" unicode="&#xf1;" horiz-adv-x="1269" 
d="M156 0v1081h247v-168q131 191 338 191q183 0 284 -111.5t101 -304.5v-688h-247v614q0 127 -60.5 196t-171.5 69q-110 0 -177 -71.5t-67 -197.5v-610h-247zM397 1198l-137 43q38 131 89 192.5t140 61.5q63 0 163 -41t132 -41q42 0 65 22.5t48 80.5l137 -41
q-38 -133 -89 -194.5t-140 -61.5q-62 0 -163 40.5t-132 40.5q-42 0 -65 -22.5t-48 -79.5z" />
    <glyph glyph-name="ograve" unicode="&#xf2;" horiz-adv-x="1345" 
d="M670 -25q-121 0 -228.5 44.5t-183 120t-119 178.5t-43.5 217v4q0 153 74.5 282.5t208 206t295.5 76.5q163 0 295.5 -75.5t206 -204t73.5 -281.5v-4q0 -113 -44 -216.5t-120 -180t-184.5 -122t-230.5 -45.5zM674 190q148 0 237.5 100t89.5 245v4q0 145 -93.5 246.5
t-237.5 101.5q-146 0 -236 -99.5t-90 -244.5v-4q0 -143 95 -246t235 -103zM672 1219l-252 235l225 100l213 -335h-186z" />
    <glyph glyph-name="oacute" unicode="&#xf3;" horiz-adv-x="1345" 
d="M485 1219l213 335l226 -100l-252 -235h-187zM670 -25q-121 0 -228.5 44.5t-183 120t-119 178.5t-43.5 217v4q0 153 74.5 282.5t208 206t295.5 76.5q163 0 295.5 -75.5t206 -204t73.5 -281.5v-4q0 -113 -44 -216.5t-120 -180t-184.5 -122t-230.5 -45.5zM674 190
q148 0 237.5 100t89.5 245v4q0 145 -93.5 246.5t-237.5 101.5q-146 0 -236 -99.5t-90 -244.5v-4q0 -143 95 -246t235 -103z" />
    <glyph glyph-name="ocircumflex" unicode="&#xf4;" horiz-adv-x="1345" 
d="M319 1219l238 301h229l240 -301h-197l-159 137l-158 -137h-193zM670 -25q-121 0 -228.5 44.5t-183 120t-119 178.5t-43.5 217v4q0 153 74.5 282.5t208 206t295.5 76.5q163 0 295.5 -75.5t206 -204t73.5 -281.5v-4q0 -113 -44 -216.5t-120 -180t-184.5 -122t-230.5 -45.5z
M674 190q148 0 237.5 100t89.5 245v4q0 145 -93.5 246.5t-237.5 101.5q-146 0 -236 -99.5t-90 -244.5v-4q0 -143 95 -246t235 -103z" />
    <glyph glyph-name="otilde" unicode="&#xf5;" horiz-adv-x="1345" 
d="M670 -25q-121 0 -228.5 44.5t-183 120t-119 178.5t-43.5 217v4q0 153 74.5 282.5t208 206t295.5 76.5q163 0 295.5 -75.5t206 -204t73.5 -281.5v-4q0 -113 -44 -216.5t-120 -180t-184.5 -122t-230.5 -45.5zM674 190q148 0 237.5 100t89.5 245v4q0 145 -93.5 246.5
t-237.5 101.5q-146 0 -236 -99.5t-90 -244.5v-4q0 -143 95 -246t235 -103zM430 1198l-137 43q38 131 89 192.5t140 61.5q63 0 163 -41t132 -41q42 0 65 22.5t48 80.5l137 -41q-38 -133 -89 -194.5t-140 -61.5q-62 0 -163 40.5t-132 40.5q-42 0 -65 -22.5t-48 -79.5z" />
    <glyph glyph-name="odieresis" unicode="&#xf6;" horiz-adv-x="1345" 
d="M745 1219v243h252v-243h-252zM346 1219v243h252v-243h-252zM670 -25q-121 0 -228.5 44.5t-183 120t-119 178.5t-43.5 217v4q0 153 74.5 282.5t208 206t295.5 76.5q163 0 295.5 -75.5t206 -204t73.5 -281.5v-4q0 -113 -44 -216.5t-120 -180t-184.5 -122t-230.5 -45.5z
M674 190q148 0 237.5 100t89.5 245v4q0 145 -93.5 246.5t-237.5 101.5q-146 0 -236 -99.5t-90 -244.5v-4q0 -143 95 -246t235 -103z" />
    <glyph glyph-name="divide" unicode="&#xf7;" horiz-adv-x="1298" 
d="M512 1018v260h274v-260h-274zM1159 614h-1020v213h1020v-213zM512 164v262h274v-262h-274z" />
    <glyph glyph-name="oslash" unicode="&#xf8;" horiz-adv-x="1345" 
d="M670 -25q-169 0 -310 88l-69 -73h-225l163 182q-133 155 -133 363v4q0 153 74.5 282.5t208 206t295.5 76.5q168 0 309 -88l72 78h225q-58 -67 -59 -68q-9 -10 -49 -54.5t-58 -64.5q135 -147 135 -364v-4q0 -113 -44 -216.5t-120 -180t-184.5 -122t-230.5 -45.5zM389 352
l447 492q-74 49 -166 49q-148 0 -240 -101.5t-92 -248.5v-4q0 -107 51 -187zM674 186q149 0 241.5 101.5t92.5 247.5v4q0 96 -52 188l-448 -494q71 -47 166 -47z" />
    <glyph glyph-name="ugrave" unicode="&#xf9;" horiz-adv-x="1269" 
d="M528 -23q-183 0 -284 111.5t-101 304.5v688h248v-614q0 -127 60.5 -195.5t171.5 -68.5q110 0 176.5 71t66.5 197v610h248v-1081h-248v168q-132 -191 -338 -191zM569 1219l-252 235l226 100l213 -335h-187z" />
    <glyph glyph-name="uacute" unicode="&#xfa;" horiz-adv-x="1269" 
d="M469 1219l213 335l225 -100l-252 -235h-186zM528 -23q-183 0 -284 111.5t-101 304.5v688h248v-614q0 -127 60.5 -195.5t171.5 -68.5q110 0 176.5 71t66.5 197v610h248v-1081h-248v168q-132 -191 -338 -191z" />
    <glyph glyph-name="ucircumflex" unicode="&#xfb;" horiz-adv-x="1269" 
d="M274 1219l238 301h229l240 -301h-197l-159 137l-158 -137h-193zM528 -23q-183 0 -284 111.5t-101 304.5v688h248v-614q0 -127 60.5 -195.5t171.5 -68.5q110 0 176.5 71t66.5 197v610h248v-1081h-248v168q-132 -191 -338 -191z" />
    <glyph glyph-name="udieresis" unicode="&#xfc;" horiz-adv-x="1269" 
d="M700 1219v243h252v-243h-252zM301 1219v243h252v-243h-252zM528 -23q-183 0 -284 111.5t-101 304.5v688h248v-614q0 -127 60.5 -195.5t171.5 -68.5q110 0 176.5 71t66.5 197v610h248v-1081h-248v168q-132 -191 -338 -191z" />
    <glyph glyph-name="yacute" unicode="&#xfd;" horiz-adv-x="1220" 
d="M377 -334q-134 0 -256 66l84 184q77 -41 145 -41q55 0 89.5 27t64.5 98l-451 1081h264l308 -802l280 802h258l-430 -1112q-65 -166 -145.5 -234.5t-210.5 -68.5zM471 1219l213 335l225 -100l-252 -235h-186z" />
    <glyph glyph-name="thorn" unicode="&#xfe;" horiz-adv-x="1374" 
d="M156 -328v1823h247v-594q141 203 367 203q96 0 186 -38t161 -107t114 -177.5t43 -238.5v-4q0 -131 -42.5 -239t-113 -177.5t-160 -107.5t-186.5 -38q-224 0 -369 191v-496h-247zM713 193q131 0 220 95t89 251v4q0 154 -89.5 250t-219.5 96q-131 0 -223.5 -97t-92.5 -249
v-4q0 -153 92.5 -249.5t223.5 -96.5z" />
    <glyph glyph-name="ydieresis" unicode="&#xff;" horiz-adv-x="1220" 
d="M377 -334q-134 0 -256 66l84 184q77 -41 145 -41q55 0 89.5 27t64.5 98l-451 1081h264l308 -802l280 802h258l-430 -1112q-65 -166 -145.5 -234.5t-210.5 -68.5zM684 1219v243h252v-243h-252zM285 1219v243h252v-243h-252z" />
    <glyph glyph-name="Amacron" unicode="&#x100;" horiz-adv-x="1617" 
d="M61 0l631 1444h234l630 -1444h-266l-145 346h-678l-148 -346h-258zM559 569h494l-248 574zM442 1595v185h736v-185h-736z" />
    <glyph glyph-name="amacron" unicode="&#x101;" horiz-adv-x="1202" 
d="M1063 0h-246v133q-131 -156 -350 -156q-105 0 -191 37t-140 114t-54 183v4q0 174 120 264.5t318 90.5q159 0 299 -45v20q0 113 -68.5 172.5t-197.5 59.5q-146 0 -309 -68l-68 199q100 46 193.5 68t218.5 22q238 0 356.5 -118t118.5 -339v-641zM823 391v62
q-108 43 -248 43q-116 0 -181.5 -45t-65.5 -123v-4q0 -75 59 -117.5t150 -42.5q125 0 205.5 62.5t80.5 164.5zM254 1241v180h696v-180h-696z" />
    <glyph glyph-name="Abreve" unicode="&#x102;" horiz-adv-x="1617" 
d="M61 0l631 1444h234l630 -1444h-266l-145 346h-678l-148 -346h-258zM559 569h494l-248 574zM809 1567q-150 0 -245 79t-105 218h170q42 -125 180 -125t180 125h172q-12 -139 -107 -218t-245 -79z" />
    <glyph glyph-name="abreve" unicode="&#x103;" horiz-adv-x="1202" 
d="M1063 0h-246v133q-131 -156 -350 -156q-105 0 -191 37t-140 114t-54 183v4q0 174 120 264.5t318 90.5q159 0 299 -45v20q0 113 -68.5 172.5t-197.5 59.5q-146 0 -309 -68l-68 199q100 46 193.5 68t218.5 22q238 0 356.5 -118t118.5 -339v-641zM823 391v62
q-108 43 -248 43q-116 0 -181.5 -45t-65.5 -123v-4q0 -75 59 -117.5t150 -42.5q125 0 205.5 62.5t80.5 164.5zM649 1214q-150 0 -245 79t-105 218h170q42 -125 180 -125t180 125h172q-12 -139 -107 -218t-245 -79z" />
    <glyph glyph-name="Aogonek" unicode="&#x104;" horiz-adv-x="1617" 
d="M1573 -217v-119q-157 -16 -246.5 34t-89.5 134q0 80 82 168h-29l-145 346h-678l-148 -346h-258l631 1444h234l630 -1444h-63q-68 -68 -68 -129q0 -88 148 -88zM559 569h494l-248 574z" />
    <glyph glyph-name="aogonek" unicode="&#x105;" horiz-adv-x="1202" 
d="M1075 -217v-119q-157 -16 -246.5 34t-89.5 134q0 80 82 168h-4v133q-131 -156 -350 -156q-105 0 -191 37t-140 114t-54 183v4q0 174 120 264.5t318 90.5q159 0 299 -45v20q0 113 -68.5 172.5t-197.5 59.5q-146 0 -309 -68l-68 199q100 46 193.5 68t218.5 22
q238 0 356.5 -118t118.5 -339v-641h-68q-67 -67 -67 -129q0 -88 147 -88zM823 391v62q-108 43 -248 43q-116 0 -181.5 -45t-65.5 -123v-4q0 -75 59 -117.5t150 -42.5q125 0 205.5 62.5t80.5 164.5z" />
    <glyph glyph-name="Cacute" unicode="&#x106;" horiz-adv-x="1511" 
d="M850 -25q-154 0 -290 57.5t-232 156.5t-151.5 235.5t-55.5 288.5v4q0 152 55 288t151 236t235 158.5t298 58.5q184 0 316 -57.5t245 -165.5l-161 -186q-94 86 -190 132t-212 46q-134 0 -243 -68t-169.5 -184t-60.5 -254v-4q0 -213 135 -361.5t338 -148.5q123 0 217 46
t195 140l162 -164q-115 -126 -253 -190t-329 -64zM735 1573l230 297l225 -98l-262 -199h-193z" />
    <glyph glyph-name="cacute" unicode="&#x107;" horiz-adv-x="1169" 
d="M547 1219l213 335l225 -100l-252 -235h-186zM655 -25q-158 0 -286.5 75.5t-200.5 204t-72 280.5v4q0 152 72 281.5t201.5 206.5t287.5 77q146 0 249.5 -47.5t183.5 -138.5l-154 -166q-63 66 -128 100.5t-153 34.5q-133 0 -222 -100.5t-89 -243.5v-4q0 -145 92 -247
t232 -102q82 0 148 35t132 101l150 -148q-87 -99 -190.5 -151t-252.5 -52z" />
    <glyph glyph-name="Cdotaccent" unicode="&#x10a;" horiz-adv-x="1511" 
d="M705 1573v229h262v-229h-262zM850 -25q-154 0 -290 57.5t-232 156.5t-151.5 235.5t-55.5 288.5v4q0 152 55 288t151 236t235 158.5t298 58.5q184 0 316 -57.5t245 -165.5l-161 -186q-94 86 -190 132t-212 46q-134 0 -243 -68t-169.5 -184t-60.5 -254v-4
q0 -213 135 -361.5t338 -148.5q123 0 217 46t195 140l162 -164q-115 -126 -253 -190t-329 -64z" />
    <glyph glyph-name="cdotaccent" unicode="&#x10b;" horiz-adv-x="1169" 
d="M655 -25q-158 0 -286.5 75.5t-200.5 204t-72 280.5v4q0 152 72 281.5t201.5 206.5t287.5 77q146 0 249.5 -47.5t183.5 -138.5l-154 -166q-63 66 -128 100.5t-153 34.5q-133 0 -222 -100.5t-89 -243.5v-4q0 -145 92 -247t232 -102q82 0 148 35t132 101l150 -148
q-87 -99 -190.5 -151t-252.5 -52zM516 1219v243h258v-243h-258z" />
    <glyph glyph-name="Ccaron" unicode="&#x10c;" horiz-adv-x="1511" 
d="M850 -25q-154 0 -290 57.5t-232 156.5t-151.5 235.5t-55.5 288.5v4q0 152 55 288t151 236t235 158.5t298 58.5q184 0 316 -57.5t245 -165.5l-161 -186q-94 86 -190 132t-212 46q-134 0 -243 -68t-169.5 -184t-60.5 -254v-4q0 -213 135 -361.5t338 -148.5q123 0 217 46
t195 140l162 -164q-115 -126 -253 -190t-329 -64zM1200 1849l-248 -276h-233l-248 276h209l158 -116l157 116h205z" />
    <glyph glyph-name="ccaron" unicode="&#x10d;" horiz-adv-x="1169" 
d="M999 1520l-239 -301h-230l-237 301h196l158 -138l160 138h192zM655 -25q-158 0 -286.5 75.5t-200.5 204t-72 280.5v4q0 152 72 281.5t201.5 206.5t287.5 77q146 0 249.5 -47.5t183.5 -138.5l-154 -166q-63 66 -128 100.5t-153 34.5q-133 0 -222 -100.5t-89 -243.5v-4
q0 -145 92 -247t232 -102q82 0 148 35t132 101l150 -148q-87 -99 -190.5 -151t-252.5 -52z" />
    <glyph glyph-name="Dcaron" unicode="&#x10e;" horiz-adv-x="1601" 
d="M1137 1829l-248 -277h-234l-247 277h208l158 -117l158 117h205zM184 0v1434h535q166 0 309 -55t242 -150t155 -226.5t56 -281.5v-4q0 -150 -56 -282t-155 -228t-242 -151.5t-309 -55.5h-535zM436 229h283q224 0 361 135.5t137 348.5v4q0 213 -137.5 350t-360.5 137h-283
v-975z" />
    <glyph glyph-name="dcaron" unicode="&#x10f;" horiz-adv-x="1374" 
d="M1333 1106l25 389h192v-6l-114 -383h-103zM602 -23q-96 0 -185.5 38t-160.5 107.5t-113.5 177.5t-42.5 239v4q0 131 42 239t112.5 177.5t160 107t187.5 37.5q216 0 369 -191v582h248v-1495h-248v180q-144 -203 -369 -203zM662 193q128 0 220.5 97.5t92.5 248.5v4
q0 152 -92 249t-221 97q-132 0 -222 -94.5t-90 -251.5v-4q0 -153 90.5 -249.5t221.5 -96.5z" />
    <glyph glyph-name="Dcroat" unicode="&#x110;" horiz-adv-x="1662" 
d="M246 0v608h-154v226h154v600h534q166 0 309 -55t242 -150t155 -226.5t56 -281.5v-4q0 -150 -56 -282t-155 -228t-242 -151.5t-309 -55.5h-534zM498 229h282q224 0 361 135.5t137 348.5v4q0 213 -137.5 350t-360.5 137h-282v-370h358v-226h-358v-379z" />
    <glyph glyph-name="dcroat" unicode="&#x111;" horiz-adv-x="1374" 
d="M635 1231v149h336v115h248v-115h141v-149h-141v-1231h-248v180q-144 -203 -369 -203q-96 0 -185.5 38t-160.5 107.5t-113.5 177.5t-42.5 239v4q0 131 42 239t112.5 177.5t160 107t187.5 37.5q216 0 369 -191v318h-336zM662 193q128 0 220.5 97.5t92.5 248.5v4
q0 152 -92 249t-221 97q-132 0 -222 -94.5t-90 -251.5v-4q0 -153 90.5 -249.5t221.5 -96.5z" />
    <glyph glyph-name="Emacron" unicode="&#x112;" horiz-adv-x="1372" 
d="M352 1575v184h735v-184h-735zM184 0v1434h1063v-226h-811v-372h719v-226h-719v-385h821v-225h-1073z" />
    <glyph glyph-name="emacron" unicode="&#x113;" horiz-adv-x="1236" 
d="M651 -25q-155 0 -281 70t-200 199t-74 293v4q0 154 67 283t189 204.5t273 75.5q101 0 186 -30.5t145.5 -84.5t103 -127.5t63 -159.5t20.5 -180q0 -19 -4 -69h-795q20 -131 103.5 -203t207.5 -72q89 0 156 31.5t137 97.5l146 -129q-172 -203 -443 -203zM342 616h555
q-13 125 -84.5 205t-189.5 80q-114 0 -188.5 -77.5t-92.5 -207.5zM272 1241v180h697v-180h-697z" />
    <glyph glyph-name="Ebreve" unicode="&#x114;" horiz-adv-x="1372" 
d="M719 1548q-151 0 -246.5 72t-107.5 203h176q41 -103 178 -103t178 103h176q-12 -131 -107.5 -203t-246.5 -72zM184 0v1434h1063v-226h-811v-372h719v-226h-719v-385h821v-225h-1073z" />
    <glyph glyph-name="ebreve" unicode="&#x115;" horiz-adv-x="1236" 
d="M651 -25q-155 0 -281 70t-200 199t-74 293v4q0 154 67 283t189 204.5t273 75.5q101 0 186 -30.5t145.5 -84.5t103 -127.5t63 -159.5t20.5 -180q0 -19 -4 -69h-795q20 -131 103.5 -203t207.5 -72q89 0 156 31.5t137 97.5l146 -129q-172 -203 -443 -203zM342 616h555
q-13 125 -84.5 205t-189.5 80q-114 0 -188.5 -77.5t-92.5 -207.5zM621 1214q-150 0 -245.5 79t-105.5 218h170q42 -125 181 -125q138 0 180 125h172q-12 -139 -107 -218t-245 -79z" />
    <glyph glyph-name="Edotaccent" unicode="&#x116;" horiz-adv-x="1372" 
d="M588 1552v230h262v-230h-262zM184 0v1434h1063v-226h-811v-372h719v-226h-719v-385h821v-225h-1073z" />
    <glyph glyph-name="edotaccent" unicode="&#x117;" horiz-adv-x="1236" 
d="M651 -25q-155 0 -281 70t-200 199t-74 293v4q0 154 67 283t189 204.5t273 75.5q101 0 186 -30.5t145.5 -84.5t103 -127.5t63 -159.5t20.5 -180q0 -19 -4 -69h-795q20 -131 103.5 -203t207.5 -72q89 0 156 31.5t137 97.5l146 -129q-172 -203 -443 -203zM342 616h555
q-13 125 -84.5 205t-189.5 80q-114 0 -188.5 -77.5t-92.5 -207.5zM492 1219v243h258v-243h-258z" />
    <glyph glyph-name="Eogonek" unicode="&#x118;" horiz-adv-x="1372" 
d="M184 0v1434h1063v-226h-811v-372h719v-226h-719v-385h821v-225h-79q-68 -68 -68 -129q0 -88 147 -88v-119q-157 -16 -246 34t-89 134q0 80 82 168h-820z" />
    <glyph glyph-name="eogonek" unicode="&#x119;" horiz-adv-x="1236" 
d="M342 616h555q-13 125 -84.5 205t-189.5 80q-114 0 -188.5 -77.5t-92.5 -207.5zM975 59q-113 -102 -113 -178q0 -53 36 -75.5t112 -22.5v-119q-154 -17 -244 32t-90 132q0 75 69 156q-41 -9 -94 -9q-155 0 -281 70t-200 199t-74 293v4q0 154 67 283t189 204.5t273 75.5
q101 0 186 -30.5t145.5 -84.5t103 -127.5t63 -159.5t20.5 -180q0 -19 -4 -69h-795q20 -131 103.5 -203t207.5 -72q89 0 156 31.5t137 97.5l146 -129q-55 -64 -119 -119z" />
    <glyph glyph-name="Ecaron" unicode="&#x11a;" horiz-adv-x="1372" 
d="M1083 1829l-247 -277h-234l-248 277h209l158 -117l158 117h204zM184 0v1434h1063v-226h-811v-372h719v-226h-719v-385h821v-225h-1073z" />
    <glyph glyph-name="ecaron" unicode="&#x11b;" horiz-adv-x="1236" 
d="M975 1520l-240 -301h-229l-238 301h197l158 -138l159 138h193zM651 -25q-155 0 -281 70t-200 199t-74 293v4q0 154 67 283t189 204.5t273 75.5q101 0 186 -30.5t145.5 -84.5t103 -127.5t63 -159.5t20.5 -180q0 -19 -4 -69h-795q20 -131 103.5 -203t207.5 -72
q89 0 156 31.5t137 97.5l146 -129q-172 -203 -443 -203zM342 616h555q-13 125 -84.5 205t-189.5 80q-114 0 -188.5 -77.5t-92.5 -207.5z" />
    <glyph glyph-name="Gbreve" unicode="&#x11e;" horiz-adv-x="1605" 
d="M844 1569q-151 0 -247 71.5t-108 202.5h177q40 -102 178 -102t178 102h176q-12 -131 -107.5 -202.5t-246.5 -71.5zM864 -25q-220 0 -390.5 97.5t-261.5 265t-91 375.5v4q0 149 55 284.5t151 236.5t235 160.5t298 59.5q179 0 307 -47.5t244 -146.5l-160 -191
q-92 78 -182.5 116t-218.5 38t-235.5 -69.5t-168.5 -185.5t-61 -251v-4q0 -147 60 -263t171.5 -182.5t255.5 -66.5q203 0 347 108v269h-367v219h610v-602q-265 -224 -598 -224z" />
    <glyph glyph-name="gbreve" unicode="&#x11f;" horiz-adv-x="1374" 
d="M637 -332q-271 0 -483 129l92 187q184 -115 385 -115q167 0 254.5 84.5t87.5 247.5v84q-74 -96 -164.5 -147.5t-216.5 -51.5q-96 0 -184 35t-157 98.5t-110 160.5t-41 212v4q0 116 41 213.5t110 161t157 98.5t184 35q126 0 216.5 -49.5t162.5 -134.5v161h248v-860
q0 -269 -138 -407q-146 -146 -444 -146zM657 295q132 0 225 84.5t93 212.5v4q0 131 -93 215t-225 84q-131 0 -219 -83t-88 -214v-4q0 -131 88.5 -215t218.5 -84zM698 1214q-150 0 -245 79t-105 218h170q42 -125 180 -125q139 0 181 125h172q-12 -139 -107.5 -218t-245.5 -79
z" />
    <glyph glyph-name="Gdotaccent" unicode="&#x120;" horiz-adv-x="1605" 
d="M713 1573v229h262v-229h-262zM864 -25q-220 0 -390.5 97.5t-261.5 265t-91 375.5v4q0 149 55 284.5t151 236.5t235 160.5t298 59.5q179 0 307 -47.5t244 -146.5l-160 -191q-92 78 -182.5 116t-218.5 38t-235.5 -69.5t-168.5 -185.5t-61 -251v-4q0 -147 60 -263
t171.5 -182.5t255.5 -66.5q203 0 347 108v269h-367v219h610v-602q-265 -224 -598 -224z" />
    <glyph glyph-name="gdotaccent" unicode="&#x121;" horiz-adv-x="1374" 
d="M637 -332q-271 0 -483 129l92 187q184 -115 385 -115q167 0 254.5 84.5t87.5 247.5v84q-74 -96 -164.5 -147.5t-216.5 -51.5q-96 0 -184 35t-157 98.5t-110 160.5t-41 212v4q0 116 41 213.5t110 161t157 98.5t184 35q126 0 216.5 -49.5t162.5 -134.5v161h248v-860
q0 -269 -138 -407q-146 -146 -444 -146zM657 295q132 0 225 84.5t93 212.5v4q0 131 -93 215t-225 84q-131 0 -219 -83t-88 -214v-4q0 -131 88.5 -215t218.5 -84zM569 1219v243h258v-243h-258z" />
    <glyph glyph-name="Gcommaaccent" unicode="&#x122;" horiz-adv-x="1605" 
d="M705 -563l-17 80q76 11 111.5 45t31.5 94h-110v207h242v-176q0 -125 -64 -184.5t-194 -65.5zM864 -25q-220 0 -390.5 97.5t-261.5 265t-91 375.5v4q0 149 55 284.5t151 236.5t235 160.5t298 59.5q179 0 307 -47.5t244 -146.5l-160 -191q-92 78 -182.5 116t-218.5 38
t-235.5 -69.5t-168.5 -185.5t-61 -251v-4q0 -147 60 -263t171.5 -182.5t255.5 -66.5q203 0 347 108v269h-367v219h610v-602q-265 -224 -598 -224z" />
    <glyph glyph-name="gcommaaccent" unicode="&#x123;" horiz-adv-x="1374" 
d="M831 1645l17 -80q-75 -11 -111 -45.5t-32 -94.5h110v-206h-242v176q0 125 64 184.5t194 65.5zM637 -332q-271 0 -483 129l92 187q184 -115 385 -115q167 0 254.5 84.5t87.5 247.5v84q-74 -96 -164.5 -147.5t-216.5 -51.5q-96 0 -184 35t-157 98.5t-110 160.5t-41 212v4
q0 116 41 213.5t110 161t157 98.5t184 35q126 0 216.5 -49.5t162.5 -134.5v161h248v-860q0 -269 -138 -407q-146 -146 -444 -146zM657 295q132 0 225 84.5t93 212.5v4q0 131 -93 215t-225 84q-131 0 -219 -83t-88 -214v-4q0 -131 88.5 -215t218.5 -84z" />
    <glyph glyph-name="Hbar" unicode="&#x126;" horiz-adv-x="1593" 
d="M57 1047v178h146v209h252v-209h684v209h252v-209h147v-178h-147v-1047h-252v600h-684v-600h-252v1047h-146zM455 834h684v217h-684v-217z" />
    <glyph glyph-name="hbar" unicode="&#x127;" horiz-adv-x="1269" 
d="M156 0v1231h-142v149h142v115h247v-115h336v-149h-336v-318q131 191 338 191q183 0 284 -111.5t101 -304.5v-688h-247v614q0 127 -60.5 196t-171.5 69q-110 0 -177 -71.5t-67 -197.5v-610h-247z" />
    <glyph glyph-name="Itilde" unicode="&#x128;" horiz-adv-x="649" 
d="M199 0v1434h252v-1434h-252zM86 1550l-137 43q38 131 89 192.5t140 61.5q63 0 163 -41t132 -41q42 0 65 22.5t48 80.5l137 -41q-38 -133 -89 -194.5t-140 -61.5q-62 0 -163 41t-132 41q-42 0 -65 -22.5t-48 -80.5z" />
    <glyph glyph-name="itilde" unicode="&#x129;" horiz-adv-x="585" 
d="M170 0v1081h248v-1081h-248zM43 1198l-137 43q38 131 89 192.5t140 61.5q63 0 163 -41t132 -41q42 0 65 22.5t48 80.5l137 -41q-38 -133 -89 -194.5t-140 -61.5q-62 0 -163 40.5t-132 40.5q-42 0 -65 -22.5t-48 -79.5z" />
    <glyph glyph-name="Imacron" unicode="&#x12a;" horiz-adv-x="649" 
d="M199 0v1434h252v-1434h-252zM-41 1575v184h735v-184h-735z" />
    <glyph glyph-name="imacron" unicode="&#x12b;" horiz-adv-x="585" 
d="M170 0v1081h248v-1081h-248zM-55 1241v180h696v-180h-696z" />
    <glyph glyph-name="Ibreve" unicode="&#x12c;" horiz-adv-x="649" 
d="M199 0v1434h252v-1434h-252zM326 1548q-151 0 -247 72t-108 203h176q41 -103 179 -103q137 0 178 103h176q-12 -131 -107.5 -203t-246.5 -72z" />
    <glyph glyph-name="ibreve" unicode="&#x12d;" horiz-adv-x="585" 
d="M170 0v1081h248v-1081h-248zM293 1214q-150 0 -245 79t-105 218h170q42 -125 180 -125t180 125h172q-12 -139 -107 -218t-245 -79z" />
    <glyph glyph-name="Iogonek" unicode="&#x12e;" horiz-adv-x="649" 
d="M199 0v1434h252v-1434h-45q-68 -68 -68 -129q0 -88 147 -88v-119q-157 -16 -246 34t-89 134q0 81 81 168h-32z" />
    <glyph glyph-name="iogonek" unicode="&#x12f;" horiz-adv-x="585" 
d="M170 0v1081h248v-1081h-43q-68 -68 -68 -129q0 -88 148 -88v-119q-157 -16 -246.5 34t-89.5 134q0 80 82 168h-31zM160 1247v236h266v-236h-266z" />
    <glyph glyph-name="Idotaccent" unicode="&#x130;" horiz-adv-x="649" 
d="M199 0v1434h252v-1434h-252zM195 1552v230h262v-230h-262z" />
    <glyph glyph-name="dotlessi" unicode="&#x131;" horiz-adv-x="585" 
d="M170 0v1081h248v-1081h-248z" />
    <glyph glyph-name="Kcommaaccent" unicode="&#x136;" horiz-adv-x="1486" 
d="M608 -547l-16 80q76 11 111.5 45t31.5 94h-110v207h241v-176q0 -125 -64 -184.5t-194 -65.5zM184 0v1434h252v-721l682 721h309l-596 -617l623 -817h-305l-490 645l-223 -229v-416h-252z" />
    <glyph glyph-name="kcommaaccent" unicode="&#x137;" horiz-adv-x="1191" 
d="M483 -557l-16 80q76 11 111.5 45t31.5 94h-110v207h241v-176q0 -125 -64 -184.5t-194 -65.5zM156 0v1495h247v-893l449 479h301l-430 -440l444 -641h-286l-326 467l-152 -158v-309h-247z" />
    <glyph glyph-name="Lacute" unicode="&#x139;" horiz-adv-x="1267" 
d="M244 1552l229 297l225 -98l-262 -199h-192zM184 0v1434h252v-1205h754v-229h-1006z" />
    <glyph glyph-name="lacute" unicode="&#x13a;" horiz-adv-x="585" 
d="M199 1587l229 297l225 -98l-262 -199h-192zM170 0v1495h248v-1495h-248z" />
    <glyph glyph-name="Lcommaaccent" unicode="&#x13b;" horiz-adv-x="1267" 
d="M545 -557l-17 80q76 11 112 45.5t32 93.5h-111v207h242v-176q0 -125 -64 -184.5t-194 -65.5zM184 0v1434h252v-1205h754v-229h-1006z" />
    <glyph glyph-name="lcommaaccent" unicode="&#x13c;" horiz-adv-x="585" 
d="M156 -557l-17 80q76 11 112 45.5t32 93.5h-111v207h242v-176q0 -125 -64 -184.5t-194 -65.5zM170 0v1495h248v-1495h-248z" />
    <glyph glyph-name="Lcaron" unicode="&#x13d;" horiz-adv-x="1267" 
d="M598 1044l25 390h192v-7l-115 -383h-102zM184 0v1434h252v-1205h754v-229h-1006z" />
    <glyph glyph-name="lcaron" unicode="&#x13e;" horiz-adv-x="585" 
d="M532 1106l25 389h193v-6l-115 -383h-103zM170 0v1495h248v-1495h-248z" />
    <glyph glyph-name="Ldot" unicode="&#x13f;" horiz-adv-x="1267" 
d="M848 649v244h250v-244h-250zM184 0v1434h252v-1205h754v-229h-1006z" />
    <glyph glyph-name="ldot" unicode="&#x140;" horiz-adv-x="751" 
d="M561 653v230h217v-230h-217zM170 0v1495h248v-1495h-248z" />
    <glyph glyph-name="Lslash" unicode="&#x141;" horiz-adv-x="1329" 
d="M825 791l-327 -148v-414h753v-229h-1005v528l-154 -67v239l154 68v666h252v-551l327 147v-239z" />
    <glyph glyph-name="lslash" unicode="&#x142;" horiz-adv-x="708" 
d="M633 784l-154 -79v-705h-248v580l-155 -80v237l155 80v678h248v-553l154 80v-238z" />
    <glyph glyph-name="Nacute" unicode="&#x143;" horiz-adv-x="1617" 
d="M707 1550l229 297l225 -98l-262 -199h-192zM184 0v1434h234l768 -992v992h248v-1434h-211l-791 1020v-1020h-248z" />
    <glyph glyph-name="nacute" unicode="&#x144;" horiz-adv-x="1269" 
d="M541 1219l213 335l225 -100l-252 -235h-186zM156 0v1081h247v-168q131 191 338 191q183 0 284 -111.5t101 -304.5v-688h-247v614q0 127 -60.5 196t-171.5 69q-110 0 -177 -71.5t-67 -197.5v-610h-247z" />
    <glyph glyph-name="Ncommaaccent" unicode="&#x145;" horiz-adv-x="1617" 
d="M670 -547l-17 80q76 11 112 45.5t32 93.5h-111v207h242v-176q0 -125 -64 -184.5t-194 -65.5zM184 0v1434h234l768 -992v992h248v-1434h-211l-791 1020v-1020h-248z" />
    <glyph glyph-name="ncommaaccent" unicode="&#x146;" horiz-adv-x="1269" 
d="M502 -557l-17 80q76 11 112 45.5t32 93.5h-111v207h242v-176q0 -125 -64 -184.5t-194 -65.5zM156 0v1081h247v-168q131 191 338 191q183 0 284 -111.5t101 -304.5v-688h-247v614q0 127 -60.5 196t-171.5 69q-110 0 -177 -71.5t-67 -197.5v-610h-247z" />
    <glyph glyph-name="Ncaron" unicode="&#x147;" horiz-adv-x="1617" 
d="M1174 1827l-248 -277h-234l-248 277h209l158 -117l158 117h205zM184 0v1434h234l768 -992v992h248v-1434h-211l-791 1020v-1020h-248z" />
    <glyph glyph-name="ncaron" unicode="&#x148;" horiz-adv-x="1269" 
d="M993 1520l-239 -301h-230l-237 301h196l158 -138l160 138h192zM156 0v1081h247v-168q131 191 338 191q183 0 284 -111.5t101 -304.5v-688h-247v614q0 127 -60.5 196t-171.5 69q-110 0 -177 -71.5t-67 -197.5v-610h-247z" />
    <glyph glyph-name="Omacron" unicode="&#x14c;" horiz-adv-x="1740" 
d="M504 1595v185h735v-185h-735zM868 -25q-215 0 -387 100.5t-266 268.5t-94 369v4q0 149 56 284.5t154 236.5t239 160.5t302 59.5t301.5 -58.5t238 -158.5t153 -235t55.5 -285v-4q0 -149 -56.5 -285t-154 -236.5t-239 -160.5t-302.5 -60zM872 207q139 0 250.5 68
t172.5 183.5t61 254.5v4q0 139 -61.5 255.5t-174 185.5t-252.5 69q-139 0 -250.5 -68t-172 -183.5t-60.5 -254.5v-4q0 -104 36 -197.5t99.5 -162.5t155 -109.5t196.5 -40.5z" />
    <glyph glyph-name="omacron" unicode="&#x14d;" horiz-adv-x="1345" 
d="M324 1241v180h696v-180h-696zM670 -25q-121 0 -228.5 44.5t-183 120t-119 178.5t-43.5 217v4q0 153 74.5 282.5t208 206t295.5 76.5q163 0 295.5 -75.5t206 -204t73.5 -281.5v-4q0 -113 -44 -216.5t-120 -180t-184.5 -122t-230.5 -45.5zM674 190q148 0 237.5 100
t89.5 245v4q0 145 -93.5 246.5t-237.5 101.5q-146 0 -236 -99.5t-90 -244.5v-4q0 -143 95 -246t235 -103z" />
    <glyph glyph-name="Obreve" unicode="&#x14e;" horiz-adv-x="1740" 
d="M870 1569q-151 0 -246.5 71.5t-107.5 202.5h176q40 -102 178 -102q139 0 179 102h176q-12 -131 -108 -202.5t-247 -71.5zM868 -25q-215 0 -387 100.5t-266 268.5t-94 369v4q0 149 56 284.5t154 236.5t239 160.5t302 59.5t301.5 -58.5t238 -158.5t153 -235t55.5 -285v-4
q0 -149 -56.5 -285t-154 -236.5t-239 -160.5t-302.5 -60zM872 207q139 0 250.5 68t172.5 183.5t61 254.5v4q0 139 -61.5 255.5t-174 185.5t-252.5 69q-139 0 -250.5 -68t-172 -183.5t-60.5 -254.5v-4q0 -104 36 -197.5t99.5 -162.5t155 -109.5t196.5 -40.5z" />
    <glyph glyph-name="obreve" unicode="&#x14f;" horiz-adv-x="1345" 
d="M670 -25q-121 0 -228.5 44.5t-183 120t-119 178.5t-43.5 217v4q0 153 74.5 282.5t208 206t295.5 76.5q163 0 295.5 -75.5t206 -204t73.5 -281.5v-4q0 -113 -44 -216.5t-120 -180t-184.5 -122t-230.5 -45.5zM674 190q148 0 237.5 100t89.5 245v4q0 145 -93.5 246.5
t-237.5 101.5q-146 0 -236 -99.5t-90 -244.5v-4q0 -143 95 -246t235 -103zM672 1214q-150 0 -245 79t-105 218h170q42 -125 180 -125t180 125h172q-12 -139 -107 -218t-245 -79z" />
    <glyph glyph-name="Ohungarumlaut" unicode="&#x150;" horiz-adv-x="1740" 
d="M868 -25q-215 0 -387 100.5t-266 268.5t-94 369v4q0 149 56 284.5t154 236.5t239 160.5t302 59.5t301.5 -58.5t238 -158.5t153 -235t55.5 -285v-4q0 -149 -56.5 -285t-154 -236.5t-239 -160.5t-302.5 -60zM872 207q139 0 250.5 68t172.5 183.5t61 254.5v4
q0 139 -61.5 255.5t-174 185.5t-252.5 69q-139 0 -250.5 -68t-172 -183.5t-60.5 -254.5v-4q0 -104 36 -197.5t99.5 -162.5t155 -109.5t196.5 -40.5zM575 1573l230 297l217 -98l-260 -199h-187zM934 1573l229 297l217 -98l-260 -199h-186z" />
    <glyph glyph-name="ohungarumlaut" unicode="&#x151;" horiz-adv-x="1345" 
d="M733 1219l215 335l217 -100l-252 -235h-180zM385 1219l211 335l217 -100l-248 -235h-180zM670 -25q-121 0 -228.5 44.5t-183 120t-119 178.5t-43.5 217v4q0 153 74.5 282.5t208 206t295.5 76.5q163 0 295.5 -75.5t206 -204t73.5 -281.5v-4q0 -113 -44 -216.5t-120 -180
t-184.5 -122t-230.5 -45.5zM674 190q148 0 237.5 100t89.5 245v4q0 145 -93.5 246.5t-237.5 101.5q-146 0 -236 -99.5t-90 -244.5v-4q0 -143 95 -246t235 -103z" />
    <glyph glyph-name="OE" unicode="&#x152;" horiz-adv-x="2248" 
d="M2134 0h-1251q-166 0 -309 55t-242 150t-155 226.5t-56 281.5v4q0 150 56 282t155 228t242 151.5t309 55.5h1241v-226h-766v-372h674v-226h-674v-385h776v-225zM883 229h223v975h-223q-224 0 -361 -135t-137 -348v-4q0 -213 137.5 -350.5t360.5 -137.5z" />
    <glyph glyph-name="oe" unicode="&#x153;" horiz-adv-x="2129" 
d="M657 -25q-153 0 -282 75.5t-204 204.5t-75 280v4q0 114 44.5 218.5t120.5 180.5t182.5 121t224.5 45q136 0 248.5 -60t183.5 -163q69 105 177 164t241 59q124 0 224 -47t163 -127.5t96 -185t33 -222.5q0 -19 -4 -69h-795q23 -131 106.5 -203t204.5 -72q89 0 157.5 31.5
t137.5 97.5l146 -129q-172 -203 -443 -203q-140 0 -256.5 60.5t-189.5 167.5q-74 -107 -188.5 -167.5t-252.5 -60.5zM1233 616h557q-13 125 -85 205t-189 80q-115 0 -190 -77.5t-93 -207.5zM668 190q142 0 230.5 100.5t88.5 244.5v4q0 144 -92.5 246t-230.5 102
q-142 0 -231 -100t-89 -244v-4q0 -144 92 -246.5t232 -102.5z" />
    <glyph glyph-name="Racute" unicode="&#x154;" horiz-adv-x="1480" 
d="M184 0v1434h639q267 0 414 -144q119 -125 119 -309v-4q0 -169 -92.5 -281t-249.5 -153l387 -543h-297l-352 500h-316v-500h-252zM436 723h369q135 0 215 65t80 175v4q0 116 -77.5 176.5t-219.5 60.5h-367v-481zM621 1552l229 297l225 -98l-262 -199h-192z" />
    <glyph glyph-name="racute" unicode="&#x155;" horiz-adv-x="845" 
d="M358 1219l213 335l226 -100l-252 -235h-187zM156 0v1081h247v-243q53 129 149.5 199.5t233.5 64.5v-262h-14q-170 0 -269.5 -109.5t-99.5 -318.5v-412h-247z" />
    <glyph glyph-name="Rcommaaccent" unicode="&#x156;" horiz-adv-x="1480" 
d="M184 0v1434h639q267 0 414 -144q119 -125 119 -309v-4q0 -169 -92.5 -281t-249.5 -153l387 -543h-297l-352 500h-316v-500h-252zM436 723h369q135 0 215 65t80 175v4q0 116 -77.5 176.5t-219.5 60.5h-367v-481zM584 -547l-17 80q76 11 112 45.5t32 93.5h-111v207h242
v-176q0 -125 -64 -184.5t-194 -65.5z" />
    <glyph glyph-name="rcommaaccent" unicode="&#x157;" horiz-adv-x="845" 
d="M156 -557l-17 80q76 11 112 45.5t32 93.5h-111v207h242v-176q0 -125 -64 -184.5t-194 -65.5zM156 0v1081h247v-243q53 129 149.5 199.5t233.5 64.5v-262h-14q-170 0 -269.5 -109.5t-99.5 -318.5v-412h-247z" />
    <glyph glyph-name="Rcaron" unicode="&#x158;" horiz-adv-x="1480" 
d="M184 0v1434h639q267 0 414 -144q119 -125 119 -309v-4q0 -169 -92.5 -281t-249.5 -153l387 -543h-297l-352 500h-316v-500h-252zM436 723h369q135 0 215 65t80 175v4q0 116 -77.5 176.5t-219.5 60.5h-367v-481zM1085 1829l-247 -277h-234l-248 277h209l158 -117l158 117
h204z" />
    <glyph glyph-name="rcaron" unicode="&#x159;" horiz-adv-x="845" 
d="M813 1520l-240 -301h-229l-238 301h197l158 -138l160 138h192zM156 0v1081h247v-243q53 129 149.5 199.5t233.5 64.5v-262h-14q-170 0 -269.5 -109.5t-99.5 -318.5v-412h-247z" />
    <glyph glyph-name="Sacute" unicode="&#x15a;" horiz-adv-x="1310" 
d="M686 -20q-346 0 -598 229l152 180q109 -95 215.5 -140.5t236.5 -45.5q117 0 185.5 49t68.5 131v4q0 53 -24.5 89t-96 68.5t-202.5 61.5q-123 29 -205 61t-147 81t-95.5 119.5t-30.5 166.5v4q0 184 137.5 300t352.5 116q294 0 520 -180l-135 -191q-202 148 -389 148
q-108 0 -171 -48t-63 -122v-4q0 -58 28.5 -95t100 -67t211.5 -64q119 -31 200.5 -65t142.5 -83t89.5 -115.5t28.5 -155.5v-4q0 -199 -141 -313.5t-371 -114.5zM563 1573l230 297l225 -98l-262 -199h-193z" />
    <glyph glyph-name="sacute" unicode="&#x15b;" horiz-adv-x="1026" 
d="M420 1219l213 335l225 -100l-252 -235h-186zM526 -20q-119 0 -238 41t-220 120l110 168q177 -133 354 -133q79 0 123.5 31.5t44.5 85.5v4q0 28 -16.5 50t-52 39.5t-68 29t-87.5 28.5q-11 3 -17 5q-56 15 -97 29.5t-89.5 41t-79 58t-51.5 80t-21 108.5v4q0 150 109.5 240
t275.5 90q102 0 206 -32.5t191 -90.5l-98 -176q-168 102 -305 102q-71 0 -111.5 -30t-40.5 -78v-4q0 -26 18.5 -48.5t59 -41.5t73.5 -31t93 -31q56 -18 96 -33t88.5 -42.5t79 -58.5t51.5 -78t21 -103v-5q0 -164 -112.5 -251.5t-289.5 -87.5z" />
    <glyph glyph-name="Scedilla" unicode="&#x15e;" horiz-adv-x="1310" 
d="M629 -340l-217 92l159 236q-281 36 -483 221l152 180q109 -95 215.5 -140.5t236.5 -45.5q117 0 185.5 49t68.5 131v4q0 53 -24.5 89t-96 68.5t-202.5 61.5q-123 29 -205 61t-147 81t-95.5 119.5t-30.5 166.5v4q0 184 137.5 300t352.5 116q294 0 520 -180l-135 -191
q-202 148 -389 148q-108 0 -171 -48t-63 -122v-4q0 -58 28.5 -95t100 -67t211.5 -64q119 -31 200.5 -65t142.5 -83t89.5 -115.5t28.5 -155.5v-4q0 -181 -117.5 -292t-314.5 -132z" />
    <glyph glyph-name="scedilla" unicode="&#x15f;" horiz-adv-x="1026" 
d="M463 -340l-217 92l162 238q-198 38 -340 151l110 168q177 -133 354 -133q79 0 123.5 31.5t44.5 85.5v4q0 28 -16.5 50t-52 39.5t-68 29t-87.5 28.5q-11 3 -17 5q-56 15 -97 29.5t-89.5 41t-79 58t-51.5 80t-21 108.5v4q0 150 109.5 240t275.5 90q102 0 206 -32.5
t191 -90.5l-98 -176q-168 102 -305 102q-71 0 -111.5 -30t-40.5 -78v-4q0 -26 18.5 -48.5t59 -41.5t73.5 -31t93 -31q56 -18 96 -33t88.5 -42.5t79 -58.5t51.5 -78t21 -103v-5q0 -146 -90 -231.5t-238 -103.5z" />
    <glyph glyph-name="Scaron" unicode="&#x160;" horiz-adv-x="1310" 
d="M686 -20q-346 0 -598 229l152 180q109 -95 215.5 -140.5t236.5 -45.5q117 0 185.5 49t68.5 131v4q0 53 -24.5 89t-96 68.5t-202.5 61.5q-123 29 -205 61t-147 81t-95.5 119.5t-30.5 166.5v4q0 184 137.5 300t352.5 116q294 0 520 -180l-135 -191q-202 148 -389 148
q-108 0 -171 -48t-63 -122v-4q0 -58 28.5 -95t100 -67t211.5 -64q119 -31 200.5 -65t142.5 -83t89.5 -115.5t28.5 -155.5v-4q0 -199 -141 -313.5t-371 -114.5zM1030 1849l-248 -276h-233l-248 276h209l158 -116l157 116h205z" />
    <glyph glyph-name="scaron" unicode="&#x161;" horiz-adv-x="1026" 
d="M872 1520l-239 -301h-230l-237 301h196l158 -138l160 138h192zM526 -20q-119 0 -238 41t-220 120l110 168q177 -133 354 -133q79 0 123.5 31.5t44.5 85.5v4q0 28 -16.5 50t-52 39.5t-68 29t-87.5 28.5q-11 3 -17 5q-56 15 -97 29.5t-89.5 41t-79 58t-51.5 80t-21 108.5v4
q0 150 109.5 240t275.5 90q102 0 206 -32.5t191 -90.5l-98 -176q-168 102 -305 102q-71 0 -111.5 -30t-40.5 -78v-4q0 -26 18.5 -48.5t59 -41.5t73.5 -31t93 -31q56 -18 96 -33t88.5 -42.5t79 -58.5t51.5 -78t21 -103v-5q0 -164 -112.5 -251.5t-289.5 -87.5z" />
    <glyph glyph-name="Tcommaaccent" unicode="&#x162;" horiz-adv-x="1327" 
d="M524 -557l-16 80q76 11 111.5 45t31.5 94h-110v207h241v-176q0 -125 -64 -184.5t-194 -65.5zM537 0v1200h-455v234h1163v-234h-454v-1200h-254z" />
    <glyph glyph-name="tcommaaccent" unicode="&#x163;" horiz-adv-x="841" 
d="M319 -557l-16 80q76 11 111.5 45t31.5 94h-110v207h242v-176q0 -125 -64.5 -184.5t-194.5 -65.5zM518 -18q-311 0 -311 317v569h-137v213h137v297h248v-297h290v-213h-290v-530q0 -135 133 -135q80 0 153 37v-203q-99 -55 -223 -55z" />
    <glyph glyph-name="Tcaron" unicode="&#x164;" horiz-adv-x="1327" 
d="M1028 1829l-248 -277h-233l-248 277h209l158 -117l157 117h205zM537 0v1200h-455v234h1163v-234h-454v-1200h-254z" />
    <glyph glyph-name="tcaron" unicode="&#x165;" horiz-adv-x="841" 
d="M621 1206l24 389h193v-6l-115 -383h-102zM518 -18q-311 0 -311 317v569h-137v213h137v297h248v-297h290v-213h-290v-530q0 -135 133 -135q80 0 153 37v-203q-99 -55 -223 -55z" />
    <glyph glyph-name="Utilde" unicode="&#x168;" horiz-adv-x="1550" 
d="M772 -23q-284 0 -447 162.5t-163 468.5v826h252v-816q0 -199 95 -304t267 -105q170 0 265.5 102t95.5 297v826h252v-813q0 -314 -164.5 -479t-452.5 -165zM524 1550l-137 43q38 131 89 192.5t140 61.5q63 0 163 -41t132 -41q42 0 65 22.5t48 80.5l137 -41
q-38 -133 -89 -194.5t-140 -61.5q-62 0 -163 41t-132 41q-42 0 -65 -22.5t-48 -80.5z" />
    <glyph glyph-name="utilde" unicode="&#x169;" horiz-adv-x="1269" 
d="M528 -23q-183 0 -284 111.5t-101 304.5v688h248v-614q0 -127 60.5 -195.5t171.5 -68.5q110 0 176.5 71t66.5 197v610h248v-1081h-248v168q-132 -191 -338 -191zM385 1198l-137 43q38 131 89 192.5t140 61.5q63 0 163 -41t132 -41q42 0 65 22.5t48 80.5l137 -41
q-38 -133 -89 -194.5t-140 -61.5q-62 0 -163 40.5t-132 40.5q-42 0 -65 -22.5t-48 -79.5z" />
    <glyph glyph-name="Umacron" unicode="&#x16a;" horiz-adv-x="1550" 
d="M408 1573v184h735v-184h-735zM772 -23q-284 0 -447 162.5t-163 468.5v826h252v-816q0 -199 95 -304t267 -105q170 0 265.5 102t95.5 297v826h252v-813q0 -314 -164.5 -479t-452.5 -165z" />
    <glyph glyph-name="umacron" unicode="&#x16b;" horiz-adv-x="1269" 
d="M528 -23q-183 0 -284 111.5t-101 304.5v688h248v-614q0 -127 60.5 -195.5t171.5 -68.5q110 0 176.5 71t66.5 197v610h248v-1081h-248v168q-132 -191 -338 -191zM279 1241v180h696v-180h-696z" />
    <glyph glyph-name="Ubreve" unicode="&#x16c;" horiz-adv-x="1550" 
d="M774 1532q-151 0 -246.5 71.5t-107.5 202.5h176q40 -102 178 -102t178 102h176q-12 -131 -107.5 -202.5t-246.5 -71.5zM772 -23q-284 0 -447 162.5t-163 468.5v826h252v-816q0 -199 95 -304t267 -105q170 0 265.5 102t95.5 297v826h252v-813q0 -314 -164.5 -479
t-452.5 -165z" />
    <glyph glyph-name="ubreve" unicode="&#x16d;" horiz-adv-x="1269" 
d="M528 -23q-183 0 -284 111.5t-101 304.5v688h248v-614q0 -127 60.5 -195.5t171.5 -68.5q110 0 176.5 71t66.5 197v610h248v-1081h-248v168q-132 -191 -338 -191zM627 1214q-150 0 -245.5 79t-105.5 218h170q42 -125 181 -125q138 0 180 125h172q-12 -139 -107 -218
t-245 -79z" />
    <glyph glyph-name="Uring" unicode="&#x16e;" horiz-adv-x="1550" 
d="M772 -23q-284 0 -447 162.5t-163 468.5v826h252v-816q0 -199 95 -304t267 -105q170 0 265.5 102t95.5 297v826h252v-813q0 -314 -164.5 -479t-452.5 -165zM530 1720q0 91 72 153t172 62t172 -62t72 -153q0 -92 -72 -154.5t-172 -62.5t-172 62.5t-72 154.5zM643 1720
q0 -52 36 -86.5t95 -34.5t96 34.5t37 86.5q0 50 -37 84.5t-96 34.5t-95 -34t-36 -85z" />
    <glyph glyph-name="uring" unicode="&#x16f;" horiz-adv-x="1269" 
d="M389 1417q0 94 70 162t168 68t167.5 -68t69.5 -162t-69.5 -161.5t-167.5 -67.5t-168 67.5t-70 161.5zM489 1417q0 -57 40.5 -97t97.5 -40t97 40t40 97t-40 97t-97 40t-97.5 -40t-40.5 -97zM528 -23q-183 0 -284 111.5t-101 304.5v688h248v-614q0 -127 60.5 -195.5
t171.5 -68.5q110 0 176.5 71t66.5 197v610h248v-1081h-248v168q-132 -191 -338 -191z" />
    <glyph glyph-name="Uhungarumlaut" unicode="&#x170;" horiz-adv-x="1550" 
d="M772 -23q-284 0 -447 162.5t-163 468.5v826h252v-816q0 -199 95 -304t267 -105q170 0 265.5 102t95.5 297v826h252v-813q0 -314 -164.5 -479t-452.5 -165zM479 1550l230 297l217 -98l-260 -199h-187zM838 1550l229 297l217 -98l-260 -199h-186z" />
    <glyph glyph-name="uhungarumlaut" unicode="&#x171;" horiz-adv-x="1269" 
d="M528 -23q-183 0 -284 111.5t-101 304.5v688h248v-614q0 -127 60.5 -195.5t171.5 -68.5q110 0 176.5 71t66.5 197v610h248v-1081h-248v168q-132 -191 -338 -191zM688 1219l215 335l217 -100l-252 -235h-180zM340 1219l211 335l217 -100l-248 -235h-180z" />
    <glyph glyph-name="Uogonek" unicode="&#x172;" horiz-adv-x="1550" 
d="M938 -217v-119q-157 -16 -246.5 34t-89.5 134q0 75 68 152q-240 30 -374 188t-134 436v826h252v-816q0 -199 95 -304t267 -105q170 0 265.5 102t95.5 297v826h252v-813q0 -294 -145.5 -457t-403.5 -182q-49 -52 -49 -111q0 -88 147 -88z" />
    <glyph glyph-name="uogonek" unicode="&#x173;" horiz-adv-x="1269" 
d="M528 -23q-183 0 -284 111.5t-101 304.5v688h248v-614q0 -127 60.5 -195.5t171.5 -68.5q110 0 176.5 71t66.5 197v610h248v-1081h-55q-68 -68 -68 -129q0 -88 148 -88v-119q-157 -16 -246.5 34t-89.5 134q0 80 82 168h-19v168q-132 -191 -338 -191z" />
    <glyph glyph-name="Wcircumflex" unicode="&#x174;" horiz-adv-x="2285" 
d="M573 -10l-499 1444h272l342 -1063l352 1067h213l353 -1067l342 1063h264l-500 -1444h-217l-352 1030l-352 -1030h-218zM778 1552l248 277h234l247 -277h-209l-157 119l-158 -119h-205z" />
    <glyph glyph-name="wcircumflex" unicode="&#x175;" horiz-adv-x="1763" 
d="M528 1219l238 301h229l240 -301h-197l-159 137l-158 -137h-193zM416 -8l-350 1089h253l218 -741l239 745h211l242 -745l221 741h248l-355 -1089h-221l-241 739l-244 -739h-221z" />
    <glyph glyph-name="Ycircumflex" unicode="&#x176;" horiz-adv-x="1466" 
d="M606 0v565l-569 869h297l401 -635l406 635h289l-570 -863v-571h-254zM369 1550l247 277h234l248 -277h-209l-158 119l-158 -119h-204z" />
    <glyph glyph-name="ycircumflex" unicode="&#x177;" horiz-adv-x="1220" 
d="M377 -334q-134 0 -256 66l84 184q77 -41 145 -41q55 0 89.5 27t64.5 98l-451 1081h264l308 -802l280 802h258l-430 -1112q-65 -166 -145.5 -234.5t-210.5 -68.5zM258 1219l238 301h229l240 -301h-197l-160 137l-157 -137h-193z" />
    <glyph glyph-name="Ydieresis" unicode="&#x178;" horiz-adv-x="1466" 
d="M606 0v565l-569 869h297l401 -635l406 635h289l-570 -863v-571h-254zM817 1550v230h254v-230h-254zM395 1550v230h256v-230h-256z" />
    <glyph glyph-name="Zacute" unicode="&#x179;" horiz-adv-x="1437" 
d="M133 0v186l846 1024h-819v224h1147v-187l-846 -1024h846v-223h-1174zM631 1552l229 297l225 -98l-262 -199h-192z" />
    <glyph glyph-name="zacute" unicode="&#x17a;" horiz-adv-x="1146" 
d="M479 1219l213 335l226 -100l-252 -235h-187zM106 0v170l625 709h-602v202h918v-170l-625 -708h625v-203h-941z" />
    <glyph glyph-name="Zdotaccent" unicode="&#x17b;" horiz-adv-x="1437" 
d="M600 1552v230h262v-230h-262zM133 0v186l846 1024h-819v224h1147v-187l-846 -1024h846v-223h-1174z" />
    <glyph glyph-name="zdotaccent" unicode="&#x17c;" horiz-adv-x="1146" 
d="M106 0v170l625 709h-602v202h918v-170l-625 -708h625v-203h-941zM449 1219v243h258v-243h-258z" />
    <glyph glyph-name="Zcaron" unicode="&#x17d;" horiz-adv-x="1437" 
d="M1096 1829l-248 -277h-234l-247 277h208l158 -117l158 117h205zM133 0v186l846 1024h-819v224h1147v-187l-846 -1024h846v-223h-1174z" />
    <glyph glyph-name="zcaron" unicode="&#x17e;" horiz-adv-x="1146" 
d="M932 1520l-240 -301h-229l-238 301h197l158 -138l159 138h193zM106 0v170l625 709h-602v202h918v-170l-625 -708h625v-203h-941z" />
    <glyph glyph-name="florin" unicode="&#x192;" horiz-adv-x="1079" 
d="M199 -10q-74 0 -115 10v203q43 -6 82 -6q67 0 102 32t47 105l72 395h-164v207h199l37 190q30 161 113.5 239.5t244.5 78.5q105 0 189 -23v-209q-74 21 -142 21q-72 0 -110.5 -36.5t-55.5 -121.5l-24 -139h260v-207h-297l-78 -432q-29 -164 -114 -235.5t-246 -71.5z" />
    <glyph glyph-name="Ohorn" unicode="&#x1a0;" horiz-adv-x="1740" 
d="M868 -25q-215 0 -387 100.5t-266 268.5t-94 369v4q0 149 56 284.5t154 236.5t239 160.5t302 59.5q241 0 431 -129q83 21 83 66q0 84 -55 182h244q31 -86 31 -217q-3 -137 -125 -203q139 -194 139 -436v-4q0 -149 -56.5 -285t-154 -236.5t-239 -160.5t-302.5 -60zM872 207
q139 0 250.5 68t172.5 183.5t61 254.5v4q0 139 -61.5 255.5t-174 185.5t-252.5 69q-139 0 -250.5 -68t-172 -183.5t-60.5 -254.5v-4q0 -104 36 -197.5t99.5 -162.5t155 -109.5t196.5 -40.5z" />
    <glyph glyph-name="ohorn" unicode="&#x1a1;" horiz-adv-x="1345" 
d="M670 -25q-121 0 -228.5 44.5t-183 120t-119 178.5t-43.5 217v4q0 153 74.5 282.5t208 206t295.5 76.5q204 0 360 -121q66 21 66 59q0 81 -56 179h238q31 -131 31 -213q-3 -137 -129 -201q65 -127 65 -264v-4q0 -113 -44 -216.5t-120 -180t-184.5 -122t-230.5 -45.5z
M674 190q148 0 237.5 100t89.5 245v4q0 145 -93.5 246.5t-237.5 101.5q-146 0 -236 -99.5t-90 -244.5v-4q0 -143 95 -246t235 -103z" />
    <glyph glyph-name="Uhorn" unicode="&#x1af;" horiz-adv-x="1658" 
d="M772 -23q-284 0 -447 162.5t-163 468.5v826h252v-816q0 -199 95 -304t267 -105q170 0 265.5 102t95.5 297v826h194q55 18 55 55q0 84 -55 182h244q31 -86 31 -217q-3 -182 -217 -235v-598q0 -314 -164.5 -479t-452.5 -165z" />
    <glyph glyph-name="uhorn" unicode="&#x1b0;" horiz-adv-x="1378" 
d="M528 -23q-183 0 -284 111.5t-101 304.5v688h248v-614q0 -127 60.5 -195.5t171.5 -68.5q110 0 176.5 71t66.5 197v610h203q64 18 64 58q0 80 -56 178h238q31 -131 31 -213q-3 -189 -232 -236v-868h-248v168q-132 -191 -338 -191z" />
    <glyph glyph-name="Aringacute" unicode="&#x1fa;" horiz-adv-x="1617" 
d="M565 1526q0 92 72 154.5t172 62.5t172 -62.5t72 -154.5q0 -104 -90 -168l593 -1358h-266l-145 346h-678l-148 -346h-258l592 1358q-88 62 -88 168zM559 569h494l-248 574zM696 1800l240 264l223 -100l-268 -164h-195zM678 1526q0 -51 36 -85t95 -34t96 34.5t37 84.5
q0 52 -37 85.5t-96 33.5t-95 -33.5t-36 -85.5z" />
    <glyph glyph-name="aringacute" unicode="&#x1fb;" horiz-adv-x="1202" 
d="M502 1739l225 282l221 -100l-258 -182h-188zM1063 0h-246v133q-131 -156 -350 -156q-105 0 -191 37t-140 114t-54 183v4q0 174 120 264.5t318 90.5q159 0 299 -45v20q0 113 -68.5 172.5t-197.5 59.5q-146 0 -309 -68l-68 199q100 46 193.5 68t218.5 22q238 0 356.5 -118
t118.5 -339v-641zM823 391v62q-108 43 -248 43q-116 0 -181.5 -45t-65.5 -123v-4q0 -75 59 -117.5t150 -42.5q125 0 205.5 62.5t80.5 164.5zM365 1444q0 94 69.5 161.5t167.5 67.5t168 -67.5t70 -161.5t-70 -162t-168 -68t-167.5 68t-69.5 162zM465 1444q0 -57 40 -97
t97 -40t97 40t40 97t-40 97t-97 40t-97 -40t-40 -97z" />
    <glyph glyph-name="AEacute" unicode="&#x1fc;" horiz-adv-x="2140" 
d="M1171 1552l230 297l225 -98l-262 -199h-193zM25 0l800 1434h1190v-226h-766v-372h674v-226h-674v-385h776v-225h-1028v346h-522l-190 -346h-260zM596 569h401v645h-41z" />
    <glyph glyph-name="aeacute" unicode="&#x1fd;" horiz-adv-x="1949" 
d="M868 1219l213 335l226 -100l-252 -235h-187zM492 -23q-114 0 -205.5 37t-148 114t-56.5 183v4q0 173 119.5 264t314.5 91q157 0 297 -45v20q0 232 -264 232q-142 0 -305 -68l-68 199q99 45 193 67.5t215 22.5q134 0 232 -46t147 -132q141 184 378 184q122 0 221 -47
t161.5 -127.5t96 -185t33.5 -222.5q0 -44 -2 -69h-794q23 -131 105.5 -203t203.5 -72q89 0 157.5 31.5t137.5 97.5l145 -129q-172 -203 -444 -203q-126 0 -235 49t-183 136q-225 -183 -452 -183zM1053 616h557q-13 124 -85 204.5t-190 80.5q-115 0 -189.5 -77.5
t-92.5 -207.5zM532 164q168 0 320 139q-31 81 -39 156q-101 37 -242 37q-115 0 -179 -45t-64 -123v-4q0 -76 57 -118t147 -42z" />
    <glyph glyph-name="Oslashacute" unicode="&#x1fe;" horiz-adv-x="1740" 
d="M868 -25q-237 0 -417 123l-99 -108h-248l203 227q-90 98 -138 226t-48 270v4q0 149 56 284.5t154 236.5t239 160.5t302 59.5q238 0 418 -123l99 109h247l-202 -230q91 -98 138.5 -225t47.5 -268v-4q0 -149 -56.5 -285t-154 -236.5t-239 -160.5t-302.5 -60zM475 412
l655 737q-116 82 -262 82q-140 0 -252.5 -69t-173.5 -185t-61 -256v-4q0 -174 94 -305zM872 203q140 0 252.5 69t174 185t61.5 256v4q0 174 -94 305l-656 -737q116 -82 262 -82zM768 1573l229 297l226 -98l-262 -199h-193z" />
    <glyph glyph-name="oslashacute" unicode="&#x1ff;" horiz-adv-x="1345" 
d="M670 -25q-169 0 -310 88l-69 -73h-225l163 182q-133 155 -133 363v4q0 153 74.5 282.5t208 206t295.5 76.5q168 0 309 -88l72 78h225q-58 -67 -59 -68q-9 -10 -49 -54.5t-58 -64.5q135 -147 135 -364v-4q0 -113 -44 -216.5t-120 -180t-184.5 -122t-230.5 -45.5zM389 352
l447 492q-74 49 -166 49q-148 0 -240 -101.5t-92 -248.5v-4q0 -107 51 -187zM674 186q149 0 241.5 101.5t92.5 247.5v4q0 96 -52 188l-448 -494q71 -47 166 -47zM573 1219l213 335l226 -100l-252 -235h-187z" />
    <glyph glyph-name="Scommaaccent" unicode="&#x218;" horiz-adv-x="1310" 
d="M526 -563l-16 80q76 11 111.5 45t31.5 94h-110v207h241v-176q0 -125 -64 -184.5t-194 -65.5zM686 -20q-346 0 -598 229l152 180q109 -95 215.5 -140.5t236.5 -45.5q117 0 185.5 49t68.5 131v4q0 53 -24.5 89t-96 68.5t-202.5 61.5q-123 29 -205 61t-147 81t-95.5 119.5
t-30.5 166.5v4q0 184 137.5 300t352.5 116q294 0 520 -180l-135 -191q-202 148 -389 148q-108 0 -171 -48t-63 -122v-4q0 -58 28.5 -95t100 -67t211.5 -64q119 -31 200.5 -65t142.5 -83t89.5 -115.5t28.5 -155.5v-4q0 -199 -141 -313.5t-371 -114.5z" />
    <glyph glyph-name="scommaaccent" unicode="&#x219;" horiz-adv-x="1026" 
d="M381 -557l-16 80q76 11 111.5 45t31.5 94h-111v207h242v-176q0 -125 -64 -184.5t-194 -65.5zM526 -20q-119 0 -238 41t-220 120l110 168q177 -133 354 -133q79 0 123.5 31.5t44.5 85.5v4q0 28 -16.5 50t-52 39.5t-68 29t-87.5 28.5q-11 3 -17 5q-56 15 -97 29.5t-89.5 41
t-79 58t-51.5 80t-21 108.5v4q0 150 109.5 240t275.5 90q102 0 206 -32.5t191 -90.5l-98 -176q-168 102 -305 102q-71 0 -111.5 -30t-40.5 -78v-4q0 -26 18.5 -48.5t59 -41.5t73.5 -31t93 -31q56 -18 96 -33t88.5 -42.5t79 -58.5t51.5 -78t21 -103v-5q0 -164 -112.5 -251.5
t-289.5 -87.5z" />
    <glyph glyph-name="schwa" unicode="&#x259;" horiz-adv-x="1236" 
d="M586 1106q155 0 281 -70t200 -198.5t74 -292.5v-4q0 -155 -67 -283.5t-189 -204.5t-273 -76q-101 0 -186 30.5t-145.5 84.5t-103 127.5t-63 159.5t-20.5 180q0 20 4 70h795q-20 131 -103.5 202.5t-207.5 71.5q-89 0 -156 -31.5t-137 -97.5l-146 129q172 203 443 203z
M895 465h-555q13 -126 84.5 -205.5t189.5 -79.5q114 0 188.5 77.5t92.5 207.5z" />
    <glyph glyph-name="circumflex" unicode="&#x2c6;" 
d="M160 1219l237 301h230l239 -301h-196l-160 137l-158 -137h-192z" />
    <glyph glyph-name="caron" unicode="&#x2c7;" 
d="M866 1520l-239 -301h-230l-237 301h196l158 -138l160 138h192z" />
    <glyph glyph-name="breve" unicode="&#x2d8;" 
d="M512 1214q-150 0 -245 79t-105 218h170q42 -125 180 -125t180 125h172q-12 -139 -107 -218t-245 -79z" />
    <glyph glyph-name="dotaccent" unicode="&#x2d9;" 
d="M383 1219v243h258v-243h-258z" />
    <glyph glyph-name="ring" unicode="&#x2da;" 
d="M274 1444q0 94 70 161.5t168 67.5t168 -67.5t70 -161.5t-70 -162t-168 -68t-168 68t-70 162zM375 1444q0 -57 40 -97t97 -40t97 40t40 97t-40 97t-97 40t-97 -40t-40 -97z" />
    <glyph glyph-name="ogonek" unicode="&#x2db;" 
d="M709 -217v-119q-157 -16 -246.5 34t-89.5 134q0 92 106 193l166 -11q-84 -76 -84 -143q0 -88 148 -88z" />
    <glyph glyph-name="tilde" unicode="&#x2dc;" 
d="M262 1198l-137 43q38 131 89 192.5t140 61.5q63 0 163 -41t132 -41q42 0 65 22.5t48 80.5l137 -41q-38 -133 -89 -194.5t-140 -61.5q-62 0 -163 40.5t-132 40.5q-42 0 -65 -22.5t-48 -79.5z" />
    <glyph glyph-name="hungarumlaut" unicode="&#x2dd;" 
d="M477 1219l215 335l217 -100l-252 -235h-180zM129 1219l211 335l217 -100l-248 -235h-180z" />
    <glyph glyph-name="commaaccent" unicode="&#x326;" 
d="M375 -557l-17 80q76 11 112 45.5t32 93.5h-111v207h242v-176q0 -125 -64 -184.5t-194 -65.5z" />
    <glyph glyph-name="Wgrave" unicode="&#x1e80;" horiz-adv-x="2285" 
d="M1012 1849l231 -297h-194l-261 199zM573 -10l-499 1444h272l342 -1063l352 1067h213l353 -1067l342 1063h264l-500 -1444h-217l-352 1030l-352 -1030h-218z" />
    <glyph glyph-name="wgrave" unicode="&#x1e81;" horiz-adv-x="1763" 
d="M416 -8l-350 1089h253l218 -741l239 745h211l242 -745l221 741h248l-355 -1089h-221l-241 739l-244 -739h-221zM793 1219l-252 235l225 100l213 -335h-186z" />
    <glyph glyph-name="Wacute" unicode="&#x1e82;" horiz-adv-x="2285" 
d="M1040 1552l230 297l225 -98l-262 -199h-193zM573 -10l-499 1444h272l342 -1063l352 1067h213l353 -1067l342 1063h264l-500 -1444h-217l-352 1030l-352 -1030h-218z" />
    <glyph glyph-name="wacute" unicode="&#x1e83;" horiz-adv-x="1763" 
d="M780 1219l213 335l226 -100l-252 -235h-187zM416 -8l-350 1089h253l218 -741l239 745h211l242 -745l221 741h248l-355 -1089h-221l-241 739l-244 -739h-221z" />
    <glyph glyph-name="Wdieresis" unicode="&#x1e84;" horiz-adv-x="2285" 
d="M1227 1552v230h254v-230h-254zM805 1552v230h256v-230h-256zM573 -10l-499 1444h272l342 -1063l352 1067h213l353 -1067l342 1063h264l-500 -1444h-217l-352 1030l-352 -1030h-218z" />
    <glyph glyph-name="wdieresis" unicode="&#x1e85;" horiz-adv-x="1763" 
d="M954 1219v243h252v-243h-252zM555 1219v243h252v-243h-252zM416 -8l-350 1089h253l218 -741l239 745h211l242 -745l221 741h248l-355 -1089h-221l-241 739l-244 -739h-221z" />
    <glyph glyph-name="uni1EA0" unicode="&#x1ea0;" horiz-adv-x="1617" 
d="M678 -393v256h229v-256h-229zM61 0l631 1444h234l630 -1444h-266l-145 346h-678l-148 -346h-258zM559 569h494l-248 574z" />
    <glyph glyph-name="uni1EA1" unicode="&#x1ea1;" horiz-adv-x="1202" 
d="M489 -393v256h230v-256h-230zM1063 0h-246v133q-131 -156 -350 -156q-105 0 -191 37t-140 114t-54 183v4q0 174 120 264.5t318 90.5q159 0 299 -45v20q0 113 -68.5 172.5t-197.5 59.5q-146 0 -309 -68l-68 199q100 46 193.5 68t218.5 22q238 0 356.5 -118t118.5 -339
v-641zM823 391v62q-108 43 -248 43q-116 0 -181.5 -45t-65.5 -123v-4q0 -75 59 -117.5t150 -42.5q125 0 205.5 62.5t80.5 164.5z" />
    <glyph glyph-name="uni1EA2" unicode="&#x1ea2;" horiz-adv-x="1617" 
d="M756 1567l-15 170q64 6 96.5 30.5t32.5 77.5q0 17 -16 34t-47 17q-54 0 -86 -75l-135 63q22 49 52 84t62 51.5t59 23.5t54 7q91 0 154 -58.5t63 -144.5q0 -146 -153 -200l-11 -80h-110zM61 0l631 1444h234l630 -1444h-266l-145 346h-678l-148 -346h-258zM559 569h494
l-248 574z" />
    <glyph glyph-name="uni1EA3" unicode="&#x1ea3;" horiz-adv-x="1202" 
d="M594 1219l-14 170q64 6 96.5 30.5t32.5 77.5q0 17 -16 34t-48 17q-54 0 -86 -75l-135 63q22 49 52 84t62 51.5t59 23.5t54 7q91 0 154 -58.5t63 -144.5q0 -147 -153 -201l-10 -79h-111zM1063 0h-246v133q-131 -156 -350 -156q-105 0 -191 37t-140 114t-54 183v4
q0 174 120 264.5t318 90.5q159 0 299 -45v20q0 113 -68.5 172.5t-197.5 59.5q-146 0 -309 -68l-68 199q100 46 193.5 68t218.5 22q238 0 356.5 -118t118.5 -339v-641zM823 391v62q-108 43 -248 43q-116 0 -181.5 -45t-65.5 -123v-4q0 -75 59 -117.5t150 -42.5
q125 0 205.5 62.5t80.5 164.5z" />
    <glyph glyph-name="uni1EA4" unicode="&#x1ea4;" horiz-adv-x="1617" 
d="M61 0l631 1444h234l630 -1444h-266l-145 346h-678l-148 -346h-258zM559 569h494l-248 574zM457 1565l237 301h230l239 -301h-196l-160 137l-158 -137h-192zM1067 1790l213 336l225 -101l-252 -235h-186z" />
    <glyph glyph-name="uni1EA5" unicode="&#x1ea5;" horiz-adv-x="1202" 
d="M1063 0h-246v133q-131 -156 -350 -156q-105 0 -191 37t-140 114t-54 183v4q0 174 120 264.5t318 90.5q159 0 299 -45v20q0 113 -68.5 172.5t-197.5 59.5q-146 0 -309 -68l-68 199q100 46 193.5 68t218.5 22q238 0 356.5 -118t118.5 -339v-641zM823 391v62
q-108 43 -248 43q-116 0 -181.5 -45t-65.5 -123v-4q0 -75 59 -117.5t150 -42.5q125 0 205.5 62.5t80.5 164.5zM264 1219l238 301h229l240 -301h-197l-160 137l-157 -137h-193zM874 1444l213 336l226 -101l-252 -235h-187z" />
    <glyph glyph-name="uni1EA6" unicode="&#x1ea6;" horiz-adv-x="1617" 
d="M61 0l631 1444h234l630 -1444h-266l-145 346h-678l-148 -346h-258zM559 569h494l-248 574zM457 1565l237 301h230l239 -301h-196l-160 137l-158 -137h-192zM1139 1790l-252 235l225 101l213 -336h-186z" />
    <glyph glyph-name="uni1EA7" unicode="&#x1ea7;" horiz-adv-x="1202" 
d="M1063 0h-246v133q-131 -156 -350 -156q-105 0 -191 37t-140 114t-54 183v4q0 174 120 264.5t318 90.5q159 0 299 -45v20q0 113 -68.5 172.5t-197.5 59.5q-146 0 -309 -68l-68 199q100 46 193.5 68t218.5 22q238 0 356.5 -118t118.5 -339v-641zM823 391v62
q-108 43 -248 43q-116 0 -181.5 -45t-65.5 -123v-4q0 -75 59 -117.5t150 -42.5q125 0 205.5 62.5t80.5 164.5zM264 1219l238 301h229l240 -301h-197l-160 137l-157 -137h-193zM946 1444l-252 235l226 101l213 -336h-187z" />
    <glyph glyph-name="uni1EA8" unicode="&#x1ea8;" horiz-adv-x="1617" 
d="M61 0l631 1444h234l630 -1444h-266l-145 346h-678l-148 -346h-258zM559 569h494l-248 574zM457 1565l237 301h230l239 -301h-196l-160 137l-158 -137h-192zM1108 1739l-14 170q64 6 96.5 30.5t32.5 77.5q0 17 -16 34t-48 17q-54 0 -86 -75l-135 63q22 49 52 84t62 51.5
t59 23.5t54 7q91 0 154 -58.5t63 -144.5q0 -146 -153 -200l-10 -80h-111z" />
    <glyph glyph-name="uni1EA9" unicode="&#x1ea9;" horiz-adv-x="1202" 
d="M1063 0h-246v133q-131 -156 -350 -156q-105 0 -191 37t-140 114t-54 183v4q0 174 120 264.5t318 90.5q159 0 299 -45v20q0 113 -68.5 172.5t-197.5 59.5q-146 0 -309 -68l-68 199q100 46 193.5 68t218.5 22q238 0 356.5 -118t118.5 -339v-641zM823 391v62
q-108 43 -248 43q-116 0 -181.5 -45t-65.5 -123v-4q0 -75 59 -117.5t150 -42.5q125 0 205.5 62.5t80.5 164.5zM264 1219l238 301h229l240 -301h-197l-160 137l-157 -137h-193zM915 1393l-14 170q64 6 96.5 30.5t32.5 77.5q0 17 -16 34t-47 17q-54 0 -86 -75l-136 63
q22 49 52 84t62 51.5t59.5 23.5t54.5 7q91 0 154 -58.5t63 -144.5q0 -145 -154 -200l-10 -80h-111z" />
    <glyph glyph-name="uni1EAA" unicode="&#x1eaa;" horiz-adv-x="1617" 
d="M61 0l631 1444h234l630 -1444h-266l-145 346h-678l-148 -346h-258zM559 569h494l-248 574zM457 1565l237 301h230l239 -301h-196l-160 137l-158 -137h-192zM582 1931l-127 39q31 117 79 174.5t130 57.5q58 0 154 -36t124 -36q39 0 59.5 19.5t42.5 68.5l127 -37
q-33 -118 -79.5 -173.5t-128.5 -55.5q-57 0 -153 35.5t-124 35.5q-39 0 -60.5 -20.5t-43.5 -71.5z" />
    <glyph glyph-name="uni1EAB" unicode="&#x1eab;" horiz-adv-x="1202" 
d="M1063 0h-246v133q-131 -156 -350 -156q-105 0 -191 37t-140 114t-54 183v4q0 174 120 264.5t318 90.5q159 0 299 -45v20q0 113 -68.5 172.5t-197.5 59.5q-146 0 -309 -68l-68 199q100 46 193.5 68t218.5 22q238 0 356.5 -118t118.5 -339v-641zM823 391v62
q-108 43 -248 43q-116 0 -181.5 -45t-65.5 -123v-4q0 -75 59 -117.5t150 -42.5q125 0 205.5 62.5t80.5 164.5zM264 1219l238 301h229l240 -301h-197l-160 137l-157 -137h-193zM389 1585l-127 39q31 117 79 174t130 57q58 0 154.5 -35.5t124.5 -35.5q39 0 59.5 19.5
t42.5 68.5l127 -37q-33 -117 -80 -173t-129 -56q-57 0 -152.5 35.5t-123.5 35.5q-39 0 -61 -21t-44 -71z" />
    <glyph glyph-name="uni1EAC" unicode="&#x1eac;" horiz-adv-x="1617" 
d="M61 0l631 1444h234l630 -1444h-266l-145 346h-678l-148 -346h-258zM559 569h494l-248 574zM457 1565l237 301h230l239 -301h-196l-160 137l-158 -137h-192zM678 -393v256h229v-256h-229z" />
    <glyph glyph-name="uni1EAD" unicode="&#x1ead;" horiz-adv-x="1202" 
d="M1063 0h-246v133q-131 -156 -350 -156q-105 0 -191 37t-140 114t-54 183v4q0 174 120 264.5t318 90.5q159 0 299 -45v20q0 113 -68.5 172.5t-197.5 59.5q-146 0 -309 -68l-68 199q100 46 193.5 68t218.5 22q238 0 356.5 -118t118.5 -339v-641zM823 391v62
q-108 43 -248 43q-116 0 -181.5 -45t-65.5 -123v-4q0 -75 59 -117.5t150 -42.5q125 0 205.5 62.5t80.5 164.5zM264 1219l238 301h229l240 -301h-197l-160 137l-157 -137h-193zM489 -393v256h230v-256h-230z" />
    <glyph glyph-name="uni1EAE" unicode="&#x1eae;" horiz-adv-x="1617" 
d="M61 0l631 1444h234l630 -1444h-266l-145 346h-678l-148 -346h-258zM559 569h494l-248 574zM809 1567q-150 0 -245 79t-105 218h170q42 -125 180 -125t180 125h172q-12 -139 -107 -218t-245 -79zM690 1866l213 336l225 -101l-251 -235h-187z" />
    <glyph glyph-name="uni1EAF" unicode="&#x1eaf;" horiz-adv-x="1202" 
d="M1063 0h-246v133q-131 -156 -350 -156q-105 0 -191 37t-140 114t-54 183v4q0 174 120 264.5t318 90.5q159 0 299 -45v20q0 113 -68.5 172.5t-197.5 59.5q-146 0 -309 -68l-68 199q100 46 193.5 68t218.5 22q238 0 356.5 -118t118.5 -339v-641zM823 391v62
q-108 43 -248 43q-116 0 -181.5 -45t-65.5 -123v-4q0 -75 59 -117.5t150 -42.5q125 0 205.5 62.5t80.5 164.5zM649 1214q-150 0 -245 79t-105 218h170q42 -125 180 -125t180 125h172q-12 -139 -107 -218t-245 -79zM530 1513l213 336l226 -100l-252 -236h-187z" />
    <glyph glyph-name="uni1EB0" unicode="&#x1eb0;" horiz-adv-x="1617" 
d="M61 0l631 1444h234l630 -1444h-266l-145 346h-678l-148 -346h-258zM559 569h494l-248 574zM809 1567q-150 0 -245 79t-105 218h170q42 -125 180 -125t180 125h172q-12 -139 -107 -218t-245 -79zM748 1866l-252 235l225 101l213 -336h-186z" />
    <glyph glyph-name="uni1EB1" unicode="&#x1eb1;" horiz-adv-x="1202" 
d="M1063 0h-246v133q-131 -156 -350 -156q-105 0 -191 37t-140 114t-54 183v4q0 174 120 264.5t318 90.5q159 0 299 -45v20q0 113 -68.5 172.5t-197.5 59.5q-146 0 -309 -68l-68 199q100 46 193.5 68t218.5 22q238 0 356.5 -118t118.5 -339v-641zM823 391v62
q-108 43 -248 43q-116 0 -181.5 -45t-65.5 -123v-4q0 -75 59 -117.5t150 -42.5q125 0 205.5 62.5t80.5 164.5zM649 1214q-150 0 -245 79t-105 218h170q42 -125 180 -125t180 125h172q-12 -139 -107 -218t-245 -79zM588 1513l-252 236l225 100l213 -336h-186z" />
    <glyph glyph-name="uni1EB2" unicode="&#x1eb2;" horiz-adv-x="1617" 
d="M61 0l631 1444h234l630 -1444h-266l-145 346h-678l-148 -346h-258zM559 569h494l-248 574zM809 1567q-150 0 -245 79t-105 218h170q42 -125 180 -125t180 125h172q-12 -139 -107 -218t-245 -79zM756 1849l-15 170q64 6 96.5 31t32.5 78q0 17 -16 34t-47 17q-54 0 -86 -76
l-135 64q22 49 52 84t62 51.5t59 23.5t54 7q91 0 154 -58.5t63 -144.5q0 -147 -153 -201l-11 -80h-110z" />
    <glyph glyph-name="uni1EB3" unicode="&#x1eb3;" horiz-adv-x="1202" 
d="M1063 0h-246v133q-131 -156 -350 -156q-105 0 -191 37t-140 114t-54 183v4q0 174 120 264.5t318 90.5q159 0 299 -45v20q0 113 -68.5 172.5t-197.5 59.5q-146 0 -309 -68l-68 199q100 46 193.5 68t218.5 22q238 0 356.5 -118t118.5 -339v-641zM823 391v62
q-108 43 -248 43q-116 0 -181.5 -45t-65.5 -123v-4q0 -75 59 -117.5t150 -42.5q125 0 205.5 62.5t80.5 164.5zM649 1214q-150 0 -245 79t-105 218h170q42 -125 180 -125t180 125h172q-12 -139 -107 -218t-245 -79zM596 1497l-14 170q64 6 96.5 31t32.5 78q0 17 -16 34
t-48 17q-54 0 -86 -76l-135 64q22 49 51.5 84t62 51.5t59.5 23t54 6.5q91 0 154 -58t63 -144q0 -147 -153 -201l-10 -80h-111z" />
    <glyph glyph-name="uni1EB4" unicode="&#x1eb4;" horiz-adv-x="1617" 
d="M61 0l631 1444h234l630 -1444h-266l-145 346h-678l-148 -346h-258zM559 569h494l-248 574zM809 1567q-150 0 -245 79t-105 218h170q42 -125 180 -125t180 125h172q-12 -139 -107 -218t-245 -79zM573 1937l-127 39q31 119 80 177.5t133 58.5q57 0 153 -38t126 -38
q39 0 60.5 20.5t43.5 71.5l132 -37q-34 -120 -83 -177.5t-133 -57.5q-56 0 -153 37t-125 37q-39 0 -60 -20.5t-47 -72.5z" />
    <glyph glyph-name="uni1EB5" unicode="&#x1eb5;" horiz-adv-x="1202" 
d="M1063 0h-246v133q-131 -156 -350 -156q-105 0 -191 37t-140 114t-54 183v4q0 174 120 264.5t318 90.5q159 0 299 -45v20q0 113 -68.5 172.5t-197.5 59.5q-146 0 -309 -68l-68 199q100 46 193.5 68t218.5 22q238 0 356.5 -118t118.5 -339v-641zM823 391v62
q-108 43 -248 43q-116 0 -181.5 -45t-65.5 -123v-4q0 -75 59 -117.5t150 -42.5q125 0 205.5 62.5t80.5 164.5zM649 1214q-150 0 -245 79t-105 218h170q42 -125 180 -125t180 125h172q-12 -139 -107 -218t-245 -79zM414 1585l-127 39q31 119 80 177.5t133 58.5q56 0 152 -38
t126 -38q39 0 61 21t44 71l131 -37q-34 -120 -82.5 -177.5t-132.5 -57.5q-55 0 -153 36.5t-126 36.5q-39 0 -59.5 -20t-46.5 -72z" />
    <glyph glyph-name="uni1EB6" unicode="&#x1eb6;" horiz-adv-x="1617" 
d="M61 0l631 1444h234l630 -1444h-266l-145 346h-678l-148 -346h-258zM559 569h494l-248 574zM809 1567q-150 0 -245 79t-105 218h170q42 -125 180 -125t180 125h172q-12 -139 -107 -218t-245 -79zM678 -393v256h229v-256h-229z" />
    <glyph glyph-name="uni1EB7" unicode="&#x1eb7;" horiz-adv-x="1202" 
d="M1063 0h-246v133q-131 -156 -350 -156q-105 0 -191 37t-140 114t-54 183v4q0 174 120 264.5t318 90.5q159 0 299 -45v20q0 113 -68.5 172.5t-197.5 59.5q-146 0 -309 -68l-68 199q100 46 193.5 68t218.5 22q238 0 356.5 -118t118.5 -339v-641zM823 391v62
q-108 43 -248 43q-116 0 -181.5 -45t-65.5 -123v-4q0 -75 59 -117.5t150 -42.5q125 0 205.5 62.5t80.5 164.5zM649 1214q-150 0 -245 79t-105 218h170q42 -125 180 -125t180 125h172q-12 -139 -107 -218t-245 -79zM489 -393v256h230v-256h-230z" />
    <glyph glyph-name="uni1EB8" unicode="&#x1eb8;" horiz-adv-x="1372" 
d="M600 -393v256h229v-256h-229zM184 0v1434h1063v-226h-811v-372h719v-226h-719v-385h821v-225h-1073z" />
    <glyph glyph-name="uni1EB9" unicode="&#x1eb9;" horiz-adv-x="1236" 
d="M508 -393v256h229v-256h-229zM651 -25q-155 0 -281 70t-200 199t-74 293v4q0 154 67 283t189 204.5t273 75.5q101 0 186 -30.5t145.5 -84.5t103 -127.5t63 -159.5t20.5 -180q0 -19 -4 -69h-795q20 -131 103.5 -203t207.5 -72q89 0 156 31.5t137 97.5l146 -129
q-172 -203 -443 -203zM342 616h555q-13 125 -84.5 205t-189.5 80q-114 0 -188.5 -77.5t-92.5 -207.5z" />
    <glyph glyph-name="uni1EBA" unicode="&#x1eba;" horiz-adv-x="1372" 
d="M672 1567l-15 170q64 6 96.5 30.5t32.5 77.5q0 17 -16 34t-47 17q-54 0 -86 -75l-135 63q22 49 52 84t62 51.5t59 23.5t54 7q91 0 154 -58.5t63 -144.5q0 -146 -153 -200l-11 -80h-110zM184 0v1434h1063v-226h-811v-372h719v-226h-719v-385h821v-225h-1073z" />
    <glyph glyph-name="uni1EBB" unicode="&#x1ebb;" horiz-adv-x="1236" 
d="M598 1219l-14 170q64 6 96.5 30.5t32.5 77.5q0 17 -16 34t-48 17q-54 0 -86 -75l-135 63q22 49 52 84t62 51.5t59 23.5t54 7q91 0 154 -58.5t63 -144.5q0 -147 -153 -201l-10 -79h-111zM651 -25q-155 0 -281 70t-200 199t-74 293v4q0 154 67 283t189 204.5t273 75.5
q101 0 186 -30.5t145.5 -84.5t103 -127.5t63 -159.5t20.5 -180q0 -19 -4 -69h-795q20 -131 103.5 -203t207.5 -72q89 0 156 31.5t137 97.5l146 -129q-172 -203 -443 -203zM342 616h555q-13 125 -84.5 205t-189.5 80q-114 0 -188.5 -77.5t-92.5 -207.5z" />
    <glyph glyph-name="uni1EBC" unicode="&#x1ebc;" horiz-adv-x="1372" 
d="M184 0v1434h1063v-226h-811v-372h719v-226h-719v-385h821v-225h-1073zM469 1550l-137 43q38 131 89 192.5t140 61.5q63 0 163 -41t132 -41q42 0 65 22.5t48 80.5l137 -41q-38 -133 -89 -194.5t-140 -61.5q-62 0 -163 41t-132 41q-42 0 -65 -22.5t-48 -80.5z" />
    <glyph glyph-name="uni1EBD" unicode="&#x1ebd;" horiz-adv-x="1236" 
d="M651 -25q-155 0 -281 70t-200 199t-74 293v4q0 154 67 283t189 204.5t273 75.5q101 0 186 -30.5t145.5 -84.5t103 -127.5t63 -159.5t20.5 -180q0 -19 -4 -69h-795q20 -131 103.5 -203t207.5 -72q89 0 156 31.5t137 97.5l146 -129q-172 -203 -443 -203zM342 616h555
q-13 125 -84.5 205t-189.5 80q-114 0 -188.5 -77.5t-92.5 -207.5zM383 1198l-137 43q38 131 89 192.5t140 61.5q63 0 163 -41t132 -41q42 0 65 22.5t48 80.5l137 -41q-38 -133 -89 -194.5t-140 -61.5q-62 0 -163 40.5t-132 40.5q-42 0 -65 -22.5t-48 -79.5z" />
    <glyph glyph-name="uni1EBE" unicode="&#x1ebe;" horiz-adv-x="1372" 
d="M184 0v1434h1063v-226h-811v-372h719v-226h-719v-385h821v-225h-1073zM367 1552l237 301h230l239 -301h-196l-160 138l-158 -138h-192zM977 1778l213 336l225 -101l-252 -235h-186z" />
    <glyph glyph-name="uni1EBF" unicode="&#x1ebf;" horiz-adv-x="1236" 
d="M268 1219l238 301h229l240 -301h-197l-160 137l-157 -137h-193zM651 -25q-155 0 -281 70t-200 199t-74 293v4q0 154 67 283t189 204.5t273 75.5q101 0 186 -30.5t145.5 -84.5t103 -127.5t63 -159.5t20.5 -180q0 -19 -4 -69h-795q20 -131 103.5 -203t207.5 -72
q89 0 156 31.5t137 97.5l146 -129q-172 -203 -443 -203zM342 616h555q-13 125 -84.5 205t-189.5 80q-114 0 -188.5 -77.5t-92.5 -207.5zM879 1444l213 336l225 -101l-252 -235h-186z" />
    <glyph glyph-name="uni1EC0" unicode="&#x1ec0;" horiz-adv-x="1372" 
d="M184 0v1434h1063v-226h-811v-372h719v-226h-719v-385h821v-225h-1073zM367 1552l237 301h230l239 -301h-196l-160 138l-158 -138h-192zM1049 1778l-252 235l225 101l213 -336h-186z" />
    <glyph glyph-name="uni1EC1" unicode="&#x1ec1;" horiz-adv-x="1236" 
d="M268 1219l238 301h229l240 -301h-197l-160 137l-157 -137h-193zM651 -25q-155 0 -281 70t-200 199t-74 293v4q0 154 67 283t189 204.5t273 75.5q101 0 186 -30.5t145.5 -84.5t103 -127.5t63 -159.5t20.5 -180q0 -19 -4 -69h-795q20 -131 103.5 -203t207.5 -72
q89 0 156 31.5t137 97.5l146 -129q-172 -203 -443 -203zM342 616h555q-13 125 -84.5 205t-189.5 80q-114 0 -188.5 -77.5t-92.5 -207.5zM950 1444l-252 235l226 101l213 -336h-187z" />
    <glyph glyph-name="uni1EC2" unicode="&#x1ec2;" horiz-adv-x="1372" 
d="M184 0v1434h1063v-226h-811v-372h719v-226h-719v-385h821v-225h-1073zM367 1552l237 301h230l239 -301h-196l-160 138l-158 -138h-192zM1018 1726l-14 170q64 6 96.5 31t32.5 78q0 17 -16 34t-48 17q-54 0 -86 -76l-135 64q22 49 52 84t62 51.5t59 23.5t54 7
q91 0 154 -58.5t63 -144.5q0 -147 -153 -201l-11 -80h-110z" />
    <glyph glyph-name="uni1EC3" unicode="&#x1ec3;" horiz-adv-x="1236" 
d="M268 1219l238 301h229l240 -301h-197l-160 137l-157 -137h-193zM651 -25q-155 0 -281 70t-200 199t-74 293v4q0 154 67 283t189 204.5t273 75.5q101 0 186 -30.5t145.5 -84.5t103 -127.5t63 -159.5t20.5 -180q0 -19 -4 -69h-795q20 -131 103.5 -203t207.5 -72
q89 0 156 31.5t137 97.5l146 -129q-172 -203 -443 -203zM342 616h555q-13 125 -84.5 205t-189.5 80q-114 0 -188.5 -77.5t-92.5 -207.5zM920 1393l-15 170q64 6 96.5 30.5t32.5 77.5q0 17 -16 34t-47 17q-54 0 -86 -75l-135 63q22 49 52 84t62 51.5t59 23.5t54 7
q91 0 154 -58.5t63 -144.5q0 -145 -154 -200l-10 -80h-110z" />
    <glyph glyph-name="uni1EC4" unicode="&#x1ec4;" horiz-adv-x="1372" 
d="M184 0v1434h1063v-226h-811v-372h719v-226h-719v-385h821v-225h-1073zM367 1552l237 301h230l239 -301h-196l-160 138l-158 -138h-192zM492 1919l-127 39q31 117 78.5 174t129.5 57q58 0 154.5 -35.5t124.5 -35.5q39 0 59.5 19.5t42.5 68.5l127 -37q-33 -118 -80 -174
t-129 -56q-57 0 -152.5 36t-123.5 36q-39 0 -60.5 -20.5t-43.5 -71.5z" />
    <glyph glyph-name="uni1EC5" unicode="&#x1ec5;" horiz-adv-x="1236" 
d="M268 1219l238 301h229l240 -301h-197l-160 137l-157 -137h-193zM651 -25q-155 0 -281 70t-200 199t-74 293v4q0 154 67 283t189 204.5t273 75.5q101 0 186 -30.5t145.5 -84.5t103 -127.5t63 -159.5t20.5 -180q0 -19 -4 -69h-795q20 -131 103.5 -203t207.5 -72
q89 0 156 31.5t137 97.5l146 -129q-172 -203 -443 -203zM342 616h555q-13 125 -84.5 205t-189.5 80q-114 0 -188.5 -77.5t-92.5 -207.5zM393 1585l-127 39q31 117 79 174t130 57q58 0 154.5 -35.5t124.5 -35.5q39 0 59.5 19.5t42.5 68.5l127 -37q-33 -117 -80 -173t-129 -56
q-57 0 -152.5 35.5t-123.5 35.5q-39 0 -61 -21t-44 -71z" />
    <glyph glyph-name="uni1EC6" unicode="&#x1ec6;" horiz-adv-x="1372" 
d="M184 0v1434h1063v-226h-811v-372h719v-226h-719v-385h821v-225h-1073zM367 1552l237 301h230l239 -301h-196l-160 138l-158 -138h-192zM600 -393v256h229v-256h-229z" />
    <glyph glyph-name="uni1EC7" unicode="&#x1ec7;" horiz-adv-x="1236" 
d="M268 1219l238 301h229l240 -301h-197l-160 137l-157 -137h-193zM651 -25q-155 0 -281 70t-200 199t-74 293v4q0 154 67 283t189 204.5t273 75.5q101 0 186 -30.5t145.5 -84.5t103 -127.5t63 -159.5t20.5 -180q0 -19 -4 -69h-795q20 -131 103.5 -203t207.5 -72
q89 0 156 31.5t137 97.5l146 -129q-172 -203 -443 -203zM342 616h555q-13 125 -84.5 205t-189.5 80q-114 0 -188.5 -77.5t-92.5 -207.5zM508 -393v256h229v-256h-229z" />
    <glyph glyph-name="uni1EC8" unicode="&#x1ec8;" horiz-adv-x="649" 
d="M272 1567l-14 170q64 6 96.5 30.5t32.5 77.5q0 17 -16 34t-47 17q-54 0 -86 -75l-136 63q22 49 52 84t62 51.5t59.5 23.5t54.5 7q91 0 154 -58.5t63 -144.5q0 -145 -154 -200l-10 -80h-111zM199 0v1434h252v-1434h-252z" />
    <glyph glyph-name="uni1EC9" unicode="&#x1ec9;" horiz-adv-x="585" 
d="M170 0v1081h248v-1081h-248zM242 1219l-15 170q64 6 96.5 30.5t32.5 77.5q0 17 -16 34t-47 17q-54 0 -86 -75l-135 63q22 49 52 84t62 51.5t59 23.5t54 7q91 0 154 -58.5t63 -144.5q0 -146 -154 -201l-10 -79h-110z" />
    <glyph glyph-name="uni1ECA" unicode="&#x1eca;" horiz-adv-x="649" 
d="M213 -393v256h229v-256h-229zM199 0v1434h252v-1434h-252z" />
    <glyph glyph-name="uni1ECB" unicode="&#x1ecb;" horiz-adv-x="585" 
d="M182 -393v256h230v-256h-230zM160 1247v236h266v-236h-266zM170 0v1081h248v-1081h-248z" />
    <glyph glyph-name="uni1ECC" unicode="&#x1ecc;" horiz-adv-x="1740" 
d="M758 -393v256h229v-256h-229zM868 -25q-215 0 -387 100.5t-266 268.5t-94 369v4q0 149 56 284.5t154 236.5t239 160.5t302 59.5t301.5 -58.5t238 -158.5t153 -235t55.5 -285v-4q0 -149 -56.5 -285t-154 -236.5t-239 -160.5t-302.5 -60zM872 207q139 0 250.5 68
t172.5 183.5t61 254.5v4q0 139 -61.5 255.5t-174 185.5t-252.5 69q-139 0 -250.5 -68t-172 -183.5t-60.5 -254.5v-4q0 -104 36 -197.5t99.5 -162.5t155 -109.5t196.5 -40.5z" />
    <glyph glyph-name="uni1ECD" unicode="&#x1ecd;" horiz-adv-x="1345" 
d="M555 -393v256h229v-256h-229zM670 -25q-121 0 -228.5 44.5t-183 120t-119 178.5t-43.5 217v4q0 153 74.5 282.5t208 206t295.5 76.5q163 0 295.5 -75.5t206 -204t73.5 -281.5v-4q0 -113 -44 -216.5t-120 -180t-184.5 -122t-230.5 -45.5zM674 190q148 0 237.5 100
t89.5 245v4q0 145 -93.5 246.5t-237.5 101.5q-146 0 -236 -99.5t-90 -244.5v-4q0 -143 95 -246t235 -103z" />
    <glyph glyph-name="uni1ECE" unicode="&#x1ece;" horiz-adv-x="1740" 
d="M868 -25q-215 0 -387 100.5t-266 268.5t-94 369v4q0 149 56 284.5t154 236.5t239 160.5t302 59.5t301.5 -58.5t238 -158.5t153 -235t55.5 -285v-4q0 -149 -56.5 -285t-154 -236.5t-239 -160.5t-302.5 -60zM872 207q139 0 250.5 68t172.5 183.5t61 254.5v4
q0 139 -61.5 255.5t-174 185.5t-252.5 69q-139 0 -250.5 -68t-172 -183.5t-60.5 -254.5v-4q0 -104 36 -197.5t99.5 -162.5t155 -109.5t196.5 -40.5zM819 1567l-14 170q64 6 96.5 30.5t32.5 77.5q0 17 -16 34t-48 17q-54 0 -86 -75l-135 63q22 49 52 84t62 51.5t59.5 23.5
t54.5 7q91 0 154 -58.5t63 -144.5q0 -145 -154 -200l-10 -80h-111z" />
    <glyph glyph-name="uni1ECF" unicode="&#x1ecf;" horiz-adv-x="1345" 
d="M670 -25q-121 0 -228.5 44.5t-183 120t-119 178.5t-43.5 217v4q0 153 74.5 282.5t208 206t295.5 76.5q163 0 295.5 -75.5t206 -204t73.5 -281.5v-4q0 -113 -44 -216.5t-120 -180t-184.5 -122t-230.5 -45.5zM674 190q148 0 237.5 100t89.5 245v4q0 145 -93.5 246.5
t-237.5 101.5q-146 0 -236 -99.5t-90 -244.5v-4q0 -143 95 -246t235 -103zM621 1219l-15 170q64 6 96.5 30.5t32.5 77.5q0 17 -16 34t-47 17q-54 0 -86 -75l-135 63q22 49 52 84t62 51.5t59 23.5t54 7q91 0 154 -58.5t63 -144.5q0 -146 -154 -201l-10 -79h-110z" />
    <glyph glyph-name="uni1ED0" unicode="&#x1ed0;" horiz-adv-x="1740" 
d="M868 -25q-215 0 -387 100.5t-266 268.5t-94 369v4q0 149 56 284.5t154 236.5t239 160.5t302 59.5t301.5 -58.5t238 -158.5t153 -235t55.5 -285v-4q0 -149 -56.5 -285t-154 -236.5t-239 -160.5t-302.5 -60zM872 207q139 0 250.5 68t172.5 183.5t61 254.5v4
q0 139 -61.5 255.5t-174 185.5t-252.5 69q-139 0 -250.5 -68t-172 -183.5t-60.5 -254.5v-4q0 -104 36 -197.5t99.5 -162.5t155 -109.5t196.5 -40.5zM518 1573l238 301h229l240 -301h-197l-160 137l-157 -137h-193zM1128 1798l213 336l226 -100l-252 -236h-187z" />
    <glyph glyph-name="uni1ED1" unicode="&#x1ed1;" horiz-adv-x="1345" 
d="M319 1219l238 301h229l240 -301h-197l-159 137l-158 -137h-193zM670 -25q-121 0 -228.5 44.5t-183 120t-119 178.5t-43.5 217v4q0 153 74.5 282.5t208 206t295.5 76.5q163 0 295.5 -75.5t206 -204t73.5 -281.5v-4q0 -113 -44 -216.5t-120 -180t-184.5 -122t-230.5 -45.5z
M674 190q148 0 237.5 100t89.5 245v4q0 145 -93.5 246.5t-237.5 101.5q-146 0 -236 -99.5t-90 -244.5v-4q0 -143 95 -246t235 -103zM930 1444l213 336l225 -101l-252 -235h-186z" />
    <glyph glyph-name="uni1ED2" unicode="&#x1ed2;" horiz-adv-x="1740" 
d="M868 -25q-215 0 -387 100.5t-266 268.5t-94 369v4q0 149 56 284.5t154 236.5t239 160.5t302 59.5t301.5 -58.5t238 -158.5t153 -235t55.5 -285v-4q0 -149 -56.5 -285t-154 -236.5t-239 -160.5t-302.5 -60zM872 207q139 0 250.5 68t172.5 183.5t61 254.5v4
q0 139 -61.5 255.5t-174 185.5t-252.5 69q-139 0 -250.5 -68t-172 -183.5t-60.5 -254.5v-4q0 -104 36 -197.5t99.5 -162.5t155 -109.5t196.5 -40.5zM518 1573l238 301h229l240 -301h-197l-160 137l-157 -137h-193zM1200 1796l-252 236l226 100l212 -336h-186z" />
    <glyph glyph-name="uni1ED3" unicode="&#x1ed3;" horiz-adv-x="1345" 
d="M319 1219l238 301h229l240 -301h-197l-159 137l-158 -137h-193zM670 -25q-121 0 -228.5 44.5t-183 120t-119 178.5t-43.5 217v4q0 153 74.5 282.5t208 206t295.5 76.5q163 0 295.5 -75.5t206 -204t73.5 -281.5v-4q0 -113 -44 -216.5t-120 -180t-184.5 -122t-230.5 -45.5z
M674 190q148 0 237.5 100t89.5 245v4q0 145 -93.5 246.5t-237.5 101.5q-146 0 -236 -99.5t-90 -244.5v-4q0 -143 95 -246t235 -103zM1001 1444l-251 235l225 101l213 -336h-187z" />
    <glyph glyph-name="uni1ED4" unicode="&#x1ed4;" horiz-adv-x="1740" 
d="M868 -25q-215 0 -387 100.5t-266 268.5t-94 369v4q0 149 56 284.5t154 236.5t239 160.5t302 59.5t301.5 -58.5t238 -158.5t153 -235t55.5 -285v-4q0 -149 -56.5 -285t-154 -236.5t-239 -160.5t-302.5 -60zM872 207q139 0 250.5 68t172.5 183.5t61 254.5v4
q0 139 -61.5 255.5t-174 185.5t-252.5 69q-139 0 -250.5 -68t-172 -183.5t-60.5 -254.5v-4q0 -104 36 -197.5t99.5 -162.5t155 -109.5t196.5 -40.5zM518 1573l238 301h229l240 -301h-197l-160 137l-157 -137h-193zM1169 1747l-14 170q64 6 96.5 30.5t32.5 77.5q0 18 -16 35
t-47 17q-54 0 -86 -76l-136 63q22 49 52 84t62 51.5t59.5 23.5t54.5 7q91 0 154 -58t63 -144q0 -146 -154 -201l-10 -80h-111z" />
    <glyph glyph-name="uni1ED5" unicode="&#x1ed5;" horiz-adv-x="1345" 
d="M319 1219l238 301h229l240 -301h-197l-159 137l-158 -137h-193zM670 -25q-121 0 -228.5 44.5t-183 120t-119 178.5t-43.5 217v4q0 153 74.5 282.5t208 206t295.5 76.5q163 0 295.5 -75.5t206 -204t73.5 -281.5v-4q0 -113 -44 -216.5t-120 -180t-184.5 -122t-230.5 -45.5z
M674 190q148 0 237.5 100t89.5 245v4q0 145 -93.5 246.5t-237.5 101.5q-146 0 -236 -99.5t-90 -244.5v-4q0 -143 95 -246t235 -103zM971 1393l-15 170q64 6 96.5 30.5t32.5 77.5q0 17 -16 34t-47 17q-54 0 -86 -75l-135 63q22 49 52 84t62 51.5t59 23.5t54 7q91 0 154 -58.5
t63 -144.5q0 -146 -153 -200l-11 -80h-110z" />
    <glyph glyph-name="uni1ED6" unicode="&#x1ed6;" horiz-adv-x="1740" 
d="M868 -25q-215 0 -387 100.5t-266 268.5t-94 369v4q0 149 56 284.5t154 236.5t239 160.5t302 59.5t301.5 -58.5t238 -158.5t153 -235t55.5 -285v-4q0 -149 -56.5 -285t-154 -236.5t-239 -160.5t-302.5 -60zM872 207q139 0 250.5 68t172.5 183.5t61 254.5v4
q0 139 -61.5 255.5t-174 185.5t-252.5 69q-139 0 -250.5 -68t-172 -183.5t-60.5 -254.5v-4q0 -104 36 -197.5t99.5 -162.5t155 -109.5t196.5 -40.5zM518 1573l238 301h229l240 -301h-197l-160 137l-157 -137h-193zM643 1939l-127 39q31 117 79 174.5t130 57.5
q58 0 154.5 -36t124.5 -36q39 0 59.5 19.5t42.5 68.5l127 -37q-33 -117 -80 -173t-129 -56q-57 0 -152.5 36t-123.5 36q-39 0 -61 -21t-44 -72z" />
    <glyph glyph-name="uni1ED7" unicode="&#x1ed7;" horiz-adv-x="1345" 
d="M319 1219l238 301h229l240 -301h-197l-159 137l-158 -137h-193zM670 -25q-121 0 -228.5 44.5t-183 120t-119 178.5t-43.5 217v4q0 153 74.5 282.5t208 206t295.5 76.5q163 0 295.5 -75.5t206 -204t73.5 -281.5v-4q0 -113 -44 -216.5t-120 -180t-184.5 -122t-230.5 -45.5z
M674 190q148 0 237.5 100t89.5 245v4q0 145 -93.5 246.5t-237.5 101.5q-146 0 -236 -99.5t-90 -244.5v-4q0 -143 95 -246t235 -103zM444 1585l-127 39q31 117 79 174t130 57q58 0 154.5 -35.5t124.5 -35.5q39 0 59.5 19.5t42.5 68.5l127 -37q-33 -117 -80 -173t-129 -56
q-57 0 -152.5 35.5t-123.5 35.5q-39 0 -61 -21t-44 -71z" />
    <glyph glyph-name="uni1ED8" unicode="&#x1ed8;" horiz-adv-x="1740" 
d="M868 -25q-215 0 -387 100.5t-266 268.5t-94 369v4q0 149 56 284.5t154 236.5t239 160.5t302 59.5t301.5 -58.5t238 -158.5t153 -235t55.5 -285v-4q0 -149 -56.5 -285t-154 -236.5t-239 -160.5t-302.5 -60zM872 207q139 0 250.5 68t172.5 183.5t61 254.5v4
q0 139 -61.5 255.5t-174 185.5t-252.5 69q-139 0 -250.5 -68t-172 -183.5t-60.5 -254.5v-4q0 -104 36 -197.5t99.5 -162.5t155 -109.5t196.5 -40.5zM518 1573l238 301h229l240 -301h-197l-160 137l-157 -137h-193zM758 -393v256h229v-256h-229z" />
    <glyph glyph-name="uni1ED9" unicode="&#x1ed9;" horiz-adv-x="1345" 
d="M319 1219l238 301h229l240 -301h-197l-159 137l-158 -137h-193zM670 -25q-121 0 -228.5 44.5t-183 120t-119 178.5t-43.5 217v4q0 153 74.5 282.5t208 206t295.5 76.5q163 0 295.5 -75.5t206 -204t73.5 -281.5v-4q0 -113 -44 -216.5t-120 -180t-184.5 -122t-230.5 -45.5z
M674 190q148 0 237.5 100t89.5 245v4q0 145 -93.5 246.5t-237.5 101.5q-146 0 -236 -99.5t-90 -244.5v-4q0 -143 95 -246t235 -103zM555 -393v256h229v-256h-229z" />
    <glyph glyph-name="uni1EDA" unicode="&#x1eda;" horiz-adv-x="1740" 
d="M868 -25q-215 0 -387 100.5t-266 268.5t-94 369v4q0 149 56 284.5t154 236.5t239 160.5t302 59.5q241 0 431 -129q83 21 83 66q0 84 -55 182h244q31 -86 31 -217q-3 -137 -125 -203q139 -194 139 -436v-4q0 -149 -56.5 -285t-154 -236.5t-239 -160.5t-302.5 -60zM872 207
q139 0 250.5 68t172.5 183.5t61 254.5v4q0 139 -61.5 255.5t-174 185.5t-252.5 69q-139 0 -250.5 -68t-172 -183.5t-60.5 -254.5v-4q0 -104 36 -197.5t99.5 -162.5t155 -109.5t196.5 -40.5zM686 1573l213 336l225 -101l-252 -235h-186z" />
    <glyph glyph-name="uni1EDB" unicode="&#x1edb;" horiz-adv-x="1345" 
d="M670 -25q-121 0 -228.5 44.5t-183 120t-119 178.5t-43.5 217v4q0 153 74.5 282.5t208 206t295.5 76.5q204 0 360 -121q66 21 66 59q0 81 -56 179h238q31 -131 31 -213q-3 -137 -129 -201q65 -127 65 -264v-4q0 -113 -44 -216.5t-120 -180t-184.5 -122t-230.5 -45.5z
M674 190q148 0 237.5 100t89.5 245v4q0 145 -93.5 246.5t-237.5 101.5q-146 0 -236 -99.5t-90 -244.5v-4q0 -143 95 -246t235 -103zM485 1219l213 335l226 -100l-252 -235h-187z" />
    <glyph glyph-name="uni1EDC" unicode="&#x1edc;" horiz-adv-x="1740" 
d="M868 -25q-215 0 -387 100.5t-266 268.5t-94 369v4q0 149 56 284.5t154 236.5t239 160.5t302 59.5q241 0 431 -129q83 21 83 66q0 84 -55 182h244q31 -86 31 -217q-3 -137 -125 -203q139 -194 139 -436v-4q0 -149 -56.5 -285t-154 -236.5t-239 -160.5t-302.5 -60zM872 207
q139 0 250.5 68t172.5 183.5t61 254.5v4q0 139 -61.5 255.5t-174 185.5t-252.5 69q-139 0 -250.5 -68t-172 -183.5t-60.5 -254.5v-4q0 -104 36 -197.5t99.5 -162.5t155 -109.5t196.5 -40.5zM870 1573l-252 235l226 101l213 -336h-187z" />
    <glyph glyph-name="uni1EDD" unicode="&#x1edd;" horiz-adv-x="1345" 
d="M670 -25q-121 0 -228.5 44.5t-183 120t-119 178.5t-43.5 217v4q0 153 74.5 282.5t208 206t295.5 76.5q204 0 360 -121q66 21 66 59q0 81 -56 179h238q31 -131 31 -213q-3 -137 -129 -201q65 -127 65 -264v-4q0 -113 -44 -216.5t-120 -180t-184.5 -122t-230.5 -45.5z
M674 190q148 0 237.5 100t89.5 245v4q0 145 -93.5 246.5t-237.5 101.5q-146 0 -236 -99.5t-90 -244.5v-4q0 -143 95 -246t235 -103zM672 1219l-252 235l225 100l213 -335h-186z" />
    <glyph glyph-name="uni1EDE" unicode="&#x1ede;" horiz-adv-x="1740" 
d="M868 -25q-215 0 -387 100.5t-266 268.5t-94 369v4q0 149 56 284.5t154 236.5t239 160.5t302 59.5q241 0 431 -129q83 21 83 66q0 84 -55 182h244q31 -86 31 -217q-3 -137 -125 -203q139 -194 139 -436v-4q0 -149 -56.5 -285t-154 -236.5t-239 -160.5t-302.5 -60zM872 207
q139 0 250.5 68t172.5 183.5t61 254.5v4q0 139 -61.5 255.5t-174 185.5t-252.5 69q-139 0 -250.5 -68t-172 -183.5t-60.5 -254.5v-4q0 -104 36 -197.5t99.5 -162.5t155 -109.5t196.5 -40.5zM819 1567l-14 170q64 6 96.5 30.5t32.5 77.5q0 17 -16 34t-48 17q-54 0 -86 -75
l-135 63q22 49 52 84t62 51.5t59.5 23.5t54.5 7q91 0 154 -58.5t63 -144.5q0 -145 -154 -200l-10 -80h-111z" />
    <glyph glyph-name="uni1EDF" unicode="&#x1edf;" horiz-adv-x="1345" 
d="M670 -25q-121 0 -228.5 44.5t-183 120t-119 178.5t-43.5 217v4q0 153 74.5 282.5t208 206t295.5 76.5q204 0 360 -121q66 21 66 59q0 81 -56 179h238q31 -131 31 -213q-3 -137 -129 -201q65 -127 65 -264v-4q0 -113 -44 -216.5t-120 -180t-184.5 -122t-230.5 -45.5z
M674 190q148 0 237.5 100t89.5 245v4q0 145 -93.5 246.5t-237.5 101.5q-146 0 -236 -99.5t-90 -244.5v-4q0 -143 95 -246t235 -103zM621 1219l-15 170q64 6 96.5 30.5t32.5 77.5q0 17 -16 34t-47 17q-54 0 -86 -75l-135 63q22 49 52 84t62 51.5t59 23.5t54 7q91 0 154 -58.5
t63 -144.5q0 -146 -154 -201l-10 -79h-110z" />
    <glyph glyph-name="uni1EE0" unicode="&#x1ee0;" horiz-adv-x="1740" 
d="M868 -25q-215 0 -387 100.5t-266 268.5t-94 369v4q0 149 56 284.5t154 236.5t239 160.5t302 59.5q241 0 431 -129q83 21 83 66q0 84 -55 182h244q31 -86 31 -217q-3 -137 -125 -203q139 -194 139 -436v-4q0 -149 -56.5 -285t-154 -236.5t-239 -160.5t-302.5 -60zM872 207
q139 0 250.5 68t172.5 183.5t61 254.5v4q0 139 -61.5 255.5t-174 185.5t-252.5 69q-139 0 -250.5 -68t-172 -183.5t-60.5 -254.5v-4q0 -104 36 -197.5t99.5 -162.5t155 -109.5t196.5 -40.5zM625 1552l-138 43q34 128 87 190t143 62q63 0 166.5 -40t134.5 -40q41 0 63.5 22
t48.5 77l140 -41q-37 -129 -89.5 -190.5t-140.5 -61.5q-63 0 -166.5 40t-134.5 40q-42 0 -65.5 -23t-48.5 -78z" />
    <glyph glyph-name="uni1EE1" unicode="&#x1ee1;" horiz-adv-x="1345" 
d="M670 -25q-121 0 -228.5 44.5t-183 120t-119 178.5t-43.5 217v4q0 153 74.5 282.5t208 206t295.5 76.5q204 0 360 -121q66 21 66 59q0 81 -56 179h238q31 -131 31 -213q-3 -137 -129 -201q65 -127 65 -264v-4q0 -113 -44 -216.5t-120 -180t-184.5 -122t-230.5 -45.5z
M674 190q148 0 237.5 100t89.5 245v4q0 145 -93.5 246.5t-237.5 101.5q-146 0 -236 -99.5t-90 -244.5v-4q0 -143 95 -246t235 -103zM430 1198l-137 43q38 131 89 192.5t140 61.5q63 0 163 -41t132 -41q42 0 65 22.5t48 80.5l137 -41q-38 -133 -89 -194.5t-140 -61.5
q-62 0 -163 40.5t-132 40.5q-42 0 -65 -22.5t-48 -79.5z" />
    <glyph glyph-name="uni1EE2" unicode="&#x1ee2;" horiz-adv-x="1740" 
d="M868 -25q-215 0 -387 100.5t-266 268.5t-94 369v4q0 149 56 284.5t154 236.5t239 160.5t302 59.5q241 0 431 -129q83 21 83 66q0 84 -55 182h244q31 -86 31 -217q-3 -137 -125 -203q139 -194 139 -436v-4q0 -149 -56.5 -285t-154 -236.5t-239 -160.5t-302.5 -60zM872 207
q139 0 250.5 68t172.5 183.5t61 254.5v4q0 139 -61.5 255.5t-174 185.5t-252.5 69q-139 0 -250.5 -68t-172 -183.5t-60.5 -254.5v-4q0 -104 36 -197.5t99.5 -162.5t155 -109.5t196.5 -40.5zM758 -393v256h229v-256h-229z" />
    <glyph glyph-name="uni1EE3" unicode="&#x1ee3;" horiz-adv-x="1345" 
d="M670 -25q-121 0 -228.5 44.5t-183 120t-119 178.5t-43.5 217v4q0 153 74.5 282.5t208 206t295.5 76.5q204 0 360 -121q66 21 66 59q0 81 -56 179h238q31 -131 31 -213q-3 -137 -129 -201q65 -127 65 -264v-4q0 -113 -44 -216.5t-120 -180t-184.5 -122t-230.5 -45.5z
M674 190q148 0 237.5 100t89.5 245v4q0 145 -93.5 246.5t-237.5 101.5q-146 0 -236 -99.5t-90 -244.5v-4q0 -143 95 -246t235 -103zM555 -393v256h229v-256h-229z" />
    <glyph glyph-name="uni1EE4" unicode="&#x1ee4;" horiz-adv-x="1550" 
d="M772 -23q-284 0 -447 162.5t-163 468.5v826h252v-816q0 -199 95 -304t267 -105q170 0 265.5 102t95.5 297v826h252v-813q0 -314 -164.5 -479t-452.5 -165zM657 -393v256h230v-256h-230z" />
    <glyph glyph-name="uni1EE5" unicode="&#x1ee5;" horiz-adv-x="1269" 
d="M512 -393v256h229v-256h-229zM528 -23q-183 0 -284 111.5t-101 304.5v688h248v-614q0 -127 60.5 -195.5t171.5 -68.5q110 0 176.5 71t66.5 197v610h248v-1081h-248v168q-132 -191 -338 -191z" />
    <glyph glyph-name="uni1EE6" unicode="&#x1ee6;" horiz-adv-x="1550" 
d="M739 1567l-14 170q64 6 96.5 30.5t32.5 77.5q0 17 -16 34t-47 17q-54 0 -86 -75l-136 63q22 49 52 84t62 51.5t59.5 23.5t54.5 7q91 0 154 -58.5t63 -144.5q0 -145 -154 -200l-10 -80h-111zM772 -23q-284 0 -447 162.5t-163 468.5v826h252v-816q0 -199 95 -304t267 -105
q170 0 265.5 102t95.5 297v826h252v-813q0 -314 -164.5 -479t-452.5 -165z" />
    <glyph glyph-name="uni1EE7" unicode="&#x1ee7;" horiz-adv-x="1269" 
d="M578 1219l-15 170q64 6 96.5 30.5t32.5 77.5q0 17 -16 34t-47 17q-54 0 -86 -75l-135 63q22 49 52 84t62 51.5t59 23.5t54 7q91 0 154 -58.5t63 -144.5q0 -146 -154 -201l-10 -79h-110zM528 -23q-183 0 -284 111.5t-101 304.5v688h248v-614q0 -127 60.5 -195.5
t171.5 -68.5q110 0 176.5 71t66.5 197v610h248v-1081h-248v168q-132 -191 -338 -191z" />
    <glyph glyph-name="uni1EE8" unicode="&#x1ee8;" horiz-adv-x="1658" 
d="M772 -23q-284 0 -447 162.5t-163 468.5v826h252v-816q0 -199 95 -304t267 -105q170 0 265.5 102t95.5 297v826h194q55 18 55 55q0 84 -55 182h244q31 -86 31 -217q-3 -182 -217 -235v-598q0 -314 -164.5 -479t-452.5 -165zM621 1550l213 336l225 -100l-252 -236h-186z
" />
    <glyph glyph-name="uni1EE9" unicode="&#x1ee9;" horiz-adv-x="1378" 
d="M528 -23q-183 0 -284 111.5t-101 304.5v688h248v-614q0 -127 60.5 -195.5t171.5 -68.5q110 0 176.5 71t66.5 197v610h203q64 18 64 58q0 80 -56 178h238q31 -131 31 -213q-3 -189 -232 -236v-868h-248v168q-132 -191 -338 -191zM469 1219l213 335l225 -100l-252 -235
h-186z" />
    <glyph glyph-name="uni1EEA" unicode="&#x1eea;" horiz-adv-x="1658" 
d="M772 -23q-284 0 -447 162.5t-163 468.5v826h252v-816q0 -199 95 -304t267 -105q170 0 265.5 102t95.5 297v826h194q55 18 55 55q0 84 -55 182h244q31 -86 31 -217q-3 -182 -217 -235v-598q0 -314 -164.5 -479t-452.5 -165zM752 1550l-252 236l225 100l213 -336h-186z" />
    <glyph glyph-name="uni1EEB" unicode="&#x1eeb;" horiz-adv-x="1378" 
d="M528 -23q-183 0 -284 111.5t-101 304.5v688h248v-614q0 -127 60.5 -195.5t171.5 -68.5q110 0 176.5 71t66.5 197v610h203q64 18 64 58q0 80 -56 178h238q31 -131 31 -213q-3 -189 -232 -236v-868h-248v168q-132 -191 -338 -191zM569 1219l-252 235l226 100l213 -335h-187
z" />
    <glyph glyph-name="uni1EEC" unicode="&#x1eec;" horiz-adv-x="1658" 
d="M772 -23q-284 0 -447 162.5t-163 468.5v826h252v-816q0 -199 95 -304t267 -105q170 0 265.5 102t95.5 297v826h194q55 18 55 55q0 84 -55 182h244q31 -86 31 -217q-3 -182 -217 -235v-598q0 -314 -164.5 -479t-452.5 -165zM739 1567l-14 170q64 6 96.5 30.5t32.5 77.5
q0 17 -16 34t-47 17q-54 0 -86 -75l-136 63q22 49 52 84t62 51.5t59.5 23.5t54.5 7q91 0 154 -58.5t63 -144.5q0 -145 -154 -200l-10 -80h-111z" />
    <glyph glyph-name="uni1EED" unicode="&#x1eed;" horiz-adv-x="1378" 
d="M528 -23q-183 0 -284 111.5t-101 304.5v688h248v-614q0 -127 60.5 -195.5t171.5 -68.5q110 0 176.5 71t66.5 197v610h203q64 18 64 58q0 80 -56 178h238q31 -131 31 -213q-3 -189 -232 -236v-868h-248v168q-132 -191 -338 -191zM578 1219l-15 170q64 6 96.5 30.5
t32.5 77.5q0 17 -16 34t-47 17q-54 0 -86 -75l-135 63q22 49 52 84t62 51.5t59 23.5t54 7q91 0 154 -58.5t63 -144.5q0 -146 -154 -201l-10 -79h-110z" />
    <glyph glyph-name="uni1EEE" unicode="&#x1eee;" horiz-adv-x="1658" 
d="M772 -23q-284 0 -447 162.5t-163 468.5v826h252v-816q0 -199 95 -304t267 -105q170 0 265.5 102t95.5 297v826h194q55 18 55 55q0 84 -55 182h244q31 -86 31 -217q-3 -182 -217 -235v-598q0 -314 -164.5 -479t-452.5 -165zM524 1550l-137 43q38 131 89 192.5t140 61.5
q63 0 163 -41t132 -41q42 0 65 22.5t48 80.5l137 -41q-38 -133 -89 -194.5t-140 -61.5q-62 0 -163 41t-132 41q-42 0 -65 -22.5t-48 -80.5z" />
    <glyph glyph-name="uni1EEF" unicode="&#x1eef;" horiz-adv-x="1378" 
d="M528 -23q-183 0 -284 111.5t-101 304.5v688h248v-614q0 -127 60.5 -195.5t171.5 -68.5q110 0 176.5 71t66.5 197v610h203q64 18 64 58q0 80 -56 178h238q31 -131 31 -213q-3 -189 -232 -236v-868h-248v168q-132 -191 -338 -191zM385 1198l-137 43q38 131 89 192.5
t140 61.5q63 0 163 -41t132 -41q42 0 65 22.5t48 80.5l137 -41q-38 -133 -89 -194.5t-140 -61.5q-62 0 -163 40.5t-132 40.5q-42 0 -65 -22.5t-48 -79.5z" />
    <glyph glyph-name="uni1EF0" unicode="&#x1ef0;" horiz-adv-x="1658" 
d="M772 -23q-284 0 -447 162.5t-163 468.5v826h252v-816q0 -199 95 -304t267 -105q170 0 265.5 102t95.5 297v826h194q55 18 55 55q0 84 -55 182h244q31 -86 31 -217q-3 -182 -217 -235v-598q0 -314 -164.5 -479t-452.5 -165zM657 -393v256h230v-256h-230z" />
    <glyph glyph-name="uni1EF1" unicode="&#x1ef1;" horiz-adv-x="1378" 
d="M528 -23q-183 0 -284 111.5t-101 304.5v688h248v-614q0 -127 60.5 -195.5t171.5 -68.5q110 0 176.5 71t66.5 197v610h203q64 18 64 58q0 80 -56 178h238q31 -131 31 -213q-3 -189 -232 -236v-868h-248v168q-132 -191 -338 -191zM512 -393v256h229v-256h-229z" />
    <glyph glyph-name="Ygrave" unicode="&#x1ef2;" horiz-adv-x="1466" 
d="M606 0v565l-569 869h297l401 -635l406 635h289l-570 -863v-571h-254zM711 1550l-252 236l225 100l213 -336h-186z" />
    <glyph glyph-name="ygrave" unicode="&#x1ef3;" horiz-adv-x="1220" 
d="M377 -334q-134 0 -256 66l84 184q77 -41 145 -41q55 0 89.5 27t64.5 98l-451 1081h264l308 -802l280 802h258l-430 -1112q-65 -166 -145.5 -234.5t-210.5 -68.5zM522 1219l-252 235l226 100l213 -335h-187z" />
    <glyph glyph-name="uni1EF4" unicode="&#x1ef4;" horiz-adv-x="1466" 
d="M618 -393v256h230v-256h-230zM606 0v565l-569 869h297l401 -635l406 635h289l-570 -863v-571h-254z" />
    <glyph glyph-name="uni1EF5" unicode="&#x1ef5;" horiz-adv-x="1220" 
d="M799 -393v256h229v-256h-229zM377 -334q-134 0 -256 66l84 184q77 -41 145 -41q55 0 89.5 27t64.5 98l-451 1081h264l308 -802l280 802h258l-430 -1112q-65 -166 -145.5 -234.5t-210.5 -68.5z" />
    <glyph glyph-name="uni1EF6" unicode="&#x1ef6;" horiz-adv-x="1466" 
d="M700 1567l-14 170q64 6 96.5 30.5t32.5 77.5q0 17 -16 34t-47 17q-54 0 -86 -75l-136 63q22 49 52 84t62 51.5t59.5 23.5t54.5 7q91 0 154 -58.5t63 -144.5q0 -145 -154 -200l-10 -80h-111zM606 0v565l-569 869h297l401 -635l406 635h289l-570 -863v-571h-254z" />
    <glyph glyph-name="uni1EF7" unicode="&#x1ef7;" horiz-adv-x="1220" 
d="M567 1219l-14 170q64 6 96.5 30.5t32.5 77.5q0 17 -16 34t-48 17q-54 0 -86 -75l-135 63q22 49 52 84t62 51.5t59.5 23.5t54.5 7q91 0 154 -58.5t63 -144.5q0 -146 -154 -201l-10 -79h-111zM377 -334q-134 0 -256 66l84 184q77 -41 145 -41q55 0 89.5 27t64.5 98
l-451 1081h264l308 -802l280 802h258l-430 -1112q-65 -166 -145.5 -234.5t-210.5 -68.5z" />
    <glyph glyph-name="uni1EF8" unicode="&#x1ef8;" horiz-adv-x="1466" 
d="M606 0v565l-569 869h297l401 -635l406 635h289l-570 -863v-571h-254zM483 1550l-137 43q38 131 89 192.5t140 61.5q63 0 163 -41t132 -41q42 0 65 22.5t48 80.5l137 -41q-38 -133 -89 -194.5t-140 -61.5q-62 0 -163 41t-132 41q-42 0 -65 -22.5t-48 -80.5z" />
    <glyph glyph-name="uni1EF9" unicode="&#x1ef9;" horiz-adv-x="1220" 
d="M377 -334q-134 0 -256 66l84 184q77 -41 145 -41q55 0 89.5 27t64.5 98l-451 1081h264l308 -802l280 802h258l-430 -1112q-65 -166 -145.5 -234.5t-210.5 -68.5zM375 1198l-137 43q38 131 89 192.5t140 61.5q63 0 163 -41t132 -41q42 0 64.5 22.5t47.5 80.5l138 -41
q-37 -132 -88.5 -194t-141.5 -62q-62 0 -163 40.5t-132 40.5q-42 0 -64.5 -22t-47.5 -80z" />
    <glyph glyph-name="uni1EFA" unicode="&#x1efa;" horiz-adv-x="0" 
d="M1341 1649h244q31 -86 31 -217q-2 -120 -95 -185t-276 -69v215q73 4 112.5 23.5t39.5 49.5q0 83 -56 183z" />
    <glyph glyph-name="uni1EFB" unicode="&#x1efb;" horiz-adv-x="0" 
d="M653 1411l-14 170q139 12 139 129q0 21 -19 40t-54 19q-31 0 -64 -20t-51 -68l-125 70q45 101 105.5 136.5t140.5 35.5q102 0 165.5 -60t63.5 -153q0 -99 -40 -145t-114 -70q0 -16 -3.5 -40t-4.5 -44h-125z" />
    <glyph glyph-name="enspace" unicode="&#x2002;" 
 />
    <glyph glyph-name="emspace" unicode="&#x2003;" horiz-adv-x="2048" 
 />
    <glyph glyph-name="threeperemspace" unicode="&#x2004;" horiz-adv-x="681" 
 />
    <glyph glyph-name="fourperemspace" unicode="&#x2005;" horiz-adv-x="512" 
 />
    <glyph glyph-name="thinspace" unicode="&#x2009;" horiz-adv-x="272" 
 />
    <glyph glyph-name="hairspace" unicode="&#x200a;" horiz-adv-x="153" 
 />
    <glyph glyph-name="endash" unicode="&#x2013;" horiz-adv-x="1081" 
d="M115 510v235h852v-235h-852z" />
    <glyph glyph-name="emdash" unicode="&#x2014;" horiz-adv-x="1839" 
d="M115 510v235h1609v-235h-1609z" />
    <glyph glyph-name="quoteleft" unicode="&#x2018;" horiz-adv-x="550" 
d="M129 864v240q0 168 78 248t237 92l27 -107q-189 -35 -174 -190h104v-283h-272z" />
    <glyph glyph-name="quoteright" unicode="&#x2019;" horiz-adv-x="550" 
d="M106 854l-26 107q189 35 174 192h-104v281h272v-240q0 -168 -78 -248t-238 -92z" />
    <glyph glyph-name="quotesinglbase" unicode="&#x201a;" horiz-adv-x="550" 
d="M96 -297l-26 104q189 38 174 193h-105v281h273v-238q0 -168 -78 -248t-238 -92z" />
    <glyph glyph-name="quotedblleft" unicode="&#x201c;" horiz-adv-x="1026" 
d="M604 864v240q0 168 78 248t238 92l26 -107q-188 -35 -176 -190h107v-283h-273zM129 864v240q0 168 78 248t237 92l27 -107q-189 -35 -174 -190h104v-283h-272z" />
    <glyph glyph-name="quotedblright" unicode="&#x201d;" horiz-adv-x="1026" 
d="M582 854l-27 107q189 35 174 192h-104v281h272v-240q0 -168 -78 -248t-237 -92zM106 854l-26 107q189 35 174 192h-104v281h272v-240q0 -168 -78 -248t-238 -92z" />
    <glyph glyph-name="quotedblbase" unicode="&#x201e;" horiz-adv-x="1026" 
d="M571 -297l-26 104q189 38 174 193h-105v281h273v-238q0 -168 -78 -248t-238 -92zM96 -297l-26 104q189 38 174 193h-105v281h273v-238q0 -168 -78 -248t-238 -92z" />
    <glyph glyph-name="dagger" unicode="&#x2020;" horiz-adv-x="839" 
d="M346 487l19 564l-250 -19v146l247 -19l-24 275h164l-25 -275l248 19v-146l-250 19l19 -564h-148z" />
    <glyph glyph-name="daggerdbl" unicode="&#x2021;" horiz-adv-x="880" 
d="M358 0l25 274l-248 -18v145l248 -18l-16 334l16 334l-248 -19v146l248 -19l-25 275h164l-24 -275l247 19v-146l-247 19l16 -334l-16 -334l247 18v-145l-247 18l24 -274h-164z" />
    <glyph glyph-name="bullet" unicode="&#x2022;" horiz-adv-x="1005" 
d="M502 432q-119 0 -204 84.5t-85 202.5v4q0 118 85.5 202.5t203.5 84.5t204.5 -84.5t86.5 -202.5v-4q0 -118 -85.5 -202.5t-205.5 -84.5z" />
    <glyph glyph-name="ellipsis" unicode="&#x2026;" horiz-adv-x="1622" 
d="M1217 0v274h266v-274h-266zM678 0v274h266v-274h-266zM139 0v274h267v-274h-267z" />
    <glyph glyph-name="perthousand" unicode="&#x2030;" horiz-adv-x="2514" 
d="M434 717q-148 0 -242 105.5t-94 256.5v4q0 152 95.5 259.5t244.5 107.5q148 0 242 -106t94 -257v-4q0 -152 -95.5 -259t-244.5 -107zM244 0l1048 1434h203l-1049 -1434h-202zM2077 -16q-150 0 -243 105t-93 257v4q0 152 95 259.5t245 107.5q148 0 242 -106t94 -257v-4
q0 -152 -95.5 -259t-244.5 -107zM1300 -16q-148 0 -241.5 105.5t-93.5 256.5v4q0 152 95.5 259.5t244.5 107.5q147 0 241 -106t94 -257v-4q0 -152 -95.5 -259t-244.5 -107zM438 874q70 0 112 59t42 146v4q0 87 -45 148t-113 61q-70 0 -111.5 -58.5t-41.5 -146.5v-4
q0 -89 44.5 -149t112.5 -60zM2081 141q70 0 111.5 58.5t41.5 146.5v4q0 88 -44.5 148.5t-112.5 60.5q-70 0 -112 -59t-42 -146v-4q0 -89 45 -149t113 -60zM1305 141q70 0 111.5 58.5t41.5 146.5v4q0 87 -45 148t-113 61q-70 0 -111.5 -58.5t-41.5 -146.5v-4q0 -89 45 -149
t113 -60z" />
    <glyph glyph-name="guilsinglleft" unicode="&#x2039;" horiz-adv-x="724" 
d="M430 84l-340 448v17l340 450l188 -96l-270 -360l270 -363z" />
    <glyph glyph-name="guilsinglright" unicode="&#x203a;" horiz-adv-x="724" 
d="M297 84l-188 94l270 361l-270 362l188 98l338 -450v-17z" />
    <glyph glyph-name="fraction" unicode="&#x2044;" horiz-adv-x="921" 
d="M-98 0l514 745l458 689h146l-514 -746l-459 -688h-145z" />
    <glyph glyph-name="Euro" unicode="&#x20ac;" horiz-adv-x="1474" 
d="M889 -25q-223 0 -380.5 132.5t-215.5 353.5h-187v174h158q-2 27 -2 78v4q0 71 4 92h-160v174h193q63 214 217 344.5t365 130.5q176 0 291 -69.5t208 -200.5l-190 -141q-70 96 -142.5 141t-173.5 45q-109 0 -190.5 -65.5t-124.5 -184.5h440v-174h-479q-4 -54 -4 -88v-4
q0 -28 4 -82h479v-174h-442q42 -123 128 -191.5t206 -68.5q95 0 167.5 47.5t145.5 146.5l180 -131q-94 -139 -212 -214t-283 -75z" />
    <glyph glyph-name="published" unicode="&#x2117;" horiz-adv-x="1699" 
d="M848 -25q-153 0 -290.5 59t-235.5 158.5t-155.5 235.5t-57.5 285v4q0 148 58 284.5t156.5 237t237 160t291.5 59.5t290.5 -59t235.5 -158t155.5 -235t57.5 -285v-4q0 -148 -58 -284.5t-156.5 -237t-237 -160.5t-291.5 -60zM848 49q185 0 338 90t240 243.5t87 334.5v4
q0 181 -86 333t-238 241t-337 89t-338.5 -90t-240.5 -243t-87 -334v-4q0 -181 86 -333.5t238.5 -241.5t337.5 -89zM586 342v778h313q140 0 220.5 -70.5t80.5 -191.5v-4q0 -127 -90.5 -196.5t-226.5 -69.5h-146v-246h-151zM737 721h150q73 0 116.5 35.5t43.5 95.5v4
q0 62 -42.5 95.5t-117.5 33.5h-150v-264z" />
    <glyph glyph-name="servicemark" unicode="&#x2120;" horiz-adv-x="1443" 
d="M344 791q-76 0 -151 27.5t-132 76.5l66 82q114 -88 223 -88q59 0 91 22t32 60q0 36 -31 56t-118 40q-58 14 -96 27.5t-71.5 34.5t-49 51.5t-15.5 72.5q0 86 64.5 139.5t169.5 53.5q149 0 245 -84l-63 -84q-95 65 -184 65q-54 0 -84.5 -21t-30.5 -54q0 -37 32.5 -58
t120.5 -41q114 -25 171 -67t57 -119q0 -89 -67.5 -140.5t-178.5 -51.5zM729 803v631h129l191 -299l190 299h125v-631h-117v448l-194 -303h-13l-194 303v-448h-117z" />
    <glyph glyph-name="trademark" unicode="&#x2122;" horiz-adv-x="1413" 
d="M698 803v631h129l191 -299l190 299h125v-631h-116v448l-195 -303h-12l-195 303v-448h-117zM248 803v520h-195v111h510v-111h-194v-520h-121z" />
    <glyph glyph-name="minus" unicode="&#x2212;" horiz-adv-x="1298" 
d="M1159 606h-1020v232h1020v-232z" />
    <glyph glyph-name="f_f" unicode="&#xfb00;" horiz-adv-x="1540" 
d="M981 0v868h-137v207h137v78q0 180 88 268q86 86 242 86q106 0 202 -28v-209q-80 26 -145 26q-143 0 -143 -163v-60h286v-205h-282v-868h-248zM211 0v868h-137v207h137v78q0 180 88 268q86 86 244 86q104 0 200 -28v-209q-80 26 -145 26q-143 0 -143 -163v-60h286v-205
h-282v-868h-248z" />
    <glyph glyph-name="fi" unicode="&#xfb01;" horiz-adv-x="1355" 
d="M930 1247v236h266v-236h-266zM211 0v868h-137v207h137v78q0 180 88 268q86 86 244 86q104 0 200 -28v-209q-80 26 -145 26q-143 0 -143 -163v-60h286v-205h-282v-868h-248zM940 0v1081h248v-1081h-248z" />
    <glyph glyph-name="fl" unicode="&#xfb02;" horiz-adv-x="1355" 
d="M211 0v868h-137v207h137v78q0 180 88 268q86 86 244 86q104 0 200 -28v-209q-80 26 -145 26q-143 0 -143 -163v-60h286v-205h-282v-868h-248zM940 0v1495h248v-1495h-248z" />
    <glyph glyph-name="f_f_i" unicode="&#xfb03;" horiz-adv-x="2125" 
d="M1700 1247v236h266v-236h-266zM981 0v868h-137v207h137v78q0 180 88 268q86 86 242 86q106 0 202 -28v-209q-80 26 -145 26q-143 0 -143 -163v-60h286v-205h-282v-868h-248zM211 0v868h-137v207h137v78q0 180 88 268q86 86 244 86q104 0 200 -28v-209q-80 26 -145 26
q-143 0 -143 -163v-60h286v-205h-282v-868h-248zM1708 0v1081h250v-1081h-250z" />
    <glyph glyph-name="f_f_l" unicode="&#xfb04;" horiz-adv-x="2125" 
d="M981 0v868h-137v207h137v78q0 180 88 268q86 86 242 86q106 0 202 -28v-209q-80 26 -145 26q-143 0 -143 -163v-60h286v-205h-282v-868h-248zM211 0v868h-137v207h137v78q0 180 88 268q86 86 244 86q104 0 200 -28v-209q-80 26 -145 26q-143 0 -143 -163v-60h286v-205
h-282v-868h-248zM1708 0v1495h250v-1495h-250z" />
    <glyph glyph-name="NUL" horiz-adv-x="0" 
 />
    <glyph glyph-name="CR" horiz-adv-x="614" 
 />
    <glyph glyph-name="Q.alt" horiz-adv-x="1740" 
d="M1364 -207l-240 227q-116 -45 -256 -45q-215 0 -387 100.5t-266 268.5t-94 369v4q0 149 56 284.5t154 236.5t239 160.5t302 59.5t301.5 -58.5t238 -158.5t153 -235t55.5 -285v-4q0 -163 -64 -306.5t-182 -248.5l359 -352v-17h-369zM872 207q139 0 250.5 68t172.5 183.5
t61 254.5v4q0 139 -61.5 255.5t-174 185.5t-252.5 69q-139 0 -250.5 -68t-172 -183.5t-60.5 -254.5v-4q0 -104 36 -197.5t99.5 -162.5t155 -109.5t196.5 -40.5z" />
    <glyph glyph-name="a.alt" horiz-adv-x="1374" 
d="M602 -23q-96 0 -185.5 38t-160.5 107.5t-113.5 177.5t-42.5 239v4q0 131 42 239t112.5 177.5t160 107t187.5 37.5q227 0 369 -191v168h248v-1081h-248v180q-144 -203 -369 -203zM662 193q128 0 220.5 97.5t92.5 248.5v4q0 152 -92 249t-221 97q-132 0 -222 -94.5
t-90 -251.5v-4q0 -153 90.5 -249.5t221.5 -96.5z" />
    <glyph glyph-name="aacute.alt" horiz-adv-x="1374" 
d="M600 1219l213 335l225 -100l-252 -235h-186zM602 -23q-96 0 -185.5 38t-160.5 107.5t-113.5 177.5t-42.5 239v4q0 131 42 239t112.5 177.5t160 107t187.5 37.5q227 0 369 -191v168h248v-1081h-248v180q-144 -203 -369 -203zM662 193q128 0 220.5 97.5t92.5 248.5v4
q0 152 -92 249t-221 97q-132 0 -222 -94.5t-90 -251.5v-4q0 -153 90.5 -249.5t221.5 -96.5z" />
    <glyph glyph-name="abreve.alt" horiz-adv-x="1374" 
d="M602 -23q-96 0 -185.5 38t-160.5 107.5t-113.5 177.5t-42.5 239v4q0 131 42 239t112.5 177.5t160 107t187.5 37.5q227 0 369 -191v168h248v-1081h-248v180q-144 -203 -369 -203zM662 193q128 0 220.5 97.5t92.5 248.5v4q0 152 -92 249t-221 97q-132 0 -222 -94.5
t-90 -251.5v-4q0 -153 90.5 -249.5t221.5 -96.5zM698 1214q-150 0 -245 79t-105 218h170q42 -125 180 -125q139 0 181 125h172q-12 -139 -107.5 -218t-245.5 -79z" />
    <glyph glyph-name="acircumflex.alt" horiz-adv-x="1374" 
d="M346 1219l238 301h229l240 -301h-197l-160 137l-157 -137h-193zM602 -23q-96 0 -185.5 38t-160.5 107.5t-113.5 177.5t-42.5 239v4q0 131 42 239t112.5 177.5t160 107t187.5 37.5q227 0 369 -191v168h248v-1081h-248v180q-144 -203 -369 -203zM662 193q128 0 220.5 97.5
t92.5 248.5v4q0 152 -92 249t-221 97q-132 0 -222 -94.5t-90 -251.5v-4q0 -153 90.5 -249.5t221.5 -96.5z" />
    <glyph glyph-name="adieresis.alt" horiz-adv-x="1374" 
d="M772 1219v243h252v-243h-252zM373 1219v243h252v-243h-252zM602 -23q-96 0 -185.5 38t-160.5 107.5t-113.5 177.5t-42.5 239v4q0 131 42 239t112.5 177.5t160 107t187.5 37.5q227 0 369 -191v168h248v-1081h-248v180q-144 -203 -369 -203zM662 193q128 0 220.5 97.5
t92.5 248.5v4q0 152 -92 249t-221 97q-132 0 -222 -94.5t-90 -251.5v-4q0 -153 90.5 -249.5t221.5 -96.5z" />
    <glyph glyph-name="agrave.alt" horiz-adv-x="1374" 
d="M602 -23q-96 0 -185.5 38t-160.5 107.5t-113.5 177.5t-42.5 239v4q0 131 42 239t112.5 177.5t160 107t187.5 37.5q227 0 369 -191v168h248v-1081h-248v180q-144 -203 -369 -203zM662 193q128 0 220.5 97.5t92.5 248.5v4q0 152 -92 249t-221 97q-132 0 -222 -94.5
t-90 -251.5v-4q0 -153 90.5 -249.5t221.5 -96.5zM610 1219l-252 235l226 100l213 -335h-187z" />
    <glyph glyph-name="amacron.alt" horiz-adv-x="1374" 
d="M602 -23q-96 0 -185.5 38t-160.5 107.5t-113.5 177.5t-42.5 239v4q0 131 42 239t112.5 177.5t160 107t187.5 37.5q227 0 369 -191v168h248v-1081h-248v180q-144 -203 -369 -203zM662 193q128 0 220.5 97.5t92.5 248.5v4q0 152 -92 249t-221 97q-132 0 -222 -94.5
t-90 -251.5v-4q0 -153 90.5 -249.5t221.5 -96.5zM350 1241v180h697v-180h-697z" />
    <glyph glyph-name="aogonek.alt" horiz-adv-x="1374" 
d="M1243 -217v-119q-157 -16 -246.5 34t-89.5 134q0 80 82 168h-18v180q-144 -203 -369 -203q-96 0 -185.5 38t-160.5 107.5t-113.5 177.5t-42.5 239v4q0 131 42 239t112.5 177.5t160 107t187.5 37.5q227 0 369 -191v168h248v-1081h-56q-67 -67 -67 -129q0 -88 147 -88z
M662 193q128 0 220.5 97.5t92.5 248.5v4q0 152 -92 249t-221 97q-132 0 -222 -94.5t-90 -251.5v-4q0 -153 90.5 -249.5t221.5 -96.5z" />
    <glyph glyph-name="aring.alt" horiz-adv-x="1374" 
d="M461 1444q0 94 69.5 161.5t167.5 67.5t168 -67.5t70 -161.5t-70 -162t-168 -68t-167.5 68t-69.5 162zM561 1444q0 -57 40 -97t97 -40t97.5 40t40.5 97t-40.5 97t-97.5 40t-97 -40t-40 -97zM602 -23q-96 0 -185.5 38t-160.5 107.5t-113.5 177.5t-42.5 239v4q0 131 42 239
t112.5 177.5t160 107t187.5 37.5q227 0 369 -191v168h248v-1081h-248v180q-144 -203 -369 -203zM662 193q128 0 220.5 97.5t92.5 248.5v4q0 152 -92 249t-221 97q-132 0 -222 -94.5t-90 -251.5v-4q0 -153 90.5 -249.5t221.5 -96.5z" />
    <glyph glyph-name="aring.alt2" horiz-adv-x="1202" 
d="M766 1075q297 -82 297 -434v-641h-246v133q-131 -156 -350 -156q-105 0 -191 37t-140 114t-54 183v4q0 174 120 264.5t318 90.5q159 0 299 -45v20q0 113 -68.5 172.5t-197.5 59.5q-146 0 -309 -68l-68 199q138 60 252 77q-61 64 -61 150q0 94 69.5 161.5t167.5 67.5
t168 -67.5t70 -161.5q0 -97 -76 -160zM467 1235q0 -57 40 -97t97 -40q56 0 96.5 40t40.5 97q0 55 -40.5 96t-96.5 41q-57 0 -97 -40.5t-40 -96.5zM823 391v62q-108 43 -248 43q-116 0 -181.5 -45t-65.5 -123v-4q0 -75 59 -117.5t150 -42.5q125 0 205.5 62.5t80.5 164.5z" />
    <glyph glyph-name="aringacute.alt" horiz-adv-x="1374" 
d="M598 1739l225 282l221 -100l-260 -182h-186zM461 1444q0 94 69.5 161.5t167.5 67.5t168 -67.5t70 -161.5t-70 -162t-168 -68t-167.5 68t-69.5 162zM561 1444q0 -57 40 -97t97 -40t97.5 40t40.5 97t-40.5 97t-97.5 40t-97 -40t-40 -97zM602 -23q-96 0 -185.5 38
t-160.5 107.5t-113.5 177.5t-42.5 239v4q0 131 42 239t112.5 177.5t160 107t187.5 37.5q227 0 369 -191v168h248v-1081h-248v180q-144 -203 -369 -203zM662 193q128 0 220.5 97.5t92.5 248.5v4q0 152 -92 249t-221 97q-132 0 -222 -94.5t-90 -251.5v-4q0 -153 90.5 -249.5
t221.5 -96.5z" />
    <glyph glyph-name="aringacute.alt2" horiz-adv-x="1202" 
d="M502 1536l225 283l221 -101l-258 -182h-188zM766 1075q297 -82 297 -434v-641h-246v133q-131 -156 -350 -156q-105 0 -191 37t-140 114t-54 183v4q0 174 120 264.5t318 90.5q159 0 299 -45v20q0 113 -68.5 172.5t-197.5 59.5q-146 0 -309 -68l-68 199q138 60 252 77
q-61 64 -61 150q0 94 69.5 161.5t167.5 67.5t168 -67.5t70 -161.5q0 -97 -76 -160zM467 1235q0 -57 40 -97t97 -40q56 0 96.5 40t40.5 97q0 55 -40.5 96t-96.5 41q-57 0 -97 -40.5t-40 -96.5zM823 391v62q-108 43 -248 43q-116 0 -181.5 -45t-65.5 -123v-4q0 -75 59 -117.5
t150 -42.5q125 0 205.5 62.5t80.5 164.5z" />
    <glyph glyph-name="atilde.alt" horiz-adv-x="1374" 
d="M602 -23q-96 0 -185.5 38t-160.5 107.5t-113.5 177.5t-42.5 239v4q0 131 42 239t112.5 177.5t160 107t187.5 37.5q227 0 369 -191v168h248v-1081h-248v180q-144 -203 -369 -203zM662 193q128 0 220.5 97.5t92.5 248.5v4q0 152 -92 249t-221 97q-132 0 -222 -94.5
t-90 -251.5v-4q0 -153 90.5 -249.5t221.5 -96.5zM457 1198l-138 43q38 131 89.5 192.5t140.5 61.5q63 0 163 -41t132 -41q42 0 64.5 22.5t47.5 80.5l138 -41q-37 -132 -88.5 -194t-141.5 -62q-62 0 -163 40.5t-132 40.5q-42 0 -64.5 -22t-47.5 -80z" />
    <glyph glyph-name="three.alt" horiz-adv-x="1249" 
d="M637 -25q-171 0 -313 66.5t-244 183.5l174 162q160 -184 387 -184q118 0 187 56.5t69 150.5v4q0 98 -82.5 150t-232.5 52h-154v213h160q124 0 197 56t73 149v4q0 87 -66 140t-182 53q-99 0 -173 -44t-152 -136l-176 143q99 131 217.5 197.5t287.5 66.5q220 0 357 -108
t137 -275v-4q0 -232 -213 -336q252 -98 252 -323v-4q0 -189 -138 -311t-372 -122z" />
    <glyph glyph-name="registered.alt" horiz-adv-x="1699" 
d="M848 -25q-153 0 -290.5 59t-235.5 158.5t-155.5 235.5t-57.5 285v4q0 148 58 284.5t156.5 237t237 160t291.5 59.5t290.5 -59t235.5 -158t155.5 -235t57.5 -285v-4q0 -148 -58 -284.5t-156.5 -237t-237 -160.5t-291.5 -60zM848 49q185 0 338 90t240 243.5t87 334.5v4
q0 181 -86 333t-238 241t-337 89t-338.5 -90t-240.5 -243t-87 -334v-4q0 -181 86 -333.5t238.5 -241.5t337.5 -89zM551 350v776h346q154 0 236 -82q63 -63 63 -163v-4q0 -91 -48.5 -150.5t-131.5 -83.5l209 -293h-176l-189 268h-162v-268h-147zM698 748h193q72 0 112.5 32
t40.5 88v4q0 59 -40 90t-113 31h-193v-245z" />
    <glyph glyph-name="hfjslug" horiz-adv-x="1421" 
d="M1319 -410h-426l-16 29h-334l-17 -29h-424v621q29 0 47.5 18t18.5 47q0 27 -18.5 46.5t-47.5 19.5v1135h205l62 161h684l59 -161h207v-1887zM819 1153v-352h31v160h78v28h-78v135h88v29h-119zM377 1153v-352h31v162h96v-162h31v352h-31v-162h-96v162h-31zM942 838v-31
q19 -8 43 -8q64 0 64 73v281h-33v-281q0 -45 -33 -45q-23 0 -41 11zM760 952l-27 6q-3 -9 -8 -30.5t-8 -30.5h-2l-33 64q47 44 47 86q0 63 -55 63q-26 0 -42 -18t-16 -45q0 -9 1 -16.5t4.5 -16.5t6 -13.5t9 -16.5t8.5 -17q-47 -38 -47 -97q0 -35 16 -55t43 -20q39 0 60 49h2
l24 -49l25 12l-35 65q18 45 27 80zM1071 662v-95h16v25l17 16l31 -41h20l-41 54l37 41h-21l-40 -50h-3v50h-16zM999 598l21 -31h18l-24 35q20 9 20 29q0 31 -35 31h-41v-95h17v31h24zM872 565q23 0 36.5 14t13.5 35q0 20 -14 35t-36 15t-35.5 -15t-13.5 -35q0 -21 13 -35
t36 -14zM758 616l-27 46h-18l37 -60v-35h16v35l37 60h-19zM395 662v-95h70v15h-53v26h47v15h-47v24h53v15h-70zM270 662v-95h17v66l51 -66h14v95h-16v-66l-51 66h-15zM494 662l28 -97h17l22 70h2l23 -70h16l29 97h-17l-20 -72h-2l-23 72h-14l-23 -72h-2l-20 72h-16zM670 981
q-25 48 -25 66q0 38 29 38q26 0 26 -38q0 -31 -30 -66zM659 946l41 -80q-15 -43 -41 -43q-32 0 -32 51q0 40 32 72zM997 612h-22v35h22q21 0 21 -16q0 -19 -21 -19zM872 580q-32 0 -32 34q0 14 8 24.5t24 10.5t24.5 -10.5t8.5 -24.5q0 -34 -33 -34z" />
    <glyph glyph-name="i.dot" horiz-adv-x="585" 
d="M160 1247v236h266v-236h-266zM170 0v1081h248v-1081h-248z" />
    <glyph glyph-name="caron.alt" 
d="M416 1106l24 389h193v-6l-115 -383h-102z" />
    <glyph glyph-name="acute.cap" 
d="M322 1552l229 297l225 -98l-262 -199h-192z" />
    <glyph glyph-name="hungarumlaut.cap" 
d="M115 1552l229 297l217 -98l-260 -199h-186zM473 1552l229 297l218 -98l-261 -199h-186z" />
    <glyph glyph-name="grave.cap" 
d="M469 1849l231 -297h-194l-260 199z" />
    <glyph glyph-name="circumflex.cap" 
d="M147 1552l248 277h234l248 -277h-209l-158 119l-158 -119h-205z" />
    <glyph glyph-name="caron.cap" 
d="M877 1829l-248 -277h-234l-248 277h209l158 -117l158 117h205z" />
    <glyph glyph-name="breve.cap" 
d="M512 1548q-151 0 -246.5 72t-107.5 203h176q41 -103 178 -103t178 103h176q-12 -131 -107.5 -203t-246.5 -72z" />
    <glyph glyph-name="tilde.cap" 
d="M258 1532l-137 43q34 128 86.5 190t142.5 62q63 0 166.5 -40t134.5 -40q42 0 65 22t48 76l139 -41q-37 -129 -89 -190.5t-140 -61.5q-63 0 -166.5 40t-134.5 40q-42 0 -66 -22.5t-49 -77.5z" />
    <glyph glyph-name="macron.cap" 
d="M145 1575v184h736v-184h-736z" />
    <glyph glyph-name="dieresis.cap" 
d="M596 1552v230h254v-230h-254zM174 1552v230h256v-230h-256z" />
    <glyph glyph-name="dotaccent.cap" 
d="M381 1552v230h262v-230h-262z" />
    <glyph glyph-name="ring.cap" 
d="M268 1765q0 91 72 153t172 62t172 -62t72 -153q0 -92 -72 -154.5t-172 -62.5t-172 62.5t-72 154.5zM381 1765q0 -52 36 -86t95 -34t96 34t37 86q0 50 -37 84.5t-96 34.5t-95 -34t-36 -85z" />
    </font>
</defs>
</svg>
